SourceSerif-Italic_d0.ufo
<glyph name="exclam" format="2">
	<unicode hex="0021"/>
	<advance width="276"/>
	<outline>
		<contour>
			<point x="132" y="156" type="line"/>
			<point x="144" y="156" type="line"/>
			<point x="221" y="516"/>
			<point x="251" y="656"/>
			<point x="251" y="672" type="curve" smooth="yes"/>
			<point x="251" y="682"/>
			<point x="246" y="688"/>
			<point x="237" y="688" type="curve"/>
			<point x="226" y="688"/>
			<point x="219" y="680"/>
			<point x="216" y="664" type="curve" smooth="yes"/>
			<point x="205" y="606"/>
			<point x="193" y="514"/>
			<point x="171" y="388" type="curve" smooth="yes"/>
		</contour>
		<contour>
			<point x="109" y="-8" type="curve" smooth="yes"/>
			<point x="124" y="-8"/>
			<point x="141" y="3"/>
			<point x="141" y="24" type="curve" smooth="yes"/>
			<point x="141" y="37"/>
			<point x="130" y="48"/>
			<point x="117" y="48" type="curve" smooth="yes"/>
			<point x="100" y="48"/>
			<point x="85" y="37"/>
			<point x="85" y="15" type="curve" smooth="yes"/>
			<point x="85" y="2"/>
			<point x="96" y="-8"/>
		</contour>
	</outline>
</glyph>
<glyph name="numbersign" format="2">
	<unicode hex="0023"/>
	<advance width="512"/>
	<outline>
		<contour>
			<point x="80" y="0" type="line"/>
			<point x="94" y="0" type="line"/>
			<point x="266" y="656" type="line"/>
			<point x="252" y="656" type="line"/>
		</contour>
		<contour>
			<point x="36" y="232" type="line"/>
			<point x="34" y="211" type="line"/>
			<point x="462" y="211" type="line"/>
			<point x="464" y="232" type="line"/>
		</contour>
		<contour>
			<point x="525" y="440" type="line"/>
			<point x="527" y="461" type="line"/>
			<point x="95" y="461" type="line"/>
			<point x="93" y="440" type="line"/>
		</contour>
		<contour>
			<point x="282" y="0" type="line"/>
			<point x="296" y="0" type="line"/>
			<point x="468" y="656" type="line"/>
			<point x="454" y="656" type="line"/>
		</contour>
	</outline>
</glyph>
<glyph name="dollar" format="2">
	<unicode hex="0024"/>
	<advance width="460"/>
	<outline>
		<contour>
			<point x="164" y="-116" type="line"/>
			<point x="178" y="-116" type="line"/>
			<point x="269" y="332" type="line"/>
			<point x="255" y="332" type="line"/>
		</contour>
		<contour>
			<point x="192" y="-12" type="curve" smooth="yes"/>
			<point x="282" y="-12"/>
			<point x="392" y="42"/>
			<point x="392" y="182" type="curve" smooth="yes"/>
			<point x="392" y="258"/>
			<point x="332" y="296"/>
			<point x="273" y="335" type="curve" smooth="yes"/>
			<point x="264" y="341" type="line" smooth="yes"/>
			<point x="206" y="379"/>
			<point x="150" y="417"/>
			<point x="150" y="488" type="curve" smooth="yes"/>
			<point x="150" y="607"/>
			<point x="233" y="655"/>
			<point x="317" y="655" type="curve"/>
			<point x="371" y="655"/>
			<point x="402" y="641"/>
			<point x="429" y="611" type="curve"/>
			<point x="421" y="629" type="line"/>
			<point x="425" y="549" type="line" smooth="yes"/>
			<point x="426" y="530"/>
			<point x="437" y="524"/>
			<point x="446" y="524" type="curve" smooth="yes"/>
			<point x="458" y="524"/>
			<point x="464" y="531"/>
			<point x="466" y="544" type="curve"/>
			<point x="459" y="626"/>
			<point x="399" y="668"/>
			<point x="319" y="668" type="curve"/>
			<point x="229" y="668"/>
			<point x="128" y="615"/>
			<point x="128" y="478" type="curve" smooth="yes"/>
			<point x="128" y="401"/>
			<point x="187" y="364"/>
			<point x="246" y="325" type="curve" smooth="yes"/>
			<point x="255" y="319" type="line" smooth="yes"/>
			<point x="313" y="281"/>
			<point x="369" y="243"/>
			<point x="369" y="172" type="curve" smooth="yes"/>
			<point x="369" y="52"/>
			<point x="281" y="0"/>
			<point x="195" y="0" type="curve" smooth="yes"/>
			<point x="144" y="0"/>
			<point x="85" y="16"/>
			<point x="63" y="59" type="curve"/>
			<point x="78" y="35" type="line"/>
			<point x="73" y="119" type="line" smooth="yes"/>
			<point x="72" y="138"/>
			<point x="61" y="144"/>
			<point x="52" y="144" type="curve" smooth="yes"/>
			<point x="40" y="144"/>
			<point x="33" y="136"/>
			<point x="32" y="124" type="curve"/>
			<point x="36" y="26"/>
			<point x="104" y="-12"/>
		</contour>
		<contour>
			<point x="255" y="332" type="line"/>
			<point x="269" y="332" type="line"/>
			<point x="356" y="760" type="line"/>
			<point x="342" y="760" type="line"/>
		</contour>
	</outline>
</glyph>
<glyph name="ampersand" format="2">
	<unicode hex="0026"/>
	<advance width="604"/>
	<outline>
		<contour>
			<point x="282" y="-12" type="curve" smooth="yes"/>
			<point x="407" y="-12"/>
			<point x="496" y="55"/>
			<point x="496" y="172" type="curve" smooth="yes"/>
			<point x="496" y="239"/>
			<point x="453" y="288"/>
			<point x="406" y="304" type="curve"/>
			<point x="406" y="298" type="line"/>
			<point x="541" y="296"/>
			<point x="621" y="350"/>
			<point x="660" y="460" type="curve"/>
			<point x="640" y="468" type="line"/>
			<point x="601" y="361"/>
			<point x="541" y="310"/>
			<point x="379" y="310" type="curve"/>
			<point x="376" y="298" type="line"/>
			<point x="429" y="286"/>
			<point x="476" y="239"/>
			<point x="476" y="172" type="curve" smooth="yes"/>
			<point x="476" y="72"/>
			<point x="401" y="9"/>
			<point x="282" y="9" type="curve" smooth="yes"/>
			<point x="147" y="9"/>
			<point x="76" y="89"/>
			<point x="76" y="192" type="curve" smooth="yes"/>
			<point x="76" y="298"/>
			<point x="146" y="392"/>
			<point x="262" y="408" type="curve"/>
			<point x="235" y="436"/>
			<point x="216" y="471"/>
			<point x="216" y="520" type="curve" smooth="yes"/>
			<point x="216" y="599"/>
			<point x="264" y="675"/>
			<point x="373" y="675" type="curve" smooth="yes"/>
			<point x="396" y="675"/>
			<point x="416" y="670"/>
			<point x="431" y="665" type="curve"/>
			<point x="399" y="684" type="line"/>
			<point x="439" y="630" type="line" smooth="yes"/>
			<point x="450" y="615"/>
			<point x="454" y="608"/>
			<point x="468" y="608" type="curve" smooth="yes"/>
			<point x="478" y="608"/>
			<point x="488" y="615"/>
			<point x="488" y="628" type="curve"/>
			<point x="477" y="651"/>
			<point x="449" y="688"/>
			<point x="373" y="688" type="curve" smooth="yes"/>
			<point x="253" y="688"/>
			<point x="196" y="604"/>
			<point x="196" y="520" type="curve" smooth="yes"/>
			<point x="196" y="437"/>
			<point x="256" y="377"/>
			<point x="301" y="377" type="curve" smooth="yes"/>
			<point x="320" y="377"/>
			<point x="328" y="384"/>
			<point x="328" y="396" type="curve" smooth="yes"/>
			<point x="328" y="411"/>
			<point x="301" y="419"/>
			<point x="271" y="419" type="curve" smooth="yes"/>
			<point x="157" y="419"/>
			<point x="53" y="321"/>
			<point x="53" y="192" type="curve" smooth="yes"/>
			<point x="53" y="75"/>
			<point x="131" y="-12"/>
		</contour>
	</outline>
</glyph>
<glyph name="quotesingle" format="2">
	<unicode hex="0027"/>
	<advance width="136"/>
	<outline>
		<contour>
			<point x="185" y="748" type="curve"/>
			<point x="174" y="748"/>
			<point x="171" y="741"/>
			<point x="168" y="726" type="curve" smooth="yes"/>
			<point x="162" y="694"/>
			<point x="156" y="647"/>
			<point x="147" y="584" type="curve" smooth="yes"/>
			<point x="129" y="468" type="line"/>
			<point x="139" y="468" type="line"/>
			<point x="181" y="657"/>
			<point x="197" y="728"/>
			<point x="197" y="736" type="curve" smooth="yes"/>
			<point x="197" y="744"/>
			<point x="193" y="748"/>
		</contour>
	</outline>
</glyph>
<glyph name="parenleft" format="2">
	<unicode hex="0028"/>
	<advance width="292"/>
	<outline>
		<contour>
			<point x="191" y="-220" type="curve"/>
			<point x="200" y="-215" type="line"/>
			<point x="149" y="-107"/>
			<point x="119" y="-1"/>
			<point x="119" y="136" type="curve" smooth="yes"/>
			<point x="119" y="374"/>
			<point x="223" y="580"/>
			<point x="382" y="767" type="curve"/>
			<point x="375" y="772" type="line"/>
			<point x="195" y="579"/>
			<point x="97" y="356"/>
			<point x="97" y="135" type="curve" smooth="yes"/>
			<point x="97" y="10"/>
			<point x="129" y="-110"/>
		</contour>
	</outline>
</glyph>
<glyph name="asterisk" format="2">
	<unicode hex="002A"/>
	<advance width="408"/>
	<outline>
		<contour>
			<point x="243" y="753"/>
			<point x="236" y="748"/>
			<point x="236" y="736" type="curve" smooth="yes"/>
			<point x="236" y="721"/>
			<point x="250" y="683"/>
			<point x="284" y="561" type="curve"/>
			<point x="293" y="562" type="line"/>
			<point x="278" y="670"/>
			<point x="274" y="716"/>
			<point x="266" y="739" type="curve" smooth="yes"/>
			<point x="263" y="749"/>
			<point x="257" y="753"/>
			<point x="250" y="753" type="curve" smooth="yes"/>
		</contour>
		<contour>
			<point x="109" y="602"/>
			<point x="100" y="598"/>
			<point x="100" y="588" type="curve" smooth="yes"/>
			<point x="100" y="569"/>
			<point x="143" y="569"/>
			<point x="294" y="564" type="curve"/>
			<point x="295" y="572" type="line"/>
			<point x="174" y="592"/>
			<point x="135" y="602"/>
			<point x="118" y="602" type="curve" smooth="yes"/>
		</contour>
		<contour>
			<point x="226" y="459"/>
			<point x="202" y="425"/>
			<point x="202" y="409" type="curve" smooth="yes"/>
			<point x="202" y="399"/>
			<point x="210" y="395"/>
			<point x="216" y="395" type="curve" smooth="yes"/>
			<point x="237" y="395"/>
			<point x="243" y="438"/>
			<point x="293" y="572" type="curve"/>
			<point x="285" y="575" type="line"/>
		</contour>
		<contour>
			<point x="278" y="572" type="line"/>
			<point x="374" y="472"/>
			<point x="400" y="437"/>
			<point x="418" y="437" type="curve" smooth="yes"/>
			<point x="424" y="437"/>
			<point x="431" y="443"/>
			<point x="431" y="452" type="curve" smooth="yes"/>
			<point x="431" y="466"/>
			<point x="397" y="488"/>
			<point x="284" y="578" type="curve"/>
		</contour>
		<contour>
			<point x="452" y="666"/>
			<point x="444" y="670"/>
			<point x="438" y="670" type="curve" smooth="yes"/>
			<point x="425" y="670"/>
			<point x="393" y="644"/>
			<point x="280" y="568" type="curve"/>
			<point x="283" y="562" type="line"/>
			<point x="411" y="625"/>
			<point x="452" y="638"/>
			<point x="452" y="656" type="curve" smooth="yes"/>
		</contour>
	</outline>
</glyph>
<glyph name="plus" format="2">
	<unicode hex="002B"/>
	<advance width="500"/>
	<outline>
		<contour>
			<point x="262" y="108" type="line"/>
			<point x="279" y="108" type="line"/>
			<point x="279" y="556" type="line"/>
			<point x="262" y="556" type="line"/>
		</contour>
		<contour>
			<point x="482" y="328" type="line"/>
			<point x="482" y="344" type="line"/>
			<point x="58" y="344" type="line"/>
			<point x="58" y="328" type="line"/>
		</contour>
	</outline>
</glyph>
<glyph name="comma" format="2">
	<unicode hex="002C"/>
	<advance width="252"/>
	<outline>
		<contour>
			<point x="0" y="-136" type="line"/>
			<point x="68" y="-101"/>
			<point x="110" y="-45"/>
			<point x="110" y="19" type="curve" smooth="yes"/>
			<point x="110" y="24"/>
			<point x="109" y="30"/>
			<point x="108" y="36" type="curve"/>
			<point x="102" y="43"/>
			<point x="94" y="48"/>
			<point x="82" y="48" type="curve" smooth="yes"/>
			<point x="68" y="48"/>
			<point x="56" y="39"/>
			<point x="56" y="24" type="curve" smooth="yes"/>
			<point x="56" y="13"/>
			<point x="59" y="5"/>
			<point x="74" y="-6" type="curve" smooth="yes"/>
			<point x="92" y="-20" type="line"/>
			<point x="92" y="-11" type="line"/>
			<point x="76" y="-64"/>
			<point x="47" y="-95"/>
			<point x="-5" y="-126" type="curve"/>
		</contour>
	</outline>
</glyph>
<glyph name="hyphen" format="2">
	<unicode hex="002D"/>
	<unicode hex="00AD"/>
	<unicode hex="2010"/>
	<advance width="288"/>
	<outline>
		<contour>
			<point x="52" y="227" type="line"/>
			<point x="268" y="227" type="line"/>
			<point x="268" y="245" type="line"/>
			<point x="52" y="245" type="line"/>
		</contour>
	</outline>
</glyph>
<glyph name="period" format="2">
	<unicode hex="002E"/>
	<advance width="272"/>
	<outline>
		<contour>
			<point x="88" y="-8" type="curve" smooth="yes"/>
			<point x="103" y="-8"/>
			<point x="120" y="3"/>
			<point x="120" y="24" type="curve" smooth="yes"/>
			<point x="120" y="37"/>
			<point x="109" y="48"/>
			<point x="96" y="48" type="curve" smooth="yes"/>
			<point x="79" y="48"/>
			<point x="64" y="37"/>
			<point x="64" y="15" type="curve" smooth="yes"/>
			<point x="64" y="2"/>
			<point x="75" y="-8"/>
		</contour>
	</outline>
</glyph>
<glyph name="slash" format="2">
	<unicode hex="002F"/>
	<advance width="270"/>
	<outline>
		<contour>
			<point x="-53" y="-160" type="line"/>
			<point x="-35" y="-160" type="line"/>
			<point x="377" y="708" type="line"/>
			<point x="359" y="708" type="line"/>
		</contour>
	</outline>
</glyph>
<glyph name="one" format="2">
	<unicode hex="0031"/>
	<advance width="460"/>
	<outline>
		<contour>
			<point x="175" y="615" type="line"/>
			<point x="173" y="605" type="line"/>
			<point x="342" y="638" type="line"/>
			<point x="330" y="650" type="line"/>
			<point x="198" y="0" type="line"/>
			<point x="224" y="0" type="line"/>
			<point x="240" y="88"/>
			<point x="255" y="160"/>
			<point x="276" y="268" type="curve" smooth="yes"/>
			<point x="302" y="392" type="line" smooth="yes"/>
			<point x="323" y="496"/>
			<point x="339" y="574"/>
			<point x="358" y="660" type="curve"/>
			<point x="353" y="664" type="line"/>
		</contour>
		<contour>
			<point x="220" y="18" type="line"/>
			<point x="208" y="18" type="line"/>
			<point x="52" y="10" type="line"/>
			<point x="50" y="0" type="line"/>
			<point x="368" y="0" type="line"/>
			<point x="370" y="10" type="line"/>
		</contour>
	</outline>
</glyph>
<glyph name="less" format="2">
	<unicode hex="003C"/>
	<advance width="496"/>
	<outline>
		<contour>
			<point x="100" y="334" type="line"/>
			<point x="463" y="100" type="line"/>
			<point x="472" y="113" type="line"/>
			<point x="120" y="340" type="line"/>
			<point x="120" y="334" type="line"/>
			<point x="472" y="559" type="line"/>
			<point x="463" y="572" type="line"/>
			<point x="100" y="340" type="line"/>
		</contour>
	</outline>
</glyph>
<glyph name="question" format="2">
	<unicode hex="003F"/>
	<advance width="384"/>
	<outline>
		<contour>
			<point x="95" y="157" type="curve"/>
			<point x="108" y="156" type="line"/>
			<point x="112" y="238"/>
			<point x="125" y="280"/>
			<point x="156" y="314" type="curve" smooth="yes"/>
			<point x="180" y="340"/>
			<point x="214" y="361"/>
			<point x="264" y="392" type="curve" smooth="yes"/>
			<point x="360" y="451"/>
			<point x="416" y="483"/>
			<point x="416" y="566" type="curve" smooth="yes"/>
			<point x="416" y="638"/>
			<point x="361" y="688"/>
			<point x="280" y="688" type="curve" smooth="yes"/>
			<point x="205" y="688"/>
			<point x="144" y="642"/>
			<point x="124" y="564" type="curve"/>
			<point x="126" y="555"/>
			<point x="131" y="548"/>
			<point x="141" y="548" type="curve" smooth="yes"/>
			<point x="153" y="548"/>
			<point x="162" y="555"/>
			<point x="166" y="571" type="curve" smooth="yes"/>
			<point x="189" y="658" type="line"/>
			<point x="156" y="620" type="line"/>
			<point x="201" y="661"/>
			<point x="229" y="676"/>
			<point x="276" y="676" type="curve" smooth="yes"/>
			<point x="351" y="676"/>
			<point x="396" y="626"/>
			<point x="396" y="565" type="curve" smooth="yes"/>
			<point x="396" y="501"/>
			<point x="362" y="473"/>
			<point x="259" y="410" type="curve" smooth="yes"/>
			<point x="207" y="378"/>
			<point x="171" y="355"/>
			<point x="147" y="328" type="curve" smooth="yes"/>
			<point x="111" y="289"/>
			<point x="99" y="244"/>
		</contour>
		<contour>
			<point x="89" y="-8" type="curve" smooth="yes"/>
			<point x="105" y="-8"/>
			<point x="123" y="3"/>
			<point x="123" y="26" type="curve" smooth="yes"/>
			<point x="123" y="41"/>
			<point x="111" y="52"/>
			<point x="97" y="52" type="curve" smooth="yes"/>
			<point x="79" y="52"/>
			<point x="63" y="40"/>
			<point x="63" y="17" type="curve" smooth="yes"/>
			<point x="63" y="2"/>
			<point x="75" y="-8"/>
		</contour>
	</outline>
</glyph>
<glyph name="at" format="2">
	<unicode hex="0040"/>
	<advance width="812"/>
	<outline>
		<contour>
			<point x="339" y="56" type="curve" smooth="yes"/>
			<point x="401" y="56"/>
			<point x="458" y="110"/>
			<point x="514" y="187" type="curve"/>
			<point x="516" y="187" type="line"/>
			<point x="510" y="193" type="line"/>
			<point x="448" y="116"/>
			<point x="398" y="76"/>
			<point x="343" y="76" type="curve" smooth="yes"/>
			<point x="301" y="76"/>
			<point x="273" y="104"/>
			<point x="273" y="175" type="curve" smooth="yes"/>
			<point x="273" y="289"/>
			<point x="355" y="452"/>
			<point x="478" y="452" type="curve" smooth="yes"/>
			<point x="508" y="452"/>
			<point x="536" y="440"/>
			<point x="553" y="419" type="curve"/>
			<point x="557" y="433" type="line"/>
			<point x="543" y="454"/>
			<point x="511" y="468"/>
			<point x="482" y="468" type="curve" smooth="yes"/>
			<point x="369" y="468"/>
			<point x="249" y="306"/>
			<point x="249" y="170" type="curve" smooth="yes"/>
			<point x="249" y="82"/>
			<point x="298" y="56"/>
		</contour>
		<contour>
			<point x="564" y="56" type="curve" smooth="yes"/>
			<point x="673" y="56"/>
			<point x="788" y="163"/>
			<point x="788" y="344" type="curve" smooth="yes"/>
			<point x="788" y="532"/>
			<point x="659" y="664"/>
			<point x="468" y="664" type="curve" smooth="yes"/>
			<point x="218" y="664"/>
			<point x="40" y="443"/>
			<point x="40" y="196" type="curve" smooth="yes"/>
			<point x="40" y="-25"/>
			<point x="176" y="-156"/>
			<point x="380" y="-156" type="curve" smooth="yes"/>
			<point x="453" y="-156"/>
			<point x="516" y="-141"/>
			<point x="572" y="-112" type="curve"/>
			<point x="568" y="-104" type="line"/>
			<point x="513" y="-130"/>
			<point x="462" y="-143"/>
			<point x="380" y="-143" type="curve" smooth="yes"/>
			<point x="191" y="-143"/>
			<point x="62" y="-12"/>
			<point x="62" y="196" type="curve" smooth="yes"/>
			<point x="62" y="440"/>
			<point x="232" y="651"/>
			<point x="468" y="651" type="curve" smooth="yes"/>
			<point x="646" y="651"/>
			<point x="766" y="527"/>
			<point x="766" y="344" type="curve" smooth="yes"/>
			<point x="766" y="169"/>
			<point x="660" y="69"/>
			<point x="568" y="69" type="curve" smooth="yes"/>
			<point x="523" y="69"/>
			<point x="501" y="106"/>
			<point x="513" y="164" type="curve" smooth="yes"/>
			<point x="575" y="462" type="line"/>
			<point x="570" y="466" type="line"/>
			<point x="546" y="434" type="line"/>
			<point x="491" y="165" type="line"/>
			<point x="476" y="91"/>
			<point x="514" y="56"/>
		</contour>
	</outline>
</glyph>
<glyph name="A" format="2">
	<unicode hex="0041"/>
	<advance width="608"/>
	<outline>
		<contour>
			<point x="183" y="259" type="line"/>
			<point x="439" y="259" type="line"/>
			<point x="434" y="272" type="line"/>
			<point x="194" y="272" type="line"/>
		</contour>
		<contour>
			<point x="-28" y="0" type="line"/>
			<point x="162" y="0" type="line"/>
			<point x="164" y="10" type="line"/>
			<point x="68" y="16" type="line"/>
			<point x="58" y="16" type="line"/>
			<point x="-26" y="10" type="line"/>
		</contour>
		<contour>
			<point x="369" y="0" type="line"/>
			<point x="570" y="0" type="line"/>
			<point x="572" y="10" type="line"/>
			<point x="483" y="16" type="line"/>
			<point x="470" y="16" type="line"/>
			<point x="371" y="10" type="line"/>
		</contour>
		<contour>
			<point x="46" y="0" type="line"/>
			<point x="63" y="0" type="line"/>
			<point x="385" y="647" type="line"/>
			<point x="377" y="642" type="line"/>
			<point x="468" y="0" type="line"/>
			<point x="494" y="0" type="line"/>
			<point x="395" y="684" type="line"/>
			<point x="388" y="684" type="line"/>
		</contour>
	</outline>
	<anchor name="aboveUC" x="403" y="682"/>
	<anchor name="belowLC" x="274" y="-22"/>
	<anchor name="ogonek" x="515" y="0"/>
</glyph>
<glyph name="B" format="2">
	<unicode hex="0042"/>
	<advance width="536"/>
	<outline>
		<contour>
			<point x="16" y="0" type="line"/>
			<point x="135" y="0" type="line"/>
			<point x="135" y="16" type="line"/>
			<point x="117" y="16" type="line"/>
			<point x="18" y="10" type="line"/>
		</contour>
		<contour>
			<point x="110" y="0" type="line"/>
			<point x="138" y="0" type="line"/>
			<point x="154" y="104"/>
			<point x="174" y="209"/>
			<point x="193" y="313" type="curve" smooth="yes"/>
			<point x="261" y="676" type="line"/>
			<point x="233" y="676" type="line"/>
			<point x="216" y="572"/>
			<point x="198" y="468"/>
			<point x="178" y="364" type="curve" smooth="yes"/>
		</contour>
		<contour>
			<point x="136" y="666" type="line"/>
			<point x="236" y="660" type="line"/>
			<point x="254" y="660" type="line"/>
			<point x="256" y="676" type="line"/>
			<point x="138" y="676" type="line"/>
		</contour>
		<contour>
			<point x="118" y="0" type="line"/>
			<point x="265" y="0" type="line" smooth="yes"/>
			<point x="427" y="0"/>
			<point x="513" y="85"/>
			<point x="513" y="205" type="curve" smooth="yes"/>
			<point x="513" y="285"/>
			<point x="452" y="353"/>
			<point x="325" y="355" type="curve"/>
			<point x="308" y="349" type="line"/>
			<point x="460" y="361"/>
			<point x="533" y="446"/>
			<point x="533" y="543" type="curve" smooth="yes"/>
			<point x="533" y="615"/>
			<point x="475" y="676"/>
			<point x="350" y="676" type="curve" smooth="yes"/>
			<point x="237" y="676" type="line"/>
			<point x="235" y="663" type="line"/>
			<point x="347" y="663" type="line" smooth="yes"/>
			<point x="465" y="663"/>
			<point x="508" y="606"/>
			<point x="508" y="542" type="curve" smooth="yes"/>
			<point x="508" y="429"/>
			<point x="416" y="359"/>
			<point x="278" y="359" type="curve" smooth="yes"/>
			<point x="181" y="359" type="line"/>
			<point x="179" y="346" type="line"/>
			<point x="296" y="346" type="line" smooth="yes"/>
			<point x="429" y="346"/>
			<point x="487" y="290"/>
			<point x="487" y="208" type="curve" smooth="yes"/>
			<point x="487" y="80"/>
			<point x="395" y="13"/>
			<point x="266" y="13" type="curve" smooth="yes"/>
			<point x="120" y="13" type="line"/>
		</contour>
	</outline>
	<anchor name="aboveUC" x="346" y="692"/>
	<anchor name="belowLC" x="260" y="-24"/>
</glyph>
<glyph name="C" format="2">
	<unicode hex="0043"/>
	<advance width="569"/>
	<outline>
		<contour>
			<point x="553" y="643" type="line"/>
			<point x="543" y="488" type="line"/>
			<point x="555" y="488" type="line"/>
			<point x="577" y="635" type="line"/>
			<point x="531" y="670"/>
			<point x="492" y="688"/>
			<point x="417" y="688" type="curve" smooth="yes"/>
			<point x="231" y="688"/>
			<point x="74" y="512"/>
			<point x="74" y="256" type="curve" smooth="yes"/>
			<point x="74" y="95"/>
			<point x="163" y="-13"/>
			<point x="313" y="-13" type="curve" smooth="yes"/>
			<point x="372" y="-13"/>
			<point x="436" y="-1"/>
			<point x="498" y="40" type="curve"/>
			<point x="531" y="188" type="line"/>
			<point x="519" y="188" type="line"/>
			<point x="472" y="32" type="line"/>
			<point x="489" y="52" type="line"/>
			<point x="440" y="16"/>
			<point x="369" y="1"/>
			<point x="314" y="1" type="curve" smooth="yes"/>
			<point x="171" y="1"/>
			<point x="100" y="115"/>
			<point x="100" y="256" type="curve" smooth="yes"/>
			<point x="100" y="496"/>
			<point x="237" y="674"/>
			<point x="418" y="674" type="curve" smooth="yes"/>
			<point x="483" y="674"/>
			<point x="520" y="660"/>
			<point x="566" y="624" type="curve"/>
		</contour>
	</outline>
	<anchor name="aboveUC" x="445" y="682"/>
	<anchor name="belowLC" x="339" y="-22"/>
	<anchor name="baseLC" x="344" y="0"/>
</glyph>
<glyph name="D" format="2">
	<unicode hex="0044"/>
	<advance width="607"/>
	<outline>
		<contour>
			<point x="98" y="0" type="line"/>
			<point x="126" y="0" type="line"/>
			<point x="142" y="104"/>
			<point x="162" y="209"/>
			<point x="181" y="313" type="curve" smooth="yes"/>
			<point x="249" y="676" type="line"/>
			<point x="221" y="676" type="line"/>
			<point x="204" y="572"/>
			<point x="186" y="468"/>
			<point x="166" y="364" type="curve" smooth="yes"/>
		</contour>
		<contour>
			<point x="4" y="0" type="line"/>
			<point x="123" y="0" type="line"/>
			<point x="123" y="16" type="line"/>
			<point x="105" y="16" type="line"/>
			<point x="6" y="10" type="line"/>
		</contour>
		<contour>
			<point x="124" y="666" type="line"/>
			<point x="224" y="660" type="line"/>
			<point x="242" y="660" type="line"/>
			<point x="244" y="676" type="line"/>
			<point x="126" y="676" type="line"/>
		</contour>
		<contour>
			<point x="107" y="0" type="line"/>
			<point x="220" y="0" type="line" smooth="yes"/>
			<point x="456" y="0"/>
			<point x="608" y="178"/>
			<point x="608" y="408" type="curve" smooth="yes"/>
			<point x="608" y="590"/>
			<point x="518" y="676"/>
			<point x="316" y="676" type="curve" smooth="yes"/>
			<point x="226" y="676" type="line"/>
			<point x="224" y="663" type="line"/>
			<point x="312" y="663" type="line" smooth="yes"/>
			<point x="500" y="663"/>
			<point x="582" y="584"/>
			<point x="582" y="408" type="curve" smooth="yes"/>
			<point x="582" y="183"/>
			<point x="441" y="13"/>
			<point x="213" y="13" type="curve" smooth="yes"/>
			<point x="109" y="13" type="line"/>
		</contour>
	</outline>
</glyph>
<glyph name="E" format="2">
	<unicode hex="0045"/>
	<advance width="532"/>
	<outline>
		<contour>
			<point x="98" y="0" type="line"/>
			<point x="126" y="0" type="line"/>
			<point x="142" y="104"/>
			<point x="162" y="209"/>
			<point x="181" y="313" type="curve" smooth="yes"/>
			<point x="249" y="676" type="line"/>
			<point x="221" y="676" type="line"/>
			<point x="204" y="572"/>
			<point x="186" y="468"/>
			<point x="166" y="364" type="curve" smooth="yes"/>
		</contour>
		<contour>
			<point x="4" y="0" type="line"/>
			<point x="123" y="0" type="line"/>
			<point x="123" y="16" type="line"/>
			<point x="105" y="16" type="line"/>
			<point x="6" y="10" type="line"/>
		</contour>
		<contour>
			<point x="124" y="666" type="line"/>
			<point x="224" y="660" type="line"/>
			<point x="242" y="660" type="line"/>
			<point x="244" y="676" type="line"/>
			<point x="126" y="676" type="line"/>
		</contour>
		<contour>
			<point x="119" y="0" type="line"/>
			<point x="441" y="0" type="line"/>
			<point x="485" y="172" type="line"/>
			<point x="475" y="172" type="line"/>
			<point x="418" y="7" type="line"/>
			<point x="431" y="13" type="line"/>
			<point x="121" y="13" type="line"/>
		</contour>
		<contour>
			<point x="178" y="338" type="line"/>
			<point x="372" y="338" type="line"/>
			<point x="375" y="351" type="line"/>
			<point x="181" y="351" type="line"/>
		</contour>
		<contour>
			<point x="354" y="237" type="line"/>
			<point x="364" y="237" type="line"/>
			<point x="402" y="453" type="line"/>
			<point x="392" y="453" type="line"/>
			<point x="362" y="349" type="line"/>
			<point x="361" y="341" type="line"/>
		</contour>
		<contour>
			<point x="527" y="512" type="line"/>
			<point x="537" y="512" type="line"/>
			<point x="556" y="676" type="line"/>
			<point x="238" y="676" type="line"/>
			<point x="236" y="663" type="line"/>
			<point x="541" y="663" type="line"/>
			<point x="531" y="670" type="line"/>
		</contour>
	</outline>
	<anchor name="aboveUC" x="403" y="682"/>
	<anchor name="belowLC" x="289" y="-22"/>
	<anchor name="ogonek" x="433" y="0"/>
</glyph>
<glyph name="F" format="2">
	<unicode hex="0046"/>
	<advance width="508"/>
	<outline>
		<contour>
			<point x="16" y="0" type="line"/>
			<point x="246" y="0" type="line"/>
			<point x="248" y="10" type="line"/>
			<point x="135" y="16" type="line"/>
			<point x="117" y="16" type="line"/>
			<point x="18" y="10" type="line"/>
		</contour>
		<contour>
			<point x="110" y="0" type="line"/>
			<point x="138" y="0" type="line"/>
			<point x="154" y="104"/>
			<point x="174" y="209"/>
			<point x="193" y="313" type="curve" smooth="yes"/>
			<point x="261" y="676" type="line"/>
			<point x="233" y="676" type="line"/>
			<point x="216" y="572"/>
			<point x="198" y="468"/>
			<point x="178" y="364" type="curve" smooth="yes"/>
		</contour>
		<contour>
			<point x="136" y="666" type="line"/>
			<point x="236" y="660" type="line"/>
			<point x="254" y="660" type="line"/>
			<point x="256" y="676" type="line"/>
			<point x="138" y="676" type="line"/>
		</contour>
		<contour>
			<point x="190" y="338" type="line"/>
			<point x="384" y="338" type="line"/>
			<point x="387" y="351" type="line"/>
			<point x="193" y="351" type="line"/>
		</contour>
		<contour>
			<point x="248" y="663" type="line"/>
			<point x="553" y="663" type="line"/>
			<point x="543" y="670" type="line"/>
			<point x="539" y="512" type="line"/>
			<point x="549" y="512" type="line"/>
			<point x="568" y="676" type="line"/>
			<point x="250" y="676" type="line"/>
		</contour>
		<contour>
			<point x="366" y="237" type="line"/>
			<point x="376" y="237" type="line"/>
			<point x="414" y="453" type="line"/>
			<point x="404" y="453" type="line"/>
			<point x="374" y="349" type="line"/>
			<point x="373" y="341" type="line"/>
		</contour>
	</outline>
	<anchor name="aboveUC" x="380" y="692"/>
	<anchor name="belowLC" x="125" y="-24"/>
</glyph>
<glyph name="G" format="2">
	<unicode hex="0047"/>
	<advance width="620"/>
	<outline>
		<contour>
			<point x="82" y="256" type="curve" smooth="yes"/>
			<point x="82" y="95"/>
			<point x="171" y="-13"/>
			<point x="324" y="-13" type="curve" smooth="yes"/>
			<point x="398" y="-13"/>
			<point x="446" y="2"/>
			<point x="517" y="43" type="curve"/>
			<point x="568" y="321" type="line"/>
			<point x="542" y="321" type="line"/>
			<point x="533" y="248"/>
			<point x="518" y="174"/>
			<point x="504" y="100" type="curve" smooth="yes"/>
			<point x="492" y="36" type="line"/>
			<point x="508" y="55" type="line"/>
			<point x="450" y="19"/>
			<point x="395" y="1"/>
			<point x="324" y="1" type="curve" smooth="yes"/>
			<point x="179" y="1"/>
			<point x="108" y="115"/>
			<point x="108" y="256" type="curve" smooth="yes"/>
			<point x="108" y="496"/>
			<point x="240" y="674"/>
			<point x="424" y="674" type="curve" smooth="yes"/>
			<point x="493" y="674"/>
			<point x="540" y="656"/>
			<point x="585" y="620" type="curve"/>
			<point x="575" y="639" type="line"/>
			<point x="567" y="484" type="line"/>
			<point x="577" y="484" type="line"/>
			<point x="598" y="631" type="line"/>
			<point x="552" y="666"/>
			<point x="502" y="688"/>
			<point x="423" y="688" type="curve" smooth="yes"/>
			<point x="234" y="688"/>
			<point x="82" y="512"/>
		</contour>
		<contour>
			<point x="430" y="311" type="line"/>
			<point x="547" y="305" type="line"/>
			<point x="560" y="305" type="line"/>
			<point x="642" y="311" type="line"/>
			<point x="644" y="321" type="line"/>
			<point x="432" y="321" type="line"/>
		</contour>
	</outline>
	<anchor name="aboveUC" x="424" y="692"/>
	<anchor name="belowLC" x="338" y="-24"/>
</glyph>
<glyph name="H" format="2">
	<unicode hex="0048"/>
	<advance width="692"/>
	<outline>
		<contour>
			<point x="98" y="0" type="line"/>
			<point x="126" y="0" type="line"/>
			<point x="142" y="104"/>
			<point x="162" y="209"/>
			<point x="181" y="313" type="curve" smooth="yes"/>
			<point x="249" y="676" type="line"/>
			<point x="221" y="676" type="line"/>
			<point x="204" y="572"/>
			<point x="186" y="468"/>
			<point x="166" y="364" type="curve" smooth="yes"/>
		</contour>
		<contour>
			<point x="4" y="0" type="line"/>
			<point x="222" y="0" type="line"/>
			<point x="224" y="10" type="line"/>
			<point x="123" y="16" type="line"/>
			<point x="105" y="16" type="line"/>
			<point x="6" y="10" type="line"/>
		</contour>
		<contour>
			<point x="124" y="666" type="line"/>
			<point x="224" y="660" type="line"/>
			<point x="242" y="660" type="line"/>
			<point x="342" y="666" type="line"/>
			<point x="344" y="676" type="line"/>
			<point x="126" y="676" type="line"/>
		</contour>
		<contour>
			<point x="494" y="0" type="line"/>
			<point x="522" y="0" type="line"/>
			<point x="538" y="104"/>
			<point x="558" y="209"/>
			<point x="577" y="313" type="curve" smooth="yes"/>
			<point x="645" y="676" type="line"/>
			<point x="617" y="676" type="line"/>
			<point x="600" y="572"/>
			<point x="582" y="468"/>
			<point x="562" y="364" type="curve" smooth="yes"/>
		</contour>
		<contour>
			<point x="400" y="0" type="line"/>
			<point x="618" y="0" type="line"/>
			<point x="620" y="10" type="line"/>
			<point x="519" y="16" type="line"/>
			<point x="501" y="16" type="line"/>
			<point x="402" y="10" type="line"/>
		</contour>
		<contour>
			<point x="520" y="666" type="line"/>
			<point x="620" y="660" type="line"/>
			<point x="638" y="660" type="line"/>
			<point x="738" y="666" type="line"/>
			<point x="740" y="676" type="line"/>
			<point x="522" y="676" type="line"/>
		</contour>
		<contour>
			<point x="170" y="343" type="line"/>
			<point x="565" y="343" type="line"/>
			<point x="568" y="356" type="line"/>
			<point x="173" y="356" type="line"/>
		</contour>
	</outline>
	<note>
		skew 10 scale 120
	</note>
</glyph>
<glyph name="I" format="2">
	<unicode hex="0049"/>
	<advance width="296"/>
	<outline>
		<contour>
			<point x="0" y="0" type="line"/>
			<point x="218" y="0" type="line"/>
			<point x="220" y="10" type="line"/>
			<point x="119" y="16" type="line"/>
			<point x="101" y="16" type="line"/>
			<point x="2" y="10" type="line"/>
		</contour>
		<contour>
			<point x="94" y="0" type="line"/>
			<point x="122" y="0" type="line"/>
			<point x="138" y="104"/>
			<point x="158" y="209"/>
			<point x="177" y="313" type="curve" smooth="yes"/>
			<point x="245" y="676" type="line"/>
			<point x="217" y="676" type="line"/>
			<point x="200" y="572"/>
			<point x="182" y="468"/>
			<point x="162" y="364" type="curve" smooth="yes"/>
		</contour>
		<contour>
			<point x="120" y="666" type="line"/>
			<point x="220" y="660" type="line"/>
			<point x="238" y="660" type="line"/>
			<point x="338" y="666" type="line"/>
			<point x="340" y="676" type="line"/>
			<point x="122" y="676" type="line"/>
		</contour>
	</outline>
	<anchor name="aboveUC" x="230" y="696"/>
	<anchor name="belowLC" x="110" y="-20"/>
	<anchor name="ogonek" x="110" y="0"/>
</glyph>
<glyph name="J" format="2">
	<unicode hex="004A"/>
	<advance width="316"/>
	<outline>
		<contour>
			<point x="-86" y="-95" type="curve"/>
			<point x="-83" y="-112"/>
			<point x="-58" y="-120"/>
			<point x="-35" y="-120" type="curve" smooth="yes"/>
			<point x="-2" y="-120"/>
			<point x="36" y="-101"/>
			<point x="72" y="-68" type="curve" smooth="yes"/>
			<point x="127" y="-17"/>
			<point x="156" y="71"/>
			<point x="180" y="195" type="curve" smooth="yes"/>
			<point x="272" y="676" type="line"/>
			<point x="243" y="676" type="line"/>
			<point x="221" y="551"/>
			<point x="198" y="426"/>
			<point x="176" y="301" type="curve" smooth="yes"/>
			<point x="150" y="155"/>
			<point x="146" y="141"/>
			<point x="142" y="123" type="curve" smooth="yes"/>
			<point x="114" y="-20"/>
			<point x="49" y="-85"/>
			<point x="-9" y="-106" type="curve"/>
			<point x="-9" y="-108" type="line"/>
			<point x="1" y="-108" type="line"/>
			<point x="1" y="-105" type="line"/>
			<point x="-27" y="-82"/>
			<point x="-41" y="-76"/>
			<point x="-55" y="-76" type="curve" smooth="yes"/>
			<point x="-74" y="-76"/>
			<point x="-83" y="-82"/>
		</contour>
		<contour>
			<point x="137" y="666" type="line"/>
			<point x="248" y="660" type="line"/>
			<point x="262" y="660" type="line"/>
			<point x="362" y="666" type="line"/>
			<point x="364" y="676" type="line"/>
			<point x="139" y="676" type="line"/>
		</contour>
	</outline>
	<anchor name="aboveUC" x="260" y="696"/>
	<anchor name="belowLC" x="63" y="-140"/>
</glyph>
<glyph name="K" format="2">
	<unicode hex="004B"/>
	<advance width="606"/>
	<outline>
		<contour>
			<point x="16" y="0" type="line"/>
			<point x="234" y="0" type="line"/>
			<point x="236" y="10" type="line"/>
			<point x="135" y="16" type="line"/>
			<point x="117" y="16" type="line"/>
			<point x="18" y="10" type="line"/>
		</contour>
		<contour>
			<point x="110" y="0" type="line"/>
			<point x="138" y="0" type="line"/>
			<point x="154" y="104"/>
			<point x="174" y="209"/>
			<point x="193" y="313" type="curve" smooth="yes"/>
			<point x="261" y="676" type="line"/>
			<point x="233" y="676" type="line"/>
			<point x="216" y="572"/>
			<point x="198" y="468"/>
			<point x="178" y="364" type="curve" smooth="yes"/>
		</contour>
		<contour>
			<point x="136" y="666" type="line"/>
			<point x="236" y="660" type="line"/>
			<point x="254" y="660" type="line"/>
			<point x="354" y="666" type="line"/>
			<point x="356" y="676" type="line"/>
			<point x="138" y="676" type="line"/>
		</contour>
		<contour>
			<point x="151" y="194" type="line"/>
			<point x="615" y="676" type="line"/>
			<point x="597" y="676" type="line"/>
			<point x="167" y="228" type="line"/>
		</contour>
		<contour>
			<point x="476" y="0" type="line"/>
			<point x="504" y="0" type="line"/>
			<point x="357" y="413" type="line"/>
			<point x="339" y="394" type="line"/>
		</contour>
		<contour>
			<point x="376" y="0" type="line"/>
			<point x="571" y="0" type="line"/>
			<point x="573" y="10" type="line"/>
			<point x="489" y="16" type="line"/>
			<point x="475" y="16" type="line"/>
			<point x="378" y="10" type="line"/>
		</contour>
		<contour>
			<point x="485" y="666" type="line"/>
			<point x="584" y="660" type="line"/>
			<point x="598" y="660" type="line"/>
			<point x="680" y="666" type="line"/>
			<point x="682" y="676" type="line"/>
			<point x="487" y="676" type="line"/>
		</contour>
	</outline>
	<anchor name="aboveUC" x="398" y="692"/>
	<anchor name="belowLC" x="304" y="-24"/>
</glyph>
<glyph name="L" format="2">
	<unicode hex="004C"/>
	<advance width="510"/>
	<outline>
		<contour>
			<point x="98" y="0" type="line"/>
			<point x="126" y="0" type="line"/>
			<point x="142" y="104"/>
			<point x="162" y="209"/>
			<point x="181" y="313" type="curve" smooth="yes"/>
			<point x="249" y="676" type="line"/>
			<point x="221" y="676" type="line"/>
			<point x="204" y="572"/>
			<point x="186" y="468"/>
			<point x="166" y="364" type="curve" smooth="yes"/>
		</contour>
		<contour>
			<point x="4" y="0" type="line"/>
			<point x="123" y="0" type="line"/>
			<point x="123" y="16" type="line"/>
			<point x="105" y="16" type="line"/>
			<point x="6" y="10" type="line"/>
		</contour>
		<contour>
			<point x="118" y="0" type="line"/>
			<point x="441" y="0" type="line"/>
			<point x="484" y="172" type="line"/>
			<point x="474" y="172" type="line"/>
			<point x="418" y="7" type="line"/>
			<point x="431" y="13" type="line"/>
			<point x="121" y="13" type="line"/>
		</contour>
		<contour>
			<point x="124" y="666" type="line"/>
			<point x="224" y="660" type="line"/>
			<point x="242" y="660" type="line"/>
			<point x="342" y="666" type="line"/>
			<point x="344" y="676" type="line"/>
			<point x="126" y="676" type="line"/>
		</contour>
	</outline>
</glyph>
<glyph name="M" format="2">
	<unicode hex="004D"/>
	<advance width="812"/>
	<outline>
		<contour>
			<point x="741" y="660" type="line"/>
			<point x="755" y="660" type="line"/>
			<point x="858" y="666" type="line"/>
			<point x="860" y="676" type="line"/>
			<point x="744" y="676" type="line"/>
		</contour>
		<contour>
			<point x="359" y="0" type="line"/>
			<point x="367" y="0" type="line"/>
			<point x="754" y="676" type="line"/>
			<point x="737" y="676" type="line"/>
			<point x="373" y="40" type="line"/>
			<point x="377" y="40" type="line"/>
			<point x="254" y="676" type="line"/>
			<point x="228" y="676" type="line"/>
		</contour>
		<contour>
			<point x="198" y="10" type="line"/>
			<point x="99" y="16" type="line"/>
			<point x="95" y="16" type="line"/>
			<point x="-6" y="10" type="line"/>
			<point x="-8" y="0" type="line"/>
			<point x="196" y="0" type="line"/>
		</contour>
		<contour>
			<point x="241" y="676" type="line"/>
			<point x="134" y="676" type="line"/>
			<point x="132" y="666" type="line"/>
			<point x="232" y="660" type="line"/>
			<point x="238" y="660" type="line"/>
		</contour>
		<contour>
			<point x="244" y="667" type="line"/>
			<point x="228" y="667" type="line"/>
			<point x="86" y="0" type="line"/>
			<point x="102" y="0" type="line"/>
		</contour>
		<contour>
			<point x="635" y="0" type="line"/>
			<point x="663" y="0" type="line"/>
			<point x="675" y="102"/>
			<point x="688" y="205"/>
			<point x="702" y="310" type="curve" smooth="yes"/>
			<point x="759" y="676" type="line"/>
			<point x="746" y="676" type="line"/>
			<point x="731" y="653" type="line"/>
		</contour>
		<contour>
			<point x="541" y="0" type="line"/>
			<point x="756" y="0" type="line"/>
			<point x="758" y="10" type="line"/>
			<point x="658" y="16" type="line"/>
			<point x="644" y="16" type="line"/>
			<point x="543" y="10" type="line"/>
		</contour>
	</outline>
	<anchor name="aboveUC" x="531" y="652"/>
	<anchor name="belowLC" x="415" y="-22"/>
</glyph>
<glyph name="N" format="2">
	<unicode hex="004E"/>
	<advance width="658"/>
	<outline>
		<contour>
			<point x="9" y="0" type="line"/>
			<point x="221" y="0" type="line"/>
			<point x="223" y="10" type="line"/>
			<point x="116" y="16" type="line"/>
			<point x="112" y="16" type="line"/>
			<point x="11" y="10" type="line"/>
		</contour>
		<contour>
			<point x="103" y="0" type="line"/>
			<point x="119" y="0" type="line"/>
			<point x="240" y="659" type="line"/>
			<point x="225" y="667" type="line"/>
		</contour>
		<contour>
			<point x="510" y="-7" type="line"/>
			<point x="525" y="-7" type="line"/>
			<point x="527" y="24" type="line"/>
			<point x="522" y="24" type="line"/>
			<point x="237" y="676" type="line"/>
			<point x="131" y="676" type="line"/>
			<point x="129" y="666" type="line"/>
			<point x="232" y="659" type="line"/>
			<point x="212" y="673" type="line"/>
		</contour>
		<contour>
			<point x="530" y="666" type="line"/>
			<point x="637" y="660" type="line"/>
			<point x="641" y="660" type="line"/>
			<point x="734" y="666" type="line"/>
			<point x="736" y="676" type="line"/>
			<point x="532" y="676" type="line"/>
		</contour>
		<contour>
			<point x="525" y="-7" type="line"/>
			<point x="650" y="676" type="line"/>
			<point x="634" y="676" type="line"/>
			<point x="510" y="-3" type="line"/>
		</contour>
	</outline>
	<anchor name="aboveUC" x="432" y="692"/>
	<anchor name="belowLC" x="312" y="-24"/>
</glyph>
<glyph name="O" format="2">
	<unicode hex="004F"/>
	<advance width="624"/>
	<outline>
		<contour>
			<point x="280" y="-12" type="curve" smooth="yes"/>
			<point x="452" y="-12"/>
			<point x="600" y="183"/>
			<point x="600" y="424" type="curve" smooth="yes"/>
			<point x="600" y="594"/>
			<point x="516" y="688"/>
			<point x="386" y="688" type="curve" smooth="yes"/>
			<point x="214" y="688"/>
			<point x="66" y="493"/>
			<point x="66" y="252" type="curve" smooth="yes"/>
			<point x="66" y="82"/>
			<point x="150" y="-12"/>
		</contour>
		<contour>
			<point x="280" y="1" type="curve" smooth="yes"/>
			<point x="156" y="1"/>
			<point x="92" y="106"/>
			<point x="92" y="252" type="curve" smooth="yes"/>
			<point x="92" y="470"/>
			<point x="218" y="675"/>
			<point x="386" y="675" type="curve" smooth="yes"/>
			<point x="510" y="675"/>
			<point x="574" y="570"/>
			<point x="574" y="424" type="curve" smooth="yes"/>
			<point x="574" y="206"/>
			<point x="448" y="1"/>
		</contour>
	</outline>
	<anchor name="aboveUC" x="386" y="696"/>
	<anchor name="belowLC" x="286" y="-20"/>
	<anchor name="ogonek" x="346" y="0"/>
	<anchor name="hornLC" x="542" y="605"/>
</glyph>
<glyph name="P" format="2">
	<unicode hex="0050"/>
	<advance width="502"/>
	<outline>
		<contour>
			<point x="154" y="296" type="line"/>
			<point x="252" y="296" type="line" smooth="yes"/>
			<point x="418" y="296"/>
			<point x="520" y="383"/>
			<point x="520" y="512" type="curve" smooth="yes"/>
			<point x="520" y="611"/>
			<point x="453" y="676"/>
			<point x="318" y="676" type="curve" smooth="yes"/>
			<point x="222" y="676" type="line"/>
			<point x="220" y="663" type="line"/>
			<point x="316" y="663" type="line" smooth="yes"/>
			<point x="445" y="663"/>
			<point x="495" y="600"/>
			<point x="495" y="512" type="curve" smooth="yes"/>
			<point x="495" y="387"/>
			<point x="409" y="309"/>
			<point x="244" y="309" type="curve" smooth="yes"/>
			<point x="157" y="309" type="line"/>
		</contour>
		<contour>
			<point x="98" y="0" type="line"/>
			<point x="126" y="0" type="line"/>
			<point x="142" y="104"/>
			<point x="162" y="213"/>
			<point x="181" y="317" type="curve" smooth="yes"/>
			<point x="249" y="676" type="line"/>
			<point x="221" y="676" type="line"/>
			<point x="204" y="572"/>
			<point x="186" y="468"/>
			<point x="166" y="364" type="curve" smooth="yes"/>
		</contour>
		<contour>
			<point x="4" y="0" type="line"/>
			<point x="234" y="0" type="line"/>
			<point x="236" y="10" type="line"/>
			<point x="123" y="16" type="line"/>
			<point x="105" y="16" type="line"/>
			<point x="6" y="10" type="line"/>
		</contour>
		<contour>
			<point x="124" y="666" type="line"/>
			<point x="224" y="660" type="line"/>
			<point x="242" y="660" type="line"/>
			<point x="240" y="676" type="line"/>
			<point x="126" y="676" type="line"/>
		</contour>
	</outline>
	<anchor name="aboveUC" x="340" y="682"/>
	<anchor name="belowLC" x="140" y="-22"/>
</glyph>
<glyph name="Q" format="2">
	<unicode hex="0051"/>
	<advance width="624"/>
	<outline>
		<contour>
			<point x="434" y="-245" type="curve" smooth="yes"/>
			<point x="490" y="-245"/>
			<point x="547" y="-224"/>
			<point x="593" y="-181" type="curve"/>
			<point x="587" y="-174" type="line"/>
			<point x="537" y="-216"/>
			<point x="482" y="-230"/>
			<point x="438" y="-230" type="curve" smooth="yes"/>
			<point x="332" y="-230"/>
			<point x="245" y="-153"/>
			<point x="260" y="-4" type="curve"/>
			<point x="240" y="-4" type="line"/>
			<point x="223" y="-170"/>
			<point x="328" y="-245"/>
		</contour>
		<component base="O"/>
	</outline>
	<anchor name="aboveUC" x="386" y="696"/>
</glyph>
<glyph name="R" format="2">
	<unicode hex="0052"/>
	<advance width="578"/>
	<outline>
		<contour>
			<point x="508" y="-3" type="curve" smooth="yes"/>
			<point x="519" y="-3"/>
			<point x="534" y="-2"/>
			<point x="564" y="0" type="curve"/>
			<point x="566" y="10" type="line"/>
			<point x="467" y="16" type="line"/>
			<point x="482" y="9" type="line"/>
			<point x="393" y="223" type="line" smooth="yes"/>
			<point x="369" y="281"/>
			<point x="342" y="323"/>
			<point x="277" y="323" type="curve"/>
			<point x="291" y="319" type="line"/>
			<point x="416" y="319"/>
			<point x="524" y="406"/>
			<point x="524" y="528" type="curve" smooth="yes"/>
			<point x="524" y="620"/>
			<point x="458" y="676"/>
			<point x="324" y="676" type="curve" smooth="yes"/>
			<point x="230" y="676" type="line"/>
			<point x="228" y="663" type="line"/>
			<point x="320" y="663" type="line" smooth="yes"/>
			<point x="450" y="663"/>
			<point x="499" y="609"/>
			<point x="499" y="526" type="curve" smooth="yes"/>
			<point x="499" y="413"/>
			<point x="400" y="332"/>
			<point x="293" y="332" type="curve" smooth="yes"/>
			<point x="174" y="332" type="line"/>
			<point x="171" y="318" type="line"/>
			<point x="246" y="318" type="line" smooth="yes"/>
			<point x="328" y="318"/>
			<point x="345" y="280"/>
			<point x="373" y="211" type="curve" smooth="yes"/>
			<point x="446" y="31" type="line" smooth="yes"/>
			<point x="457" y="3"/>
			<point x="470" y="-3"/>
		</contour>
		<contour>
			<point x="98" y="0" type="line"/>
			<point x="126" y="0" type="line"/>
			<point x="142" y="104"/>
			<point x="162" y="209"/>
			<point x="181" y="313" type="curve" smooth="yes"/>
			<point x="249" y="676" type="line"/>
			<point x="221" y="676" type="line"/>
			<point x="204" y="572"/>
			<point x="186" y="468"/>
			<point x="166" y="364" type="curve" smooth="yes"/>
		</contour>
		<contour>
			<point x="4" y="0" type="line"/>
			<point x="226" y="0" type="line"/>
			<point x="228" y="10" type="line"/>
			<point x="123" y="16" type="line"/>
			<point x="105" y="16" type="line"/>
			<point x="6" y="10" type="line"/>
		</contour>
		<contour>
			<point x="124" y="666" type="line"/>
			<point x="224" y="660" type="line"/>
			<point x="242" y="660" type="line"/>
			<point x="240" y="676" type="line"/>
			<point x="126" y="676" type="line"/>
		</contour>
	</outline>
</glyph>
<glyph name="S" format="2">
	<unicode hex="0053"/>
	<advance width="447"/>
	<outline>
		<contour>
			<point x="374" y="168" type="curve" smooth="yes"/>
			<point x="374" y="60"/>
			<point x="281" y="1"/>
			<point x="186" y="1" type="curve" smooth="yes"/>
			<point x="133" y="1"/>
			<point x="77" y="18"/>
			<point x="34" y="53" type="curve"/>
			<point x="44" y="39" type="line"/>
			<point x="65" y="184" type="line"/>
			<point x="55" y="184" type="line"/>
			<point x="22" y="42" type="line"/>
			<point x="64" y="7"/>
			<point x="126" y="-12"/>
			<point x="186" y="-12" type="curve" smooth="yes"/>
			<point x="292" y="-12"/>
			<point x="396" y="49"/>
			<point x="396" y="170" type="curve" smooth="yes"/>
			<point x="396" y="257"/>
			<point x="324" y="311"/>
			<point x="255" y="364" type="curve" smooth="yes"/>
			<point x="198" y="408"/>
			<point x="146" y="455"/>
			<point x="146" y="522" type="curve" smooth="yes"/>
			<point x="146" y="624"/>
			<point x="228" y="675"/>
			<point x="312" y="675" type="curve" smooth="yes"/>
			<point x="358" y="675"/>
			<point x="406" y="661"/>
			<point x="442" y="635" type="curve"/>
			<point x="439" y="649" type="line"/>
			<point x="419" y="498" type="line"/>
			<point x="429" y="498" type="line"/>
			<point x="460" y="642" type="line"/>
			<point x="419" y="672"/>
			<point x="365" y="688"/>
			<point x="312" y="688" type="curve" smooth="yes"/>
			<point x="216" y="688"/>
			<point x="124" y="630"/>
			<point x="124" y="520" type="curve" smooth="yes"/>
			<point x="124" y="443"/>
			<point x="182" y="392"/>
			<point x="242" y="345" type="curve" smooth="yes"/>
			<point x="308" y="294"/>
			<point x="374" y="244"/>
		</contour>
		<contour>
			<point x="429" y="498" type="line"/>
			<point x="419" y="498" type="line"/>
		</contour>
	</outline>
</glyph>
<glyph name="T" format="2">
	<unicode hex="0054"/>
	<advance width="569"/>
	<outline>
		<contour>
			<point x="100" y="504" type="line"/>
			<point x="110" y="504" type="line"/>
			<point x="166" y="670" type="line"/>
			<point x="154" y="663" type="line"/>
			<point x="613" y="663" type="line"/>
			<point x="603" y="670" type="line"/>
			<point x="601" y="504" type="line"/>
			<point x="611" y="504" type="line"/>
			<point x="628" y="676" type="line"/>
			<point x="143" y="676" type="line"/>
		</contour>
		<contour>
			<point x="132" y="0" type="line"/>
			<point x="382" y="0" type="line"/>
			<point x="384" y="10" type="line"/>
			<point x="267" y="16" type="line"/>
			<point x="249" y="16" type="line"/>
			<point x="134" y="10" type="line"/>
		</contour>
		<contour>
			<point x="242" y="0" type="line"/>
			<point x="270" y="0" type="line"/>
			<point x="286" y="104"/>
			<point x="306" y="209"/>
			<point x="325" y="313" type="curve" smooth="yes"/>
			<point x="393" y="676" type="line"/>
			<point x="365" y="676" type="line"/>
			<point x="348" y="572"/>
			<point x="330" y="468"/>
			<point x="310" y="364" type="curve" smooth="yes"/>
		</contour>
	</outline>
	<anchor name="aboveUC" x="377" y="692"/>
	<anchor name="belowLC" x="252" y="-24"/>
	<anchor name="baseLC" x="255" y="0"/>
</glyph>
<glyph name="U" format="2">
	<unicode hex="0055"/>
	<advance width="644"/>
	<outline>
		<contour>
			<point x="326" y="676" type="line"/>
			<point x="122" y="676" type="line"/>
			<point x="120" y="666" type="line"/>
			<point x="211" y="660" type="line"/>
			<point x="223" y="660" type="line"/>
			<point x="324" y="666" type="line"/>
		</contour>
		<contour>
			<point x="516" y="666" type="line"/>
			<point x="615" y="660" type="line"/>
			<point x="619" y="660" type="line"/>
			<point x="710" y="666" type="line"/>
			<point x="712" y="676" type="line"/>
			<point x="518" y="676" type="line"/>
		</contour>
		<contour>
			<point x="628" y="676" type="line"/>
			<point x="612" y="676" type="line"/>
			<point x="539" y="260" type="line" smooth="yes"/>
			<point x="508" y="82"/>
			<point x="434" y="6"/>
			<point x="298" y="6" type="curve" smooth="yes"/>
			<point x="208" y="6"/>
			<point x="146" y="51"/>
			<point x="146" y="160" type="curve" smooth="yes"/>
			<point x="146" y="184"/>
			<point x="150" y="211"/>
			<point x="155" y="240" type="curve" smooth="yes"/>
			<point x="236" y="676" type="line"/>
			<point x="208" y="676" type="line"/>
			<point x="191" y="574"/>
			<point x="177" y="491"/>
			<point x="144" y="316" type="curve" smooth="yes"/>
			<point x="129" y="236" type="line" smooth="yes"/>
			<point x="124" y="207"/>
			<point x="120" y="181"/>
			<point x="120" y="160" type="curve" smooth="yes"/>
			<point x="120" y="39"/>
			<point x="188" y="-12"/>
			<point x="296" y="-12" type="curve" smooth="yes"/>
			<point x="440" y="-12"/>
			<point x="522" y="75"/>
			<point x="552" y="244" type="curve" smooth="yes"/>
		</contour>
	</outline>
</glyph>
<glyph name="V" format="2">
	<unicode hex="0056"/>
	<advance width="608"/>
	<outline>
		<contour>
			<point x="104" y="666" type="line"/>
			<point x="193" y="660" type="line"/>
			<point x="206" y="660" type="line"/>
			<point x="305" y="666" type="line"/>
			<point x="308" y="676" type="line"/>
			<point x="107" y="676" type="line"/>
		</contour>
		<contour>
			<point x="281" y="-7" type="line"/>
			<point x="288" y="-7" type="line"/>
			<point x="630" y="676" type="line"/>
			<point x="613" y="676" type="line"/>
			<point x="291" y="30" type="line"/>
			<point x="299" y="35" type="line"/>
			<point x="208" y="676" type="line"/>
			<point x="182" y="676" type="line"/>
		</contour>
		<contour>
			<point x="512" y="666" type="line"/>
			<point x="608" y="660" type="line"/>
			<point x="618" y="660" type="line"/>
			<point x="701" y="666" type="line"/>
			<point x="704" y="676" type="line"/>
			<point x="514" y="676" type="line"/>
		</contour>
	</outline>
	<anchor name="aboveUC" x="393" y="696"/>
	<anchor name="belowLC" x="287" y="-20"/>
</glyph>
<glyph name="W" format="2">
	<unicode hex="0057"/>
	<advance width="860"/>
	<outline>
		<contour>
			<point x="608" y="676" type="line"/>
			<point x="426" y="676" type="line"/>
			<point x="424" y="666" type="line"/>
			<point x="515" y="660" type="line"/>
			<point x="521" y="660" type="line"/>
			<point x="606" y="666" type="line"/>
		</contour>
		<contour>
			<point x="296" y="676" type="line"/>
			<point x="94" y="676" type="line"/>
			<point x="92" y="666" type="line"/>
			<point x="180" y="660" type="line"/>
			<point x="193" y="660" type="line"/>
			<point x="294" y="666" type="line"/>
		</contour>
		<contour>
			<point x="529" y="676" type="line"/>
			<point x="513" y="676" type="line"/>
			<point x="236" y="18" type="line"/>
			<point x="251" y="36" type="line"/>
			<point x="195" y="676" type="line"/>
			<point x="169" y="676" type="line"/>
			<point x="231" y="-7" type="line"/>
			<point x="240" y="-7" type="line"/>
		</contour>
		<contour>
			<point x="944" y="676" type="line"/>
			<point x="753" y="676" type="line"/>
			<point x="751" y="666" type="line"/>
			<point x="847" y="660" type="line"/>
			<point x="857" y="660" type="line"/>
			<point x="942" y="666" type="line"/>
		</contour>
		<contour>
			<point x="869" y="676" type="line"/>
			<point x="852" y="676" type="line"/>
			<point x="576" y="17" type="line"/>
			<point x="591" y="36" type="line"/>
			<point x="527" y="676" type="line"/>
			<point x="504" y="643" type="line"/>
			<point x="571" y="-7" type="line"/>
			<point x="580" y="-7" type="line"/>
		</contour>
	</outline>
	<anchor name="aboveUC" x="529" y="682"/>
	<anchor name="belowLC" x="421" y="-2"/>
</glyph>
<glyph name="X" format="2">
	<unicode hex="0058"/>
	<advance width="552"/>
	<outline>
		<contour>
			<point x="300" y="676" type="line"/>
			<point x="98" y="676" type="line"/>
			<point x="96" y="666" type="line"/>
			<point x="184" y="660" type="line"/>
			<point x="197" y="660" type="line"/>
			<point x="298" y="666" type="line"/>
		</contour>
		<contour>
			<point x="624" y="676" type="line"/>
			<point x="433" y="676" type="line"/>
			<point x="431" y="666" type="line"/>
			<point x="527" y="660" type="line"/>
			<point x="537" y="660" type="line"/>
			<point x="622" y="666" type="line"/>
		</contour>
		<contour>
			<point x="310" y="347" type="line"/>
			<point x="553" y="676" type="line"/>
			<point x="536" y="676" type="line"/>
			<point x="306" y="362" type="line"/>
		</contour>
		<contour>
			<point x="318" y="0" type="line"/>
			<point x="520" y="0" type="line"/>
			<point x="522" y="10" type="line"/>
			<point x="434" y="16" type="line"/>
			<point x="421" y="16" type="line"/>
			<point x="320" y="10" type="line"/>
		</contour>
		<contour>
			<point x="169" y="676" type="line"/>
			<point x="421" y="0" type="line"/>
			<point x="449" y="0" type="line"/>
			<point x="197" y="676" type="line"/>
		</contour>
		<contour>
			<point x="-36" y="0" type="line"/>
			<point x="155" y="0" type="line"/>
			<point x="157" y="10" type="line"/>
			<point x="61" y="16" type="line"/>
			<point x="51" y="16" type="line"/>
			<point x="-34" y="10" type="line"/>
		</contour>
		<contour>
			<point x="299" y="359" type="line"/>
			<point x="35" y="0" type="line"/>
			<point x="52" y="0" type="line"/>
			<point x="303" y="344" type="line"/>
		</contour>
	</outline>
</glyph>
<glyph name="Y" format="2">
	<unicode hex="0059"/>
	<advance width="585"/>
	<outline>
		<contour>
			<point x="94" y="666" type="line"/>
			<point x="182" y="660" type="line"/>
			<point x="195" y="660" type="line"/>
			<point x="296" y="666" type="line"/>
			<point x="298" y="676" type="line"/>
			<point x="96" y="676" type="line"/>
		</contour>
		<contour>
			<point x="136" y="0" type="line"/>
			<point x="378" y="0" type="line"/>
			<point x="380" y="10" type="line"/>
			<point x="267" y="16" type="line"/>
			<point x="249" y="16" type="line"/>
			<point x="138" y="10" type="line"/>
		</contour>
		<contour>
			<point x="296" y="245" type="line"/>
			<point x="303" y="245" type="line"/>
			<point x="583" y="676" type="line"/>
			<point x="566" y="676" type="line"/>
			<point x="310" y="280" type="line"/>
			<point x="307" y="276" type="line"/>
			<point x="313" y="276" type="line"/>
			<point x="193" y="676" type="line"/>
			<point x="167" y="676" type="line"/>
		</contour>
		<contour>
			<point x="241" y="0" type="line"/>
			<point x="269" y="0" type="line"/>
			<point x="283" y="94"/>
			<point x="301" y="185"/>
			<point x="318" y="279" type="curve"/>
			<point x="293" y="279" type="line"/>
		</contour>
		<contour>
			<point x="461" y="666" type="line"/>
			<point x="557" y="660" type="line"/>
			<point x="567" y="660" type="line"/>
			<point x="652" y="666" type="line"/>
			<point x="654" y="676" type="line"/>
			<point x="463" y="676" type="line"/>
		</contour>
	</outline>
	<anchor name="aboveUC" x="367" y="696"/>
	<anchor name="belowLC" x="257" y="-20"/>
</glyph>
<glyph name="Z" format="2">
	<unicode hex="005A"/>
	<advance width="501"/>
	<outline>
		<contour>
			<point x="1" y="0" type="line"/>
			<point x="437" y="0" type="line"/>
			<point x="476" y="172" type="line"/>
			<point x="466" y="172" type="line"/>
			<point x="414" y="7" type="line"/>
			<point x="427" y="13" type="line"/>
			<point x="19" y="13" type="line"/>
			<point x="28" y="6" type="line"/>
			<point x="538" y="668" type="line"/>
			<point x="539" y="676" type="line"/>
			<point x="137" y="676" type="line"/>
			<point x="100" y="512" type="line"/>
			<point x="110" y="512" type="line"/>
			<point x="160" y="669" type="line"/>
			<point x="147" y="663" type="line"/>
			<point x="521" y="663" type="line"/>
			<point x="512" y="670" type="line"/>
			<point x="2" y="8" type="line"/>
		</contour>
	</outline>
</glyph>
<glyph name="bracketleft" format="2">
	<unicode hex="005B"/>
	<advance width="267"/>
	<outline>
		<contour>
			<point x="31" y="-160" type="line"/>
			<point x="56" y="-160" type="line"/>
			<point x="70" y="-72"/>
			<point x="94" y="56"/>
			<point x="114" y="164" type="curve" smooth="yes"/>
			<point x="217" y="716" type="line"/>
			<point x="192" y="716" type="line"/>
			<point x="178" y="630"/>
			<point x="155" y="504"/>
			<point x="136" y="400" type="curve" smooth="yes"/>
		</contour>
		<contour>
			<point x="38" y="-160" type="line"/>
			<point x="161" y="-160" type="line"/>
			<point x="163" y="-150" type="line"/>
			<point x="51" y="-142" type="line"/>
			<point x="41" y="-142" type="line"/>
		</contour>
		<contour>
			<point x="197" y="698" type="line"/>
			<point x="207" y="698" type="line"/>
			<point x="321" y="706" type="line"/>
			<point x="323" y="716" type="line"/>
			<point x="200" y="716" type="line"/>
		</contour>
	</outline>
</glyph>
<glyph name="backslash" format="2">
	<unicode hex="005C"/>
	<advance width="270"/>
	<outline>
		<contour>
			<point x="200" y="-160" type="line"/>
			<point x="109" y="708" type="line"/>
			<point x="91" y="708" type="line"/>
			<point x="182" y="-160" type="line"/>
		</contour>
	</outline>
</glyph>
<glyph name="asciicircum" format="2">
	<unicode hex="005E"/>
	<advance width="496"/>
	<outline>
		<contour>
			<point x="112" y="224" type="line"/>
			<point x="125" y="216" type="line"/>
			<point x="281" y="486" type="line"/>
			<point x="267" y="486" type="line"/>
			<point x="423" y="216" type="line"/>
			<point x="436" y="224" type="line"/>
			<point x="277" y="500" type="line"/>
			<point x="271" y="500" type="line"/>
		</contour>
	</outline>
</glyph>
<glyph name="underscore" format="2">
	<unicode hex="005F"/>
	<advance width="472"/>
	<outline>
		<contour>
			<point x="-67" y="-23" type="line"/>
			<point x="431" y="-23" type="line"/>
			<point x="431" y="-5" type="line"/>
			<point x="-67" y="-5" type="line"/>
		</contour>
	</outline>
</glyph>
<glyph name="a" format="2">
	<unicode hex="0061"/>
	<advance width="496"/>
	<outline>
		<contour>
			<point x="156" y="-12" type="curve" smooth="yes"/>
			<point x="227" y="-12"/>
			<point x="293" y="67"/>
			<point x="357" y="156" type="curve"/>
			<point x="359" y="156" type="line"/>
			<point x="352" y="160" type="line"/>
			<point x="281" y="72"/>
			<point x="224" y="7"/>
			<point x="160" y="7" type="curve" smooth="yes"/>
			<point x="112" y="7"/>
			<point x="80" y="42"/>
			<point x="80" y="124" type="curve" smooth="yes"/>
			<point x="80" y="212"/>
			<point x="125" y="326"/>
			<point x="196" y="391" type="curve" smooth="yes"/>
			<point x="230" y="424"/>
			<point x="271" y="444"/>
			<point x="316" y="444" type="curve" smooth="yes"/>
			<point x="350" y="444"/>
			<point x="382" y="430"/>
			<point x="402" y="406" type="curve"/>
			<point x="406" y="420" type="line"/>
			<point x="390" y="444"/>
			<point x="354" y="460"/>
			<point x="320" y="460" type="curve" smooth="yes"/>
			<point x="192" y="460"/>
			<point x="56" y="274"/>
			<point x="56" y="118" type="curve" smooth="yes"/>
			<point x="56" y="17"/>
			<point x="109" y="-12"/>
		</contour>
		<contour>
			<point x="362" y="-12" type="curve" smooth="yes"/>
			<point x="408" y="-12"/>
			<point x="448" y="30"/>
			<point x="486" y="84" type="curve"/>
			<point x="478" y="90" type="line"/>
			<point x="441" y="43"/>
			<point x="403" y="7"/>
			<point x="369" y="7" type="curve" smooth="yes"/>
			<point x="355" y="7"/>
			<point x="344" y="16"/>
			<point x="344" y="30" type="curve" smooth="yes"/>
			<point x="344" y="51"/>
			<point x="349" y="77"/>
			<point x="353" y="96" type="curve" smooth="yes"/>
			<point x="427" y="453" type="line"/>
			<point x="421" y="458" type="line"/>
			<point x="399" y="424" type="line"/>
			<point x="397" y="421" type="line"/>
			<point x="339" y="139" type="line"/>
			<point x="338" y="134" type="line"/>
			<point x="324" y="66"/>
			<point x="320" y="52"/>
			<point x="320" y="27" type="curve" smooth="yes"/>
			<point x="320" y="4"/>
			<point x="335" y="-12"/>
		</contour>
	</outline>
	<anchor name="aboveLC" x="302" y="476"/>
	<anchor name="belowLC" x="220" y="-24"/>
	<anchor name="ogonek" x="398" y="0"/>
</glyph>
<glyph name="b" format="2">
	<unicode hex="0062"/>
	<advance width="460"/>
	<outline>
		<contour>
			<point x="91" y="197" type="line" smooth="yes"/>
			<point x="84" y="162"/>
			<point x="76" y="124"/>
			<point x="76" y="89" type="curve" smooth="yes"/>
			<point x="76" y="33"/>
			<point x="97" y="-12"/>
			<point x="180" y="-12" type="curve" smooth="yes"/>
			<point x="296" y="-12"/>
			<point x="428" y="174"/>
			<point x="428" y="330" type="curve" smooth="yes"/>
			<point x="428" y="431"/>
			<point x="371" y="460"/>
			<point x="324" y="460" type="curve" smooth="yes"/>
			<point x="253" y="460"/>
			<point x="183" y="381"/>
			<point x="119" y="292" type="curve"/>
			<point x="124" y="288" type="line"/>
			<point x="195" y="376"/>
			<point x="256" y="441"/>
			<point x="320" y="441" type="curve" smooth="yes"/>
			<point x="368" y="441"/>
			<point x="404" y="406"/>
			<point x="404" y="324" type="curve" smooth="yes"/>
			<point x="404" y="193"/>
			<point x="308" y="4"/>
			<point x="180" y="4" type="curve" smooth="yes"/>
			<point x="116" y="4"/>
			<point x="99" y="46"/>
			<point x="99" y="94" type="curve" smooth="yes"/>
			<point x="99" y="130"/>
			<point x="108" y="168"/>
			<point x="114" y="195" type="curve" smooth="yes"/>
			<point x="229" y="743" type="line"/>
			<point x="223" y="748" type="line"/>
			<point x="91" y="740" type="line"/>
			<point x="91" y="730" type="line"/>
			<point x="207" y="730" type="line"/>
			<point x="202" y="743" type="line"/>
			<point x="191" y="677"/>
			<point x="176" y="600"/>
			<point x="165" y="546" type="curve" smooth="yes"/>
		</contour>
	</outline>
</glyph>
<glyph name="c" format="2">
	<unicode hex="0063"/>
	<advance width="376"/>
	<outline>
		<contour>
			<point x="184" y="-12" type="curve" smooth="yes"/>
			<point x="246" y="-12"/>
			<point x="296" y="27"/>
			<point x="336" y="90" type="curve"/>
			<point x="328" y="96" type="line"/>
			<point x="289" y="42"/>
			<point x="243" y="7"/>
			<point x="188" y="7" type="curve" smooth="yes"/>
			<point x="120" y="7"/>
			<point x="72" y="58"/>
			<point x="72" y="152" type="curve" smooth="yes"/>
			<point x="72" y="282"/>
			<point x="153" y="449"/>
			<point x="292" y="449" type="curve"/>
			<point x="295" y="449" type="line"/>
			<point x="295" y="452" type="line"/>
			<point x="283" y="452" type="line"/>
			<point x="320" y="414" type="line" smooth="yes"/>
			<point x="332" y="401"/>
			<point x="340" y="395"/>
			<point x="352" y="395" type="curve" smooth="yes"/>
			<point x="360" y="395"/>
			<point x="368" y="401"/>
			<point x="368" y="411" type="curve"/>
			<point x="360" y="433"/>
			<point x="330" y="460"/>
			<point x="288" y="460" type="curve" smooth="yes"/>
			<point x="145" y="460"/>
			<point x="48" y="296"/>
			<point x="48" y="152" type="curve" smooth="yes"/>
			<point x="48" y="37"/>
			<point x="112" y="-12"/>
		</contour>
	</outline>
	<anchor name="aboveLC" x="285" y="468"/>
	<anchor name="belowLC" x="184" y="-20"/>
	<anchor name="baseLC" x="185" y="0"/>
</glyph>
<glyph name="d" format="2">
	<unicode hex="0064"/>
	<advance width="506"/>
	<outline>
		<contour>
			<point x="360" y="160" type="line"/>
			<point x="289" y="72"/>
			<point x="232" y="7"/>
			<point x="168" y="7" type="curve" smooth="yes"/>
			<point x="120" y="7"/>
			<point x="88" y="42"/>
			<point x="88" y="124" type="curve" smooth="yes"/>
			<point x="88" y="255"/>
			<point x="188" y="444"/>
			<point x="324" y="444" type="curve" smooth="yes"/>
			<point x="358" y="444"/>
			<point x="390" y="430"/>
			<point x="410" y="406" type="curve"/>
			<point x="414" y="420" type="line"/>
			<point x="398" y="444"/>
			<point x="362" y="460"/>
			<point x="328" y="460" type="curve" smooth="yes"/>
			<point x="200" y="460"/>
			<point x="64" y="274"/>
			<point x="64" y="118" type="curve" smooth="yes"/>
			<point x="64" y="17"/>
			<point x="117" y="-12"/>
			<point x="164" y="-12" type="curve" smooth="yes"/>
			<point x="235" y="-12"/>
			<point x="301" y="67"/>
			<point x="365" y="156" type="curve"/>
		</contour>
		<contour>
			<point x="471" y="738" type="line"/>
			<point x="338" y="96" type="line" smooth="yes"/>
			<point x="334" y="77"/>
			<point x="328" y="47"/>
			<point x="328" y="30" type="curve" smooth="yes"/>
			<point x="328" y="4"/>
			<point x="345" y="-12"/>
			<point x="372" y="-12" type="curve" smooth="yes"/>
			<point x="414" y="-12"/>
			<point x="456" y="30"/>
			<point x="494" y="84" type="curve"/>
			<point x="486" y="90" type="line"/>
			<point x="449" y="43"/>
			<point x="408" y="7"/>
			<point x="378" y="7" type="curve" smooth="yes"/>
			<point x="360" y="7"/>
			<point x="352" y="18"/>
			<point x="352" y="34" type="curve" smooth="yes"/>
			<point x="352" y="54"/>
			<point x="357" y="78"/>
			<point x="361" y="96" type="curve" smooth="yes"/>
			<point x="382" y="196" type="line"/>
			<point x="496" y="743" type="line"/>
			<point x="490" y="748" type="line"/>
			<point x="358" y="739" type="line"/>
			<point x="358" y="729" type="line"/>
			<point x="475" y="729" type="line"/>
		</contour>
	</outline>
</glyph>
<glyph name="e" format="2">
	<unicode hex="0065"/>
	<advance width="400"/>
	<outline>
		<contour>
			<point x="198" y="-12" type="curve" smooth="yes"/>
			<point x="260" y="-12"/>
			<point x="312" y="27"/>
			<point x="352" y="90" type="curve"/>
			<point x="344" y="96" type="line"/>
			<point x="305" y="42"/>
			<point x="259" y="8"/>
			<point x="204" y="8" type="curve" smooth="yes"/>
			<point x="138" y="8"/>
			<point x="88" y="58"/>
			<point x="88" y="152" type="curve" smooth="yes"/>
			<point x="88" y="282"/>
			<point x="181" y="448"/>
			<point x="300" y="448" type="curve" smooth="yes"/>
			<point x="339" y="448"/>
			<point x="365" y="423"/>
			<point x="365" y="384" type="curve" smooth="yes"/>
			<point x="365" y="300"/>
			<point x="258" y="226"/>
			<point x="75" y="177" type="curve"/>
			<point x="77" y="167" type="line"/>
			<point x="270" y="217"/>
			<point x="388" y="293"/>
			<point x="388" y="384" type="curve" smooth="yes"/>
			<point x="388" y="435"/>
			<point x="350" y="460"/>
			<point x="300" y="460" type="curve" smooth="yes"/>
			<point x="168" y="460"/>
			<point x="64" y="288"/>
			<point x="64" y="152" type="curve" smooth="yes"/>
			<point x="64" y="37"/>
			<point x="126" y="-12"/>
		</contour>
	</outline>
	<anchor name="aboveLC" x="280" y="476"/>
	<anchor name="belowLC" x="200" y="-24"/>
	<anchor name="ogonek" x="249" y="0"/>
</glyph>
<glyph name="f" format="2">
	<unicode hex="0066"/>
	<advance width="306"/>
	<outline>
		<contour>
			<point x="-55" y="-260" type="curve" smooth="yes"/>
			<point x="-9" y="-260"/>
			<point x="27" y="-240"/>
			<point x="54" y="-208" type="curve" smooth="yes"/>
			<point x="105" y="-150"/>
			<point x="127" y="-52"/>
			<point x="141" y="36" type="curve" smooth="yes"/>
			<point x="164" y="189"/>
			<point x="188" y="349"/>
			<point x="211" y="502" type="curve" smooth="yes"/>
			<point x="239" y="688"/>
			<point x="309" y="748"/>
			<point x="401" y="748" type="curve"/>
			<point x="400" y="753" type="line"/>
			<point x="385" y="753" type="line"/>
			<point x="431" y="702" type="line" smooth="yes"/>
			<point x="444" y="687"/>
			<point x="450" y="684"/>
			<point x="460" y="684" type="curve" smooth="yes"/>
			<point x="470" y="684"/>
			<point x="476" y="690"/>
			<point x="476" y="702" type="curve"/>
			<point x="468" y="726"/>
			<point x="433" y="758"/>
			<point x="389" y="758" type="curve" smooth="yes"/>
			<point x="299" y="758"/>
			<point x="215" y="690"/>
			<point x="186" y="502" type="curve" smooth="yes"/>
			<point x="163" y="349"/>
			<point x="139" y="189"/>
			<point x="116" y="36" type="curve" smooth="yes"/>
			<point x="104" y="-39"/>
			<point x="88" y="-140"/>
			<point x="39" y="-200" type="curve" smooth="yes"/>
			<point x="18" y="-226"/>
			<point x="-8" y="-244"/>
			<point x="-43" y="-250" type="curve"/>
			<point x="-43" y="-252" type="line"/>
			<point x="-35" y="-252" type="line"/>
			<point x="-49" y="-240" type="line" smooth="yes"/>
			<point x="-68" y="-223"/>
			<point x="-84" y="-206"/>
			<point x="-104" y="-206" type="curve" smooth="yes"/>
			<point x="-113" y="-206"/>
			<point x="-121" y="-210"/>
			<point x="-124" y="-220" type="curve"/>
			<point x="-122" y="-235"/>
			<point x="-94" y="-260"/>
		</contour>
		<contour>
			<point x="55" y="434" type="line"/>
			<point x="195" y="434" type="line"/>
			<point x="347" y="434" type="line"/>
			<point x="347" y="448" type="line"/>
			<point x="191" y="448" type="line"/>
			<point x="191" y="451" type="line"/>
			<point x="55" y="444" type="line"/>
		</contour>
	</outline>
	<anchor name="aboveLC" x="343" y="745"/>
	<anchor name="belowLC" x="-6" y="-260"/>
</glyph>
<glyph name="g" format="2">
	<unicode hex="0067"/>
	<advance width="414"/>
	<outline>
		<contour>
			<point x="191" y="136" type="curve" smooth="yes"/>
			<point x="140" y="136"/>
			<point x="100" y="171"/>
			<point x="100" y="244" type="curve" smooth="yes"/>
			<point x="100" y="334"/>
			<point x="155" y="448"/>
			<point x="244" y="448" type="curve" smooth="yes"/>
			<point x="295" y="448"/>
			<point x="335" y="413"/>
			<point x="335" y="340" type="curve" smooth="yes"/>
			<point x="335" y="250"/>
			<point x="280" y="136"/>
		</contour>
		<contour>
			<point x="116" y="160" type="line"/>
			<point x="85" y="136"/>
			<point x="53" y="104"/>
			<point x="53" y="66" type="curve" smooth="yes"/>
			<point x="53" y="23"/>
			<point x="88" y="4"/>
			<point x="124" y="-1" type="curve" smooth="yes"/>
			<point x="236" y="-16" type="line" smooth="yes"/>
			<point x="322" y="-28"/>
			<point x="337" y="-58"/>
			<point x="337" y="-104" type="curve" smooth="yes"/>
			<point x="337" y="-184"/>
			<point x="257" y="-248"/>
			<point x="144" y="-248" type="curve" smooth="yes"/>
			<point x="49" y="-248"/>
			<point x="4" y="-205"/>
			<point x="4" y="-144" type="curve" smooth="yes"/>
			<point x="4" y="-77"/>
			<point x="51" y="-34"/>
			<point x="128" y="4" type="curve"/>
			<point x="128" y="12" type="line"/>
			<point x="56" y="-16"/>
			<point x="-19" y="-74"/>
			<point x="-19" y="-149" type="curve" smooth="yes"/>
			<point x="-19" y="-224"/>
			<point x="36" y="-264"/>
			<point x="136" y="-264" type="curve" smooth="yes"/>
			<point x="273" y="-264"/>
			<point x="360" y="-175"/>
			<point x="360" y="-96" type="curve" smooth="yes"/>
			<point x="360" y="-46"/>
			<point x="337" y="-8"/>
			<point x="243" y="4" type="curve" smooth="yes"/>
			<point x="131" y="19" type="line" smooth="yes"/>
			<point x="91" y="24"/>
			<point x="73" y="47"/>
			<point x="73" y="75" type="curve" smooth="yes"/>
			<point x="73" y="107"/>
			<point x="98" y="133"/>
			<point x="121" y="153" type="curve"/>
		</contour>
		<contour>
			<point x="385" y="442" type="curve"/>
			<point x="372" y="432" type="line"/>
			<point x="426" y="441"/>
			<point x="462" y="448"/>
			<point x="446" y="479" type="curve"/>
			<point x="443" y="480"/>
			<point x="435" y="482"/>
			<point x="423" y="482" type="curve" smooth="yes"/>
			<point x="393" y="482"/>
			<point x="361" y="463"/>
			<point x="350" y="339" type="curve"/>
			<point x="356" y="368" type="line"/>
			<point x="345" y="431"/>
			<point x="299" y="460"/>
			<point x="245" y="460" type="curve" smooth="yes"/>
			<point x="140" y="460"/>
			<point x="75" y="341"/>
			<point x="75" y="244" type="curve" smooth="yes"/>
			<point x="75" y="162"/>
			<point x="129" y="124"/>
			<point x="190" y="124" type="curve" smooth="yes"/>
			<point x="297" y="124"/>
			<point x="351" y="244"/>
			<point x="358" y="312" type="curve" smooth="yes"/>
			<point x="368" y="411"/>
			<point x="378" y="427"/>
		</contour>
	</outline>
	<anchor name="aboveLC" x="285" y="500"/>
	<anchor name="belowLC" x="172" y="-240"/>
</glyph>
<glyph name="h" format="2">
	<unicode hex="0068"/>
	<advance width="504"/>
	<outline>
		<contour>
			<point x="49" y="-4" type="line"/>
			<point x="72" y="0" type="line"/>
			<point x="85" y="77"/>
			<point x="96" y="131"/>
			<point x="109" y="196" type="curve" smooth="yes"/>
			<point x="135" y="322" type="line"/>
			<point x="136" y="328" type="line"/>
			<point x="222" y="743" type="line"/>
			<point x="216" y="748" type="line"/>
			<point x="84" y="739" type="line"/>
			<point x="84" y="729" type="line"/>
			<point x="202" y="729" type="line"/>
			<point x="194" y="737" type="line"/>
			<point x="184" y="674"/>
			<point x="172" y="613"/>
			<point x="159" y="550" type="curve" smooth="yes"/>
			<point x="45" y="0" type="line"/>
		</contour>
		<contour>
			<point x="354" y="-12" type="curve" smooth="yes"/>
			<point x="396" y="-12"/>
			<point x="438" y="30"/>
			<point x="476" y="84" type="curve"/>
			<point x="468" y="90" type="line"/>
			<point x="431" y="43"/>
			<point x="390" y="7"/>
			<point x="360" y="7" type="curve" smooth="yes"/>
			<point x="342" y="7"/>
			<point x="334" y="18"/>
			<point x="334" y="34" type="curve" smooth="yes"/>
			<point x="334" y="54"/>
			<point x="338" y="78"/>
			<point x="342" y="96" type="curve" smooth="yes"/>
			<point x="390" y="312" type="line" smooth="yes"/>
			<point x="398" y="349"/>
			<point x="402" y="371"/>
			<point x="402" y="400" type="curve" smooth="yes"/>
			<point x="402" y="433"/>
			<point x="384" y="460"/>
			<point x="342" y="460" type="curve" smooth="yes"/>
			<point x="282" y="460"/>
			<point x="199" y="395"/>
			<point x="120" y="316" type="curve"/>
			<point x="116" y="316" type="line"/>
			<point x="120" y="307" type="line"/>
			<point x="225" y="400"/>
			<point x="283" y="442"/>
			<point x="335" y="442" type="curve" smooth="yes"/>
			<point x="362" y="442"/>
			<point x="379" y="425"/>
			<point x="379" y="396" type="curve" smooth="yes"/>
			<point x="379" y="372"/>
			<point x="374" y="342"/>
			<point x="367" y="312" type="curve" smooth="yes"/>
			<point x="319" y="96" type="line" smooth="yes"/>
			<point x="315" y="77"/>
			<point x="310" y="47"/>
			<point x="310" y="30" type="curve" smooth="yes"/>
			<point x="310" y="4"/>
			<point x="327" y="-12"/>
		</contour>
	</outline>
	<anchor name="aboveLC" x="241" y="753"/>
	<anchor name="belowLC" x="196" y="-20"/>
</glyph>
<glyph name="i" format="2">
	<unicode hex="0069"/>
	<advance width="262"/>
	<outline>
		<contour>
			<point x="141" y="196" type="line"/>
			<point x="193" y="448" type="line"/>
			<point x="187" y="453" type="line"/>
			<point x="56" y="444" type="line"/>
			<point x="56" y="434" type="line"/>
			<point x="173" y="434" type="line"/>
			<point x="169" y="442" type="line"/>
			<point x="97" y="96" type="line" smooth="yes"/>
			<point x="93" y="77"/>
			<point x="87" y="47"/>
			<point x="87" y="30" type="curve" smooth="yes"/>
			<point x="87" y="4"/>
			<point x="104" y="-12"/>
			<point x="128" y="-12" type="curve" smooth="yes"/>
			<point x="173" y="-12"/>
			<point x="215" y="30"/>
			<point x="253" y="84" type="curve"/>
			<point x="245" y="90" type="line"/>
			<point x="208" y="43"/>
			<point x="167" y="8"/>
			<point x="137" y="8" type="curve" smooth="yes"/>
			<point x="119" y="8"/>
			<point x="111" y="18"/>
			<point x="111" y="34" type="curve" smooth="yes"/>
			<point x="111" y="54"/>
			<point x="116" y="78"/>
			<point x="120" y="96" type="curve" smooth="yes"/>
		</contour>
		<contour>
			<point x="220" y="648" type="curve" smooth="yes"/>
			<point x="236" y="648"/>
			<point x="254" y="661"/>
			<point x="254" y="684" type="curve" smooth="yes"/>
			<point x="254" y="699"/>
			<point x="244" y="708"/>
			<point x="230" y="708" type="curve" smooth="yes"/>
			<point x="212" y="708"/>
			<point x="196" y="694"/>
			<point x="196" y="671" type="curve" smooth="yes"/>
			<point x="196" y="656"/>
			<point x="206" y="648"/>
		</contour>
	</outline>
</glyph>
<glyph name="j" format="2">
	<unicode hex="006A"/>
	<advance width="239"/>
	<outline>
		<contour>
			<point x="213" y="620" type="curve" smooth="yes"/>
			<point x="228" y="620"/>
			<point x="246" y="632"/>
			<point x="246" y="654" type="curve" smooth="yes"/>
			<point x="246" y="667"/>
			<point x="236" y="676"/>
			<point x="224" y="676" type="curve" smooth="yes"/>
			<point x="207" y="676"/>
			<point x="191" y="663"/>
			<point x="191" y="642" type="curve" smooth="yes"/>
			<point x="191" y="628"/>
			<point x="201" y="620"/>
		</contour>
		<contour>
			<point x="-91" y="-260" type="line"/>
			<point x="-48" y="-249"/>
			<point x="-16" y="-232"/>
			<point x="10" y="-208" type="curve" smooth="yes"/>
			<point x="59" y="-162"/>
			<point x="82" y="-91"/>
			<point x="103" y="12" type="curve" smooth="yes"/>
			<point x="193" y="448" type="line"/>
			<point x="187" y="453" type="line"/>
			<point x="58" y="444" type="line"/>
			<point x="58" y="434" type="line"/>
			<point x="171" y="434" type="line"/>
			<point x="168" y="440" type="line"/>
			<point x="81" y="20" type="line" smooth="yes"/>
			<point x="60" y="-83"/>
			<point x="38" y="-151"/>
			<point x="-3" y="-196" type="curve" smooth="yes"/>
			<point x="-26" y="-221"/>
			<point x="-55" y="-238"/>
			<point x="-93" y="-251" type="curve"/>
		</contour>
	</outline>
	<anchor name="aboveLC" x="223" y="667"/>
	<anchor name="belowLC" x="16" y="-264"/>
</glyph>
<glyph name="k" format="2">
	<unicode hex="006B"/>
	<advance width="424"/>
	<outline>
		<contour>
			<point x="59" y="0" type="line"/>
			<point x="65" y="-5" type="line"/>
			<point x="88" y="0" type="line"/>
			<point x="99" y="66"/>
			<point x="112" y="131"/>
			<point x="125" y="197" type="curve" smooth="yes"/>
			<point x="238" y="743" type="line"/>
			<point x="232" y="748" type="line"/>
			<point x="99" y="740" type="line"/>
			<point x="99" y="730" type="line"/>
			<point x="215" y="730" type="line"/>
			<point x="209" y="743" type="line"/>
			<point x="198" y="677"/>
			<point x="183" y="600"/>
			<point x="172" y="546" type="curve" smooth="yes"/>
		</contour>
		<contour>
			<point x="420" y="3" type="curve"/>
			<point x="420" y="10" type="line"/>
			<point x="379" y="11" type="line" smooth="yes"/>
			<point x="348" y="12"/>
			<point x="320" y="30"/>
			<point x="303" y="69" type="curve" smooth="yes"/>
			<point x="264" y="157" type="line" smooth="yes"/>
			<point x="240" y="211"/>
			<point x="211" y="238"/>
			<point x="159" y="250" type="curve" smooth="yes"/>
			<point x="137" y="255" type="line"/>
			<point x="138" y="251" type="line"/>
			<point x="402" y="424" type="line" smooth="yes"/>
			<point x="411" y="430"/>
			<point x="416" y="435"/>
			<point x="416" y="443" type="curve" smooth="yes"/>
			<point x="416" y="449"/>
			<point x="412" y="455"/>
			<point x="405" y="457" type="curve"/>
			<point x="129" y="255" type="line"/>
			<point x="133" y="246" type="line"/>
			<point x="148" y="242" type="line" smooth="yes"/>
			<point x="203" y="227"/>
			<point x="221" y="196"/>
			<point x="242" y="148" type="curve" smooth="yes"/>
			<point x="281" y="59" type="line" smooth="yes"/>
			<point x="302" y="12"/>
			<point x="328" y="-6"/>
			<point x="372" y="-6" type="curve" smooth="yes"/>
			<point x="387" y="-6"/>
			<point x="397" y="-5"/>
		</contour>
	</outline>
	<anchor name="aboveLC" x="214" y="730"/>
	<anchor name="belowLC" x="215" y="-22"/>
</glyph>
<glyph name="l" format="2">
	<unicode hex="006C"/>
	<advance width="246"/>
	<outline>
		<contour>
			<point x="115" y="-12" type="curve" smooth="yes"/>
			<point x="157" y="-12"/>
			<point x="199" y="30"/>
			<point x="237" y="84" type="curve"/>
			<point x="229" y="90" type="line"/>
			<point x="192" y="43"/>
			<point x="151" y="7"/>
			<point x="121" y="7" type="curve" smooth="yes"/>
			<point x="103" y="7"/>
			<point x="95" y="18"/>
			<point x="95" y="34" type="curve" smooth="yes"/>
			<point x="95" y="54"/>
			<point x="100" y="78"/>
			<point x="104" y="96" type="curve" smooth="yes"/>
			<point x="238" y="743" type="line"/>
			<point x="232" y="748" type="line"/>
			<point x="100" y="739" type="line"/>
			<point x="100" y="729" type="line"/>
			<point x="218" y="729" type="line"/>
			<point x="210" y="738" type="line"/>
			<point x="200" y="675"/>
			<point x="188" y="613"/>
			<point x="175" y="550" type="curve" smooth="yes"/>
			<point x="81" y="96" type="line" smooth="yes"/>
			<point x="77" y="77"/>
			<point x="71" y="47"/>
			<point x="71" y="30" type="curve" smooth="yes"/>
			<point x="71" y="4"/>
			<point x="88" y="-12"/>
		</contour>
	</outline>
	<anchor name="aboveLC" x="222" y="748"/>
	<anchor name="belowLC" x="134" y="-24"/>
</glyph>
<glyph name="m" format="2">
	<unicode hex="006D"/>
	<advance width="764"/>
	<outline>
		<contour>
			<point x="630" y="-12" type="curve" smooth="yes"/>
			<point x="672" y="-12"/>
			<point x="714" y="30"/>
			<point x="752" y="84" type="curve"/>
			<point x="744" y="90" type="line"/>
			<point x="707" y="43"/>
			<point x="666" y="7"/>
			<point x="636" y="7" type="curve" smooth="yes"/>
			<point x="618" y="7"/>
			<point x="610" y="18"/>
			<point x="610" y="34" type="curve" smooth="yes"/>
			<point x="610" y="54"/>
			<point x="615" y="78"/>
			<point x="619" y="96" type="curve" smooth="yes"/>
			<point x="666" y="312" type="line" smooth="yes"/>
			<point x="674" y="349"/>
			<point x="678" y="371"/>
			<point x="678" y="400" type="curve" smooth="yes"/>
			<point x="678" y="433"/>
			<point x="660" y="460"/>
			<point x="618" y="460" type="curve" smooth="yes"/>
			<point x="558" y="460"/>
			<point x="479" y="395"/>
			<point x="400" y="316" type="curve"/>
			<point x="400" y="307" type="line"/>
			<point x="505" y="400"/>
			<point x="559" y="442"/>
			<point x="611" y="442" type="curve" smooth="yes"/>
			<point x="638" y="442"/>
			<point x="655" y="425"/>
			<point x="655" y="396" type="curve" smooth="yes"/>
			<point x="655" y="372"/>
			<point x="650" y="342"/>
			<point x="643" y="312" type="curve" smooth="yes"/>
			<point x="596" y="96" type="line" smooth="yes"/>
			<point x="592" y="77"/>
			<point x="586" y="47"/>
			<point x="586" y="30" type="curve" smooth="yes"/>
			<point x="586" y="4"/>
			<point x="603" y="-12"/>
		</contour>
		<contour>
			<point x="104" y="0" type="line"/>
			<point x="117" y="77"/>
			<point x="128" y="131"/>
			<point x="141" y="196" type="curve" smooth="yes"/>
			<point x="169" y="332" type="line"/>
			<point x="193" y="448" type="line"/>
			<point x="187" y="453" type="line"/>
			<point x="60" y="444" type="line"/>
			<point x="60" y="434" type="line"/>
			<point x="173" y="434" type="line"/>
			<point x="169" y="442" type="line"/>
			<point x="77" y="0" type="line"/>
			<point x="81" y="-4" type="line"/>
		</contour>
		<contour>
			<point x="352" y="0" type="line"/>
			<point x="365" y="77"/>
			<point x="375" y="131"/>
			<point x="389" y="196" type="curve" smooth="yes"/>
			<point x="414" y="312" type="line" smooth="yes"/>
			<point x="422" y="349"/>
			<point x="426" y="371"/>
			<point x="426" y="400" type="curve" smooth="yes"/>
			<point x="426" y="433"/>
			<point x="408" y="460"/>
			<point x="366" y="460" type="curve" smooth="yes"/>
			<point x="306" y="460"/>
			<point x="227" y="395"/>
			<point x="148" y="316" type="curve"/>
			<point x="148" y="307" type="line"/>
			<point x="253" y="400"/>
			<point x="307" y="442"/>
			<point x="359" y="442" type="curve" smooth="yes"/>
			<point x="386" y="442"/>
			<point x="403" y="425"/>
			<point x="403" y="396" type="curve" smooth="yes"/>
			<point x="403" y="372"/>
			<point x="397" y="342"/>
			<point x="391" y="312" type="curve" smooth="yes"/>
			<point x="325" y="0" type="line"/>
			<point x="329" y="-4" type="line"/>
		</contour>
	</outline>
	<anchor name="aboveLC" x="428" y="476"/>
	<anchor name="belowLC" x="338" y="-24"/>
</glyph>
<glyph name="n" format="2">
	<unicode hex="006E"/>
	<advance width="520"/>
	<outline>
		<contour>
			<point x="193" y="448" type="line"/>
			<point x="187" y="453" type="line"/>
			<point x="56" y="444" type="line"/>
			<point x="56" y="434" type="line"/>
			<point x="173" y="434" type="line"/>
			<point x="169" y="442" type="line"/>
			<point x="77" y="0" type="line"/>
			<point x="81" y="-4" type="line"/>
			<point x="104" y="0" type="line"/>
			<point x="117" y="77"/>
			<point x="128" y="131"/>
			<point x="141" y="196" type="curve" smooth="yes"/>
		</contour>
		<contour>
			<point x="352" y="96" type="line" smooth="yes"/>
			<point x="348" y="77"/>
			<point x="342" y="47"/>
			<point x="342" y="30" type="curve" smooth="yes"/>
			<point x="342" y="4"/>
			<point x="359" y="-12"/>
			<point x="386" y="-12" type="curve" smooth="yes"/>
			<point x="428" y="-12"/>
			<point x="470" y="30"/>
			<point x="508" y="84" type="curve"/>
			<point x="500" y="90" type="line"/>
			<point x="463" y="43"/>
			<point x="422" y="7"/>
			<point x="392" y="7" type="curve" smooth="yes"/>
			<point x="374" y="7"/>
			<point x="366" y="18"/>
			<point x="366" y="34" type="curve" smooth="yes"/>
			<point x="366" y="54"/>
			<point x="371" y="78"/>
			<point x="375" y="96" type="curve" smooth="yes"/>
			<point x="422" y="312" type="line" smooth="yes"/>
			<point x="430" y="349"/>
			<point x="434" y="371"/>
			<point x="434" y="400" type="curve" smooth="yes"/>
			<point x="434" y="433"/>
			<point x="414" y="460"/>
			<point x="372" y="460" type="curve" smooth="yes"/>
			<point x="312" y="460"/>
			<point x="231" y="395"/>
			<point x="152" y="316" type="curve"/>
			<point x="152" y="307" type="line"/>
			<point x="257" y="400"/>
			<point x="315" y="442"/>
			<point x="367" y="442" type="curve" smooth="yes"/>
			<point x="394" y="442"/>
			<point x="411" y="425"/>
			<point x="411" y="396" type="curve" smooth="yes"/>
			<point x="411" y="372"/>
			<point x="406" y="342"/>
			<point x="399" y="312" type="curve" smooth="yes"/>
		</contour>
	</outline>
</glyph>
<glyph name="o" format="2">
	<unicode hex="006F"/>
	<advance width="452"/>
	<outline>
		<contour>
			<point x="203" y="0" type="curve"/>
			<point x="136" y="0"/>
			<point x="87" y="48"/>
			<point x="87" y="152" type="curve" smooth="yes"/>
			<point x="87" y="282"/>
			<point x="164" y="448"/>
			<point x="283" y="448" type="curve"/>
			<point x="350" y="448"/>
			<point x="399" y="400"/>
			<point x="399" y="296" type="curve" smooth="yes"/>
			<point x="399" y="166"/>
			<point x="322" y="0"/>
		</contour>
		<contour>
			<point x="203" y="-12" type="curve"/>
			<point x="335" y="-12"/>
			<point x="424" y="160"/>
			<point x="424" y="296" type="curve" smooth="yes"/>
			<point x="424" y="411"/>
			<point x="359" y="460"/>
			<point x="283" y="460" type="curve"/>
			<point x="151" y="460"/>
			<point x="62" y="288"/>
			<point x="62" y="152" type="curve" smooth="yes"/>
			<point x="62" y="37"/>
			<point x="127" y="-12"/>
		</contour>
	</outline>
	<anchor name="aboveLC" x="302" y="500"/>
	<anchor name="belowLC" x="226" y="-22"/>
	<anchor name="hornLC" x="441" y="489"/>
	<anchor name="ogonek" x="288" y="1"/>
</glyph>
<glyph name="p" format="2">
	<unicode hex="0070"/>
	<advance width="479"/>
	<outline>
		<contour>
			<point x="183" y="-12" type="curve" smooth="yes"/>
			<point x="311" y="-12"/>
			<point x="447" y="174"/>
			<point x="447" y="330" type="curve" smooth="yes"/>
			<point x="447" y="431"/>
			<point x="394" y="460"/>
			<point x="347" y="460" type="curve" smooth="yes"/>
			<point x="276" y="460"/>
			<point x="210" y="381"/>
			<point x="146" y="292" type="curve"/>
			<point x="140" y="292" type="line"/>
			<point x="151" y="288" type="line"/>
			<point x="222" y="376"/>
			<point x="279" y="441"/>
			<point x="343" y="441" type="curve" smooth="yes"/>
			<point x="391" y="441"/>
			<point x="423" y="406"/>
			<point x="423" y="324" type="curve" smooth="yes"/>
			<point x="423" y="237"/>
			<point x="379" y="126"/>
			<point x="311" y="60" type="curve" smooth="yes"/>
			<point x="275" y="26"/>
			<point x="233" y="4"/>
			<point x="187" y="4" type="curve" smooth="yes"/>
			<point x="153" y="4"/>
			<point x="121" y="18"/>
			<point x="101" y="42" type="curve"/>
			<point x="97" y="28" type="line"/>
			<point x="113" y="4"/>
			<point x="149" y="-12"/>
		</contour>
		<contour>
			<point x="21" y="-260" type="line"/>
			<point x="45" y="-260" type="line"/>
			<point x="65" y="-165"/>
			<point x="84" y="-71"/>
			<point x="104" y="24" type="curve"/>
			<point x="105" y="28" type="line"/>
			<point x="164" y="309" type="line"/>
			<point x="165" y="314" type="line"/>
			<point x="193" y="448" type="line"/>
			<point x="187" y="453" type="line"/>
			<point x="60" y="444" type="line"/>
			<point x="60" y="434" type="line"/>
			<point x="172" y="434" type="line"/>
			<point x="168" y="440" type="line"/>
		</contour>
		<contour>
			<point x="-72" y="-260" type="line"/>
			<point x="156" y="-260" type="line"/>
			<point x="158" y="-250" type="line"/>
			<point x="45" y="-244" type="line"/>
			<point x="29" y="-244" type="line"/>
			<point x="-70" y="-250" type="line"/>
		</contour>
	</outline>
	<anchor name="aboveLC" x="282" y="476"/>
	<anchor name="belowLC" x="39" y="-260"/>
</glyph>
<glyph name="q" format="2">
	<unicode hex="0071"/>
	<advance width="480"/>
	<outline>
		<contour>
			<point x="285" y="-264" type="line"/>
			<point x="435" y="453" type="line"/>
			<point x="429" y="458" type="line"/>
			<point x="404" y="421" type="line"/>
			<point x="262" y="-264" type="line"/>
		</contour>
		<contour>
			<point x="156" y="-264" type="line"/>
			<point x="384" y="-264" type="line"/>
			<point x="386" y="-254" type="line"/>
			<point x="285" y="-248" type="line"/>
			<point x="269" y="-248" type="line"/>
			<point x="158" y="-254" type="line"/>
		</contour>
		<contour>
			<point x="360" y="160" type="line"/>
			<point x="289" y="72"/>
			<point x="232" y="7"/>
			<point x="168" y="7" type="curve" smooth="yes"/>
			<point x="120" y="7"/>
			<point x="88" y="42"/>
			<point x="88" y="124" type="curve" smooth="yes"/>
			<point x="88" y="255"/>
			<point x="188" y="444"/>
			<point x="324" y="444" type="curve" smooth="yes"/>
			<point x="358" y="444"/>
			<point x="390" y="430"/>
			<point x="410" y="406" type="curve"/>
			<point x="414" y="420" type="line"/>
			<point x="398" y="444"/>
			<point x="362" y="460"/>
			<point x="328" y="460" type="curve" smooth="yes"/>
			<point x="200" y="460"/>
			<point x="64" y="274"/>
			<point x="64" y="118" type="curve" smooth="yes"/>
			<point x="64" y="17"/>
			<point x="117" y="-12"/>
			<point x="164" y="-12" type="curve" smooth="yes"/>
			<point x="235" y="-12"/>
			<point x="301" y="67"/>
			<point x="365" y="156" type="curve"/>
		</contour>
	</outline>
</glyph>
<glyph name="r" format="2">
	<unicode hex="0072"/>
	<advance width="364"/>
	<outline>
		<contour>
			<point x="149" y="264" type="line"/>
			<point x="203" y="363"/>
			<point x="253" y="431"/>
			<point x="308" y="443" type="curve"/>
			<point x="288" y="441" type="line"/>
			<point x="300" y="432" type="line" smooth="yes"/>
			<point x="318" y="419"/>
			<point x="325" y="414"/>
			<point x="340" y="414" type="curve" smooth="yes"/>
			<point x="360" y="414"/>
			<point x="370" y="424"/>
			<point x="372" y="440" type="curve"/>
			<point x="364" y="452"/>
			<point x="355" y="460"/>
			<point x="324" y="460" type="curve" smooth="yes"/>
			<point x="258" y="460"/>
			<point x="193" y="371"/>
			<point x="152" y="284" type="curve"/>
		</contour>
		<contour>
			<point x="193" y="448" type="line"/>
			<point x="187" y="453" type="line"/>
			<point x="56" y="444" type="line"/>
			<point x="56" y="434" type="line"/>
			<point x="171" y="434" type="line"/>
			<point x="169" y="442" type="line"/>
			<point x="78" y="0" type="line"/>
			<point x="79" y="-4" type="line"/>
			<point x="104" y="0" type="line"/>
			<point x="117" y="77"/>
			<point x="128" y="131"/>
			<point x="141" y="196" type="curve" smooth="yes"/>
			<point x="160" y="288" type="line"/>
			<point x="162" y="298" type="line"/>
		</contour>
	</outline>
</glyph>
<glyph name="s" format="2">
	<unicode hex="0073"/>
	<advance width="347"/>
	<outline>
		<contour>
			<point x="154" y="-12" type="curve" smooth="yes"/>
			<point x="233" y="-12"/>
			<point x="292" y="33"/>
			<point x="292" y="112" type="curve" smooth="yes"/>
			<point x="292" y="172"/>
			<point x="246" y="206"/>
			<point x="203" y="237" type="curve" smooth="yes"/>
			<point x="162" y="266"/>
			<point x="123" y="294"/>
			<point x="123" y="346" type="curve" smooth="yes"/>
			<point x="123" y="403"/>
			<point x="166" y="448"/>
			<point x="236" y="448" type="curve" smooth="yes"/>
			<point x="261" y="448"/>
			<point x="283" y="441"/>
			<point x="300" y="430" type="curve"/>
			<point x="279" y="448" type="line"/>
			<point x="303" y="392" type="line" smooth="yes"/>
			<point x="309" y="378"/>
			<point x="317" y="376"/>
			<point x="324" y="376" type="curve" smooth="yes"/>
			<point x="334" y="376"/>
			<point x="340" y="383"/>
			<point x="340" y="392" type="curve"/>
			<point x="330" y="428"/>
			<point x="294" y="460"/>
			<point x="236" y="460" type="curve" smooth="yes"/>
			<point x="158" y="460"/>
			<point x="104" y="412"/>
			<point x="104" y="340" type="curve" smooth="yes"/>
			<point x="104" y="280"/>
			<point x="148" y="249"/>
			<point x="192" y="217" type="curve" smooth="yes"/>
			<point x="233" y="187"/>
			<point x="273" y="158"/>
			<point x="273" y="106" type="curve" smooth="yes"/>
			<point x="273" y="43"/>
			<point x="226" y="0"/>
			<point x="154" y="0" type="curve" smooth="yes"/>
			<point x="130" y="0"/>
			<point x="105" y="3"/>
			<point x="82" y="20" type="curve" smooth="yes"/>
			<point x="101" y="2" type="line"/>
			<point x="74" y="64" type="line" smooth="yes"/>
			<point x="69" y="76"/>
			<point x="63" y="80"/>
			<point x="54" y="80" type="curve" smooth="yes"/>
			<point x="44" y="80"/>
			<point x="38" y="71"/>
			<point x="38" y="62" type="curve"/>
			<point x="56" y="7"/>
			<point x="95" y="-12"/>
		</contour>
	</outline>
	<anchor name="aboveLC" x="222" y="476"/>
	<anchor name="belowLC" x="158" y="-24"/>
	<anchor name="baseLC" x="158" y="0"/>
</glyph>
<glyph name="t" format="2">
	<unicode hex="0074"/>
	<advance width="312"/>
	<outline>
		<contour>
			<point x="105" y="96" type="line" smooth="yes"/>
			<point x="101" y="76"/>
			<point x="95" y="46"/>
			<point x="95" y="29" type="curve" smooth="yes"/>
			<point x="95" y="6"/>
			<point x="108" y="-12"/>
			<point x="135" y="-12" type="curve" smooth="yes"/>
			<point x="181" y="-12"/>
			<point x="222" y="30"/>
			<point x="260" y="84" type="curve"/>
			<point x="252" y="90" type="line"/>
			<point x="215" y="43"/>
			<point x="174" y="8"/>
			<point x="140" y="8" type="curve" smooth="yes"/>
			<point x="126" y="8"/>
			<point x="118" y="18"/>
			<point x="118" y="32" type="curve" smooth="yes"/>
			<point x="118" y="52"/>
			<point x="124" y="77"/>
			<point x="128" y="96" type="curve" smooth="yes"/>
			<point x="230" y="596" type="line"/>
			<point x="220" y="596" type="line"/>
			<point x="176" y="440" type="line"/>
		</contour>
		<contour>
			<point x="68" y="434" type="line"/>
			<point x="187" y="434" type="line"/>
			<point x="336" y="434" type="line"/>
			<point x="336" y="448" type="line"/>
			<point x="185" y="448" type="line"/>
			<point x="185" y="451" type="line"/>
			<point x="68" y="444" type="line"/>
		</contour>
	</outline>
	<anchor name="aboveLC" x="215" y="566"/>
	<anchor name="belowLC" x="153" y="-20"/>
	<anchor name="baseLC" x="132" y="0"/>
</glyph>
<glyph name="u" format="2">
	<unicode hex="0075"/>
	<advance width="508"/>
	<outline>
		<contour>
			<point x="437" y="449" type="line"/>
			<point x="433" y="453" type="line"/>
			<point x="410" y="449" type="line"/>
			<point x="397" y="372"/>
			<point x="386" y="317"/>
			<point x="373" y="252" type="curve" smooth="yes"/>
			<point x="341" y="96" type="line" smooth="yes"/>
			<point x="337" y="77"/>
			<point x="331" y="47"/>
			<point x="331" y="30" type="curve" smooth="yes"/>
			<point x="331" y="7"/>
			<point x="342" y="-12"/>
			<point x="371" y="-12" type="curve" smooth="yes"/>
			<point x="415" y="-12"/>
			<point x="458" y="30"/>
			<point x="496" y="84" type="curve"/>
			<point x="488" y="90" type="line"/>
			<point x="451" y="43"/>
			<point x="410" y="8"/>
			<point x="376" y="8" type="curve" smooth="yes"/>
			<point x="362" y="8"/>
			<point x="354" y="16"/>
			<point x="354" y="32" type="curve" smooth="yes"/>
			<point x="354" y="52"/>
			<point x="360" y="77"/>
			<point x="364" y="96" type="curve" smooth="yes"/>
		</contour>
		<contour>
			<point x="193" y="448" type="line"/>
			<point x="187" y="453" type="line"/>
			<point x="56" y="444" type="line"/>
			<point x="56" y="434" type="line"/>
			<point x="171" y="434" type="line"/>
			<point x="168" y="440" type="line"/>
			<point x="102" y="136" type="line" smooth="yes"/>
			<point x="94" y="99"/>
			<point x="90" y="77"/>
			<point x="90" y="48" type="curve" smooth="yes"/>
			<point x="90" y="11"/>
			<point x="107" y="-12"/>
			<point x="149" y="-12" type="curve" smooth="yes"/>
			<point x="209" y="-12"/>
			<point x="290" y="51"/>
			<point x="369" y="132" type="curve"/>
			<point x="369" y="141" type="line"/>
			<point x="264" y="48"/>
			<point x="205" y="8"/>
			<point x="153" y="8" type="curve" smooth="yes"/>
			<point x="126" y="8"/>
			<point x="113" y="23"/>
			<point x="113" y="52" type="curve" smooth="yes"/>
			<point x="113" y="76"/>
			<point x="118" y="106"/>
			<point x="125" y="136" type="curve" smooth="yes"/>
		</contour>
	</outline>
</glyph>
<glyph name="v" format="2">
	<unicode hex="0076"/>
	<advance width="430"/>
	<outline>
		<contour>
			<point x="152" y="-4" type="curve"/>
			<point x="154" y="-6" type="line"/>
			<point x="169" y="-4" type="line"/>
			<point x="269" y="111"/>
			<point x="327" y="208"/>
			<point x="369" y="292" type="curve" smooth="yes"/>
			<point x="388" y="331"/>
			<point x="406" y="378"/>
			<point x="406" y="421" type="curve" smooth="yes"/>
			<point x="406" y="432"/>
			<point x="406" y="443"/>
			<point x="403" y="454" type="curve"/>
			<point x="400" y="458"/>
			<point x="393" y="460"/>
			<point x="387" y="460" type="curve" smooth="yes"/>
			<point x="373" y="460"/>
			<point x="367" y="450"/>
			<point x="367" y="432" type="curve" smooth="yes"/>
			<point x="367" y="422"/>
			<point x="369" y="409"/>
			<point x="373" y="376" type="curve" smooth="yes"/>
			<point x="379" y="332" type="line"/>
			<point x="391" y="384" type="line"/>
			<point x="380" y="354"/>
			<point x="368" y="324"/>
			<point x="355" y="296" type="curve" smooth="yes"/>
			<point x="303" y="186"/>
			<point x="235" y="93"/>
			<point x="171" y="17" type="curve"/>
			<point x="168" y="13" type="line"/>
			<point x="174" y="16" type="line"/>
			<point x="174" y="164"/>
			<point x="170" y="270"/>
			<point x="158" y="376" type="curve" smooth="yes"/>
			<point x="150" y="439"/>
			<point x="136" y="460"/>
			<point x="103" y="460" type="curve" smooth="yes"/>
			<point x="67" y="460"/>
			<point x="39" y="431"/>
			<point x="12" y="360" type="curve"/>
			<point x="21" y="356" type="line"/>
			<point x="50" y="421"/>
			<point x="77" y="442"/>
			<point x="99" y="442" type="curve" smooth="yes"/>
			<point x="119" y="442"/>
			<point x="128" y="423"/>
			<point x="135" y="368" type="curve" smooth="yes"/>
			<point x="147" y="271"/>
			<point x="152" y="164"/>
		</contour>
	</outline>
	<anchor name="aboveLC" x="246" y="468"/>
	<anchor name="belowLC" x="167" y="-20"/>
</glyph>
<glyph name="w" format="2">
	<unicode hex="0077"/>
	<advance width="674"/>
	<outline>
		<contour>
			<point x="170" y="-4" type="curve"/>
			<point x="172" y="-6" type="line"/>
			<point x="185" y="-4" type="line"/>
			<point x="265" y="96"/>
			<point x="384" y="318"/>
			<point x="413" y="439" type="curve"/>
			<point x="404" y="448" type="line"/>
			<point x="360" y="298"/>
			<point x="256" y="111"/>
			<point x="183" y="14" type="curve"/>
			<point x="190" y="16" type="line"/>
			<point x="190" y="164"/>
			<point x="186" y="270"/>
			<point x="174" y="376" type="curve" smooth="yes"/>
			<point x="166" y="439"/>
			<point x="152" y="460"/>
			<point x="119" y="460" type="curve" smooth="yes"/>
			<point x="83" y="460"/>
			<point x="55" y="431"/>
			<point x="28" y="360" type="curve"/>
			<point x="37" y="356" type="line"/>
			<point x="66" y="421"/>
			<point x="93" y="442"/>
			<point x="115" y="442" type="curve" smooth="yes"/>
			<point x="135" y="442"/>
			<point x="144" y="423"/>
			<point x="151" y="368" type="curve" smooth="yes"/>
			<point x="163" y="271"/>
			<point x="170" y="164"/>
		</contour>
		<contour>
			<point x="422" y="-4" type="line"/>
			<point x="425" y="-6" type="line"/>
			<point x="437" y="-4" type="line"/>
			<point x="537" y="111"/>
			<point x="587" y="208"/>
			<point x="629" y="292" type="curve" smooth="yes"/>
			<point x="653" y="341"/>
			<point x="672" y="404"/>
			<point x="663" y="454" type="curve"/>
			<point x="660" y="458"/>
			<point x="653" y="460"/>
			<point x="647" y="460" type="curve" smooth="yes"/>
			<point x="633" y="460"/>
			<point x="627" y="450"/>
			<point x="627" y="432" type="curve" smooth="yes"/>
			<point x="627" y="419"/>
			<point x="631" y="398"/>
			<point x="639" y="332" type="curve"/>
			<point x="651" y="384" type="line"/>
			<point x="598" y="234"/>
			<point x="517" y="111"/>
			<point x="437" y="14" type="curve"/>
			<point x="442" y="16" type="line"/>
			<point x="417" y="448" type="line"/>
			<point x="405" y="448" type="line"/>
			<point x="398" y="418" type="line"/>
		</contour>
	</outline>
	<anchor name="aboveLC" x="455" y="500"/>
	<anchor name="belowLC" x="339" y="-22"/>
</glyph>
<glyph name="x" format="2">
	<unicode hex="0078"/>
	<advance width="468"/>
	<outline>
		<contour>
			<point x="86" y="359" type="curve" smooth="yes"/>
			<point x="95" y="356" type="line"/>
			<point x="121" y="421"/>
			<point x="146" y="442"/>
			<point x="170" y="442" type="curve" smooth="yes"/>
			<point x="193" y="442"/>
			<point x="205" y="424"/>
			<point x="215" y="376" type="curve" smooth="yes"/>
			<point x="276" y="90" type="line" smooth="yes"/>
			<point x="293" y="10"/>
			<point x="306" y="-12"/>
			<point x="346" y="-12" type="curve" smooth="yes"/>
			<point x="382" y="-12"/>
			<point x="423" y="31"/>
			<point x="459" y="91" type="curve"/>
			<point x="450" y="96" type="line"/>
			<point x="417" y="47"/>
			<point x="375" y="6"/>
			<point x="349" y="6" type="curve" smooth="yes"/>
			<point x="321" y="6"/>
			<point x="313" y="24"/>
			<point x="299" y="92" type="curve" smooth="yes"/>
			<point x="238" y="378" type="line" smooth="yes"/>
			<point x="225" y="440"/>
			<point x="209" y="460"/>
			<point x="173" y="460" type="curve" smooth="yes"/>
			<point x="138" y="460"/>
			<point x="111" y="431"/>
		</contour>
		<contour>
			<point x="266" y="235" type="line"/>
			<point x="316" y="320"/>
			<point x="351" y="378"/>
			<point x="380" y="411" type="curve" smooth="yes"/>
			<point x="402" y="436"/>
			<point x="414" y="448"/>
			<point x="436" y="448" type="curve"/>
			<point x="431" y="454" type="line"/>
			<point x="454" y="406" type="line" smooth="yes"/>
			<point x="461" y="392"/>
			<point x="469" y="390"/>
			<point x="476" y="390" type="curve" smooth="yes"/>
			<point x="486" y="390"/>
			<point x="492" y="397"/>
			<point x="492" y="406" type="curve"/>
			<point x="480" y="440"/>
			<point x="463" y="460"/>
			<point x="433" y="460" type="curve" smooth="yes"/>
			<point x="412" y="460"/>
			<point x="392" y="447"/>
			<point x="369" y="420" type="curve" smooth="yes"/>
			<point x="340" y="385"/>
			<point x="304" y="327"/>
			<point x="257" y="244" type="curve"/>
		</contour>
		<contour>
			<point x="249" y="237" type="line"/>
			<point x="200" y="152"/>
			<point x="151" y="70"/>
			<point x="122" y="37" type="curve" smooth="yes"/>
			<point x="100" y="12"/>
			<point x="89" y="-1"/>
			<point x="59" y="-1" type="curve"/>
			<point x="67" y="-6" type="line"/>
			<point x="48" y="46" type="line" smooth="yes"/>
			<point x="42" y="60"/>
			<point x="35" y="62"/>
			<point x="28" y="62" type="curve" smooth="yes"/>
			<point x="18" y="62"/>
			<point x="12" y="53"/>
			<point x="12" y="44" type="curve"/>
			<point x="20" y="10"/>
			<point x="40" y="-12"/>
			<point x="68" y="-12" type="curve" smooth="yes"/>
			<point x="93" y="-12"/>
			<point x="110" y="1"/>
			<point x="133" y="28" type="curve" smooth="yes"/>
			<point x="162" y="63"/>
			<point x="211" y="145"/>
			<point x="258" y="228" type="curve"/>
		</contour>
	</outline>
</glyph>
<glyph name="y" format="2">
	<unicode hex="0079"/>
	<advance width="430"/>
	<outline>
		<contour>
			<point x="-75" y="-260" type="curve" smooth="yes"/>
			<point x="-35" y="-260"/>
			<point x="11" y="-231"/>
			<point x="54" y="-187" type="curve" smooth="yes"/>
			<point x="113" y="-126"/>
			<point x="169" y="-43"/>
			<point x="201" y="8" type="curve" smooth="yes"/>
			<point x="248" y="83"/>
			<point x="285" y="157"/>
			<point x="357" y="300" type="curve" smooth="yes"/>
			<point x="383" y="350"/>
			<point x="393" y="374"/>
			<point x="404" y="400" type="curve" smooth="yes"/>
			<point x="412" y="419"/>
			<point x="415" y="436"/>
			<point x="415" y="442" type="curve" smooth="yes"/>
			<point x="415" y="452"/>
			<point x="412" y="460"/>
			<point x="402" y="460" type="curve" smooth="yes"/>
			<point x="383" y="460"/>
			<point x="379" y="439"/>
			<point x="364" y="383" type="curve" smooth="yes"/>
			<point x="339" y="290"/>
			<point x="264" y="134"/>
			<point x="180" y="0" type="curve" smooth="yes"/>
			<point x="142" y="-58"/>
			<point x="92" y="-128"/>
			<point x="42" y="-180" type="curve" smooth="yes"/>
			<point x="9" y="-215"/>
			<point x="-30" y="-238"/>
			<point x="-62" y="-247" type="curve"/>
			<point x="-62" y="-249" type="line"/>
			<point x="-60" y="-249" type="line"/>
			<point x="-60" y="-247" type="line"/>
			<point x="-69" y="-240" type="line" smooth="yes"/>
			<point x="-93" y="-221"/>
			<point x="-108" y="-206"/>
			<point x="-124" y="-206" type="curve" smooth="yes"/>
			<point x="-133" y="-206"/>
			<point x="-141" y="-210"/>
			<point x="-144" y="-220" type="curve"/>
			<point x="-142" y="-235"/>
			<point x="-113" y="-260"/>
		</contour>
		<contour>
			<point x="167" y="-24" type="curve"/>
			<point x="193" y="0" type="line"/>
			<point x="189" y="0" type="line"/>
			<point x="185" y="148"/>
			<point x="170" y="270"/>
			<point x="158" y="376" type="curve" smooth="yes"/>
			<point x="150" y="439"/>
			<point x="136" y="460"/>
			<point x="103" y="460" type="curve" smooth="yes"/>
			<point x="67" y="460"/>
			<point x="39" y="431"/>
			<point x="12" y="360" type="curve"/>
			<point x="21" y="356" type="line"/>
			<point x="50" y="421"/>
			<point x="77" y="442"/>
			<point x="99" y="442" type="curve" smooth="yes"/>
			<point x="119" y="442"/>
			<point x="128" y="423"/>
			<point x="135" y="368" type="curve" smooth="yes"/>
			<point x="147" y="271"/>
			<point x="163" y="144"/>
		</contour>
	</outline>
	<anchor name="aboveLC" x="249" y="468"/>
	<anchor name="belowLC" x="-59" y="-280"/>
</glyph>
<glyph name="z" format="2">
	<unicode hex="007A"/>
	<advance width="411"/>
	<outline>
		<contour>
			<point x="211" y="-22" type="curve" smooth="yes"/>
			<point x="279" y="-22"/>
			<point x="347" y="18"/>
			<point x="347" y="82" type="curve" smooth="yes"/>
			<point x="347" y="103"/>
			<point x="342" y="121"/>
			<point x="330" y="126" type="curve"/>
			<point x="316" y="122"/>
			<point x="308" y="108"/>
			<point x="308" y="94" type="curve" smooth="yes"/>
			<point x="308" y="71"/>
			<point x="315" y="58"/>
			<point x="329" y="33" type="curve"/>
			<point x="332" y="42" type="line"/>
			<point x="327" y="42" type="line"/>
			<point x="303" y="13"/>
			<point x="257" y="-2"/>
			<point x="215" y="-2" type="curve" smooth="yes"/>
			<point x="148" y="-2"/>
			<point x="101" y="34"/>
			<point x="60" y="73" type="curve"/>
			<point x="53" y="67" type="line"/>
			<point x="98" y="17"/>
			<point x="144" y="-22"/>
		</contour>
		<contour>
			<point x="46" y="-4" type="line"/>
			<point x="59" y="63" type="line"/>
			<point x="156" y="171"/>
			<point x="279" y="276"/>
			<point x="369" y="377" type="curve" smooth="yes"/>
			<point x="377" y="386"/>
			<point x="391" y="403"/>
			<point x="405" y="456" type="curve"/>
			<point x="401" y="460" type="line"/>
			<point x="376" y="456" type="line"/>
			<point x="363" y="389" type="line"/>
			<point x="266" y="281"/>
			<point x="143" y="176"/>
			<point x="53" y="75" type="curve" smooth="yes"/>
			<point x="45" y="66"/>
			<point x="31" y="49"/>
			<point x="17" y="-4" type="curve"/>
			<point x="21" y="-8" type="line"/>
		</contour>
		<contour>
			<point x="84" y="308" type="line"/>
			<point x="93" y="306" type="line"/>
			<point x="129" y="448" type="line"/>
			<point x="115" y="439" type="line"/>
			<point x="210" y="426"/>
			<point x="272" y="410"/>
			<point x="364" y="385" type="curve"/>
			<point x="369" y="395" type="line"/>
			<point x="281" y="423"/>
			<point x="212" y="446"/>
			<point x="120" y="461" type="curve"/>
			<point x="105" y="451" type="line"/>
		</contour>
	</outline>
	<anchor name="aboveLC" x="244" y="468"/>
	<anchor name="belowLC" x="173" y="-20"/>
</glyph>
<glyph name="braceleft" format="2">
	<unicode hex="007B"/>
	<advance width="328"/>
	<outline>
		<contour>
			<point x="50" y="272" type="line"/>
			<point x="104" y="266"/>
			<point x="159" y="245"/>
			<point x="159" y="190" type="curve" smooth="yes"/>
			<point x="159" y="113"/>
			<point x="69" y="30"/>
			<point x="69" y="-71" type="curve" smooth="yes"/>
			<point x="69" y="-128"/>
			<point x="104" y="-160"/>
			<point x="198" y="-160" type="curve" smooth="yes"/>
			<point x="234" y="-160" type="line"/>
			<point x="236" y="-150" type="line"/>
			<point x="200" y="-147" type="line" smooth="yes"/>
			<point x="119" y="-141"/>
			<point x="91" y="-117"/>
			<point x="91" y="-69" type="curve" smooth="yes"/>
			<point x="91" y="29"/>
			<point x="176" y="109"/>
			<point x="176" y="190" type="curve" smooth="yes"/>
			<point x="176" y="247"/>
			<point x="128" y="273"/>
			<point x="67" y="280" type="curve"/>
			<point x="67" y="276" type="line"/>
			<point x="150" y="286"/>
			<point x="217" y="321"/>
			<point x="217" y="419" type="curve" smooth="yes"/>
			<point x="217" y="458"/>
			<point x="206" y="503"/>
			<point x="206" y="546" type="curve" smooth="yes"/>
			<point x="206" y="657"/>
			<point x="245" y="693"/>
			<point x="358" y="703" type="curve" smooth="yes"/>
			<point x="394" y="706" type="line"/>
			<point x="396" y="716" type="line"/>
			<point x="360" y="716" type="line" smooth="yes"/>
			<point x="232" y="716"/>
			<point x="185" y="652"/>
			<point x="185" y="548" type="curve" smooth="yes"/>
			<point x="185" y="498"/>
			<point x="199" y="454"/>
			<point x="199" y="411" type="curve" smooth="yes"/>
			<point x="199" y="321"/>
			<point x="123" y="291"/>
			<point x="52" y="284" type="curve"/>
		</contour>
	</outline>
</glyph>
<glyph name="bar" format="2">
	<unicode hex="007C"/>
	<advance width="236"/>
	<outline>
		<contour>
			<point x="128" y="-252" type="line"/>
			<point x="148" y="-252" type="line"/>
			<point x="148" y="748" type="line"/>
			<point x="128" y="748" type="line"/>
		</contour>
	</outline>
</glyph>
<glyph name="asciitilde" format="2">
	<unicode hex="007E"/>
	<advance width="496"/>
	<outline>
		<contour>
			<point x="295" y="341" type="curve" smooth="yes"/>
			<point x="267" y="366"/>
			<point x="239" y="392"/>
			<point x="196" y="392" type="curve" smooth="yes"/>
			<point x="141" y="392"/>
			<point x="105" y="352"/>
			<point x="99" y="292" type="curve"/>
			<point x="113" y="288" type="line"/>
			<point x="122" y="350"/>
			<point x="151" y="376"/>
			<point x="196" y="376" type="curve" smooth="yes"/>
			<point x="231" y="376"/>
			<point x="256" y="354"/>
			<point x="281" y="331" type="curve" smooth="yes"/>
			<point x="309" y="306"/>
			<point x="337" y="280"/>
			<point x="380" y="280" type="curve" smooth="yes"/>
			<point x="435" y="280"/>
			<point x="471" y="320"/>
			<point x="477" y="380" type="curve"/>
			<point x="463" y="384" type="line"/>
			<point x="454" y="322"/>
			<point x="425" y="296"/>
			<point x="380" y="296" type="curve" smooth="yes"/>
			<point x="345" y="296"/>
			<point x="320" y="318"/>
		</contour>
	</outline>
</glyph>
<glyph name="cent" format="2">
	<unicode hex="00A2"/>
	<advance width="460"/>
	<outline>
		<contour>
			<point x="99" y="258" type="curve" smooth="yes"/>
			<point x="99" y="144"/>
			<point x="166" y="80"/>
			<point x="256" y="80" type="curve" smooth="yes"/>
			<point x="312" y="80"/>
			<point x="371" y="105"/>
			<point x="417" y="156" type="curve"/>
			<point x="412" y="163" type="line"/>
			<point x="367" y="122"/>
			<point x="315" y="100"/>
			<point x="259" y="100" type="curve" smooth="yes"/>
			<point x="176" y="100"/>
			<point x="124" y="163"/>
			<point x="124" y="261" type="curve" smooth="yes"/>
			<point x="124" y="434"/>
			<point x="236" y="540"/>
			<point x="337" y="540" type="curve" smooth="yes"/>
			<point x="383" y="540"/>
			<point x="414" y="526"/>
			<point x="439" y="496" type="curve"/>
			<point x="425" y="523" type="line"/>
			<point x="431" y="438" type="line" smooth="yes"/>
			<point x="432" y="422"/>
			<point x="439" y="416"/>
			<point x="450" y="416" type="curve" smooth="yes"/>
			<point x="460" y="416"/>
			<point x="468" y="422"/>
			<point x="470" y="434" type="curve"/>
			<point x="465" y="517"/>
			<point x="409" y="552"/>
			<point x="339" y="552" type="curve" smooth="yes"/>
			<point x="228" y="552"/>
			<point x="99" y="444"/>
		</contour>
		<contour>
			<point x="226" y="-52" type="line"/>
			<point x="372" y="668" type="line"/>
			<point x="358" y="668" type="line"/>
			<point x="212" y="-52" type="line"/>
		</contour>
	</outline>
</glyph>
<glyph name="sterling" format="2">
	<unicode hex="00A3"/>
	<advance width="460"/>
	<outline>
		<contour>
			<point x="36" y="0" type="line"/>
			<point x="420" y="0" type="line"/>
			<point x="424" y="23" type="line"/>
			<point x="56" y="23" type="line"/>
			<point x="55" y="19" type="line"/>
			<point x="155" y="87"/>
			<point x="208" y="179"/>
			<point x="208" y="294" type="curve" smooth="yes"/>
			<point x="208" y="350"/>
			<point x="195" y="400"/>
			<point x="195" y="468" type="curve" smooth="yes"/>
			<point x="195" y="559"/>
			<point x="238" y="655"/>
			<point x="362" y="655" type="curve" smooth="yes"/>
			<point x="412" y="655"/>
			<point x="446" y="646"/>
			<point x="478" y="596" type="curve"/>
			<point x="461" y="629" type="line"/>
			<point x="462" y="602"/>
			<point x="464" y="576"/>
			<point x="465" y="549" type="curve" smooth="yes"/>
			<point x="466" y="530"/>
			<point x="477" y="524"/>
			<point x="486" y="524" type="curve" smooth="yes"/>
			<point x="498" y="524"/>
			<point x="504" y="531"/>
			<point x="506" y="544" type="curve"/>
			<point x="497" y="623"/>
			<point x="448" y="668"/>
			<point x="365" y="668" type="curve" smooth="yes"/>
			<point x="240" y="668"/>
			<point x="170" y="583"/>
			<point x="170" y="458" type="curve" smooth="yes"/>
			<point x="170" y="398"/>
			<point x="188" y="345"/>
			<point x="188" y="284" type="curve" smooth="yes"/>
			<point x="188" y="173"/>
			<point x="140" y="88"/>
			<point x="39" y="16" type="curve"/>
		</contour>
		<contour>
			<point x="86" y="309" type="line"/>
			<point x="410" y="309" type="line"/>
			<point x="413" y="321" type="line"/>
			<point x="89" y="321" type="line"/>
		</contour>
	</outline>
</glyph>
<glyph name="currency" format="2">
	<unicode hex="00A4"/>
	<advance width="460"/>
	<outline>
		<contour>
			<point x="348" y="432" type="line"/>
			<point x="384" y="464" type="line" smooth="yes"/>
			<point x="409" y="487"/>
			<point x="428" y="497"/>
			<point x="428" y="512" type="curve" smooth="yes"/>
			<point x="428" y="518"/>
			<point x="424" y="524"/>
			<point x="416" y="524" type="curve" smooth="yes"/>
			<point x="403" y="524"/>
			<point x="390" y="501"/>
			<point x="368" y="472" type="curve" smooth="yes"/>
			<point x="340" y="436" type="line"/>
		</contour>
		<contour>
			<point x="131" y="336" type="curve" smooth="yes"/>
			<point x="131" y="410"/>
			<point x="183" y="463"/>
			<point x="252" y="463" type="curve"/>
			<point x="321" y="463"/>
			<point x="373" y="410"/>
			<point x="373" y="336" type="curve"/>
			<point x="373" y="262"/>
			<point x="321" y="209"/>
			<point x="252" y="209" type="curve"/>
			<point x="183" y="209"/>
			<point x="131" y="262"/>
		</contour>
		<contour>
			<point x="116" y="336" type="curve" smooth="yes"/>
			<point x="116" y="251"/>
			<point x="179" y="196"/>
			<point x="252" y="196" type="curve"/>
			<point x="325" y="196"/>
			<point x="388" y="251"/>
			<point x="388" y="336" type="curve"/>
			<point x="388" y="421"/>
			<point x="325" y="476"/>
			<point x="252" y="476" type="curve"/>
			<point x="179" y="476"/>
			<point x="116" y="421"/>
		</contour>
		<contour>
			<point x="164" y="436" type="line"/>
			<point x="136" y="472" type="line" smooth="yes"/>
			<point x="114" y="501"/>
			<point x="101" y="524"/>
			<point x="88" y="524" type="curve" smooth="yes"/>
			<point x="80" y="524"/>
			<point x="76" y="518"/>
			<point x="76" y="512" type="curve" smooth="yes"/>
			<point x="76" y="497"/>
			<point x="95" y="487"/>
			<point x="120" y="464" type="curve" smooth="yes"/>
			<point x="156" y="432" type="line"/>
		</contour>
		<contour>
			<point x="156" y="240" type="line"/>
			<point x="120" y="208" type="line" smooth="yes"/>
			<point x="95" y="185"/>
			<point x="76" y="175"/>
			<point x="76" y="160" type="curve" smooth="yes"/>
			<point x="76" y="154"/>
			<point x="80" y="148"/>
			<point x="88" y="148" type="curve" smooth="yes"/>
			<point x="101" y="148"/>
			<point x="114" y="171"/>
			<point x="136" y="200" type="curve" smooth="yes"/>
			<point x="164" y="236" type="line"/>
		</contour>
		<contour>
			<point x="340" y="236" type="line"/>
			<point x="368" y="200" type="line" smooth="yes"/>
			<point x="390" y="171"/>
			<point x="403" y="148"/>
			<point x="416" y="148" type="curve" smooth="yes"/>
			<point x="424" y="148"/>
			<point x="428" y="154"/>
			<point x="428" y="160" type="curve" smooth="yes"/>
			<point x="428" y="175"/>
			<point x="409" y="185"/>
			<point x="384" y="208" type="curve" smooth="yes"/>
			<point x="348" y="240" type="line"/>
		</contour>
	</outline>
</glyph>
<glyph name="yen" format="2">
	<unicode hex="00A5"/>
	<advance width="460"/>
	<outline>
		<contour>
			<point x="62" y="172" type="line"/>
			<point x="406" y="172" type="line"/>
			<point x="409" y="184" type="line"/>
			<point x="65" y="184" type="line"/>
		</contour>
		<contour>
			<point x="84" y="280" type="line"/>
			<point x="428" y="280" type="line"/>
			<point x="431" y="292" type="line"/>
			<point x="87" y="292" type="line"/>
		</contour>
		<contour>
			<point x="199" y="16" type="line"/>
			<point x="85" y="10" type="line"/>
			<point x="83" y="0" type="line"/>
			<point x="323" y="0" type="line"/>
			<point x="325" y="10" type="line"/>
			<point x="213" y="16" type="line"/>
		</contour>
		<contour>
			<point x="171" y="640" type="line"/>
			<point x="180" y="640" type="line"/>
			<point x="277" y="646" type="line"/>
			<point x="279" y="656" type="line"/>
			<point x="97" y="656" type="line"/>
			<point x="95" y="646" type="line"/>
		</contour>
		<contour>
			<point x="486" y="640" type="line"/>
			<point x="496" y="640" type="line"/>
			<point x="569" y="646" type="line"/>
			<point x="571" y="656" type="line"/>
			<point x="396" y="656" type="line"/>
			<point x="394" y="646" type="line"/>
		</contour>
		<contour>
			<point x="190" y="0" type="line"/>
			<point x="217" y="0" type="line"/>
			<point x="235" y="102"/>
			<point x="255" y="200"/>
			<point x="275" y="299" type="curve"/>
			<point x="250" y="299" type="line"/>
		</contour>
		<contour>
			<point x="259" y="265" type="line"/>
			<point x="512" y="656" type="line"/>
			<point x="495" y="656" type="line"/>
			<point x="265" y="296" type="line"/>
			<point x="269" y="296" type="line"/>
			<point x="180" y="656" type="line"/>
			<point x="155" y="656" type="line"/>
			<point x="252" y="265" type="line"/>
		</contour>
	</outline>
</glyph>
<glyph name="brokenbar" format="2">
	<unicode hex="00A6"/>
	<advance width="240"/>
	<outline>
		<contour>
			<point x="123" y="-250" type="line"/>
			<point x="149" y="-250" type="line"/>
			<point x="149" y="200" type="line"/>
			<point x="123" y="200" type="line"/>
		</contour>
		<contour>
			<point x="149" y="320" type="line"/>
			<point x="149" y="750" type="line"/>
			<point x="123" y="750" type="line"/>
			<point x="123" y="320" type="line"/>
		</contour>
	</outline>
</glyph>
<glyph name="section" format="2">
  <advance width="464"/>
  <unicode hex="00A7"/>
  <outline>
    <contour>
      <point x="172" y="-108" type="curve" smooth="yes"/>
      <point x="260" y="-108"/>
      <point x="316" y="-55"/>
      <point x="316" y="19" type="curve" smooth="yes"/>
      <point x="316" y="78"/>
      <point x="279" y="114"/>
      <point x="236" y="145" type="curve" smooth="yes"/>
      <point x="195" y="175" type="line" smooth="yes"/>
      <point x="154" y="205"/>
      <point x="126" y="242"/>
      <point x="126" y="295" type="curve" smooth="yes"/>
      <point x="126" y="372"/>
      <point x="185" y="430"/>
      <point x="306" y="435" type="curve"/>
      <point x="288" y="452" type="line"/>
      <point x="288" y="443" type="line"/>
      <point x="175" y="435"/>
      <point x="104" y="382"/>
      <point x="104" y="291" type="curve" smooth="yes"/>
      <point x="104" y="229"/>
      <point x="139" y="189"/>
      <point x="185" y="156" type="curve" smooth="yes"/>
      <point x="226" y="126" type="line" smooth="yes"/>
      <point x="264" y="98"/>
      <point x="294" y="66"/>
      <point x="294" y="16" type="curve" smooth="yes"/>
      <point x="294" y="-49"/>
      <point x="251" y="-96"/>
      <point x="172" y="-96" type="curve" smooth="yes"/>
      <point x="134" y="-96"/>
      <point x="110" y="-85"/>
      <point x="92" y="-74" type="curve"/>
      <point x="115" y="-93" type="line"/>
      <point x="84" y="-31" type="line" smooth="yes"/>
      <point x="77" y="-16"/>
      <point x="70" y="-13"/>
      <point x="61" y="-13" type="curve" smooth="yes"/>
      <point x="52" y="-13"/>
      <point x="44" y="-21"/>
      <point x="44" y="-30" type="curve"/>
      <point x="55" y="-68"/>
      <point x="100" y="-108"/>
    </contour>
    <contour>
      <point x="348" y="690" type="curve" smooth="yes"/>
      <point x="264" y="690"/>
      <point x="208" y="637"/>
      <point x="208" y="563" type="curve" smooth="yes"/>
      <point x="208" y="504"/>
      <point x="246" y="468"/>
      <point x="288" y="437" type="curve" smooth="yes"/>
      <point x="329" y="407" type="line" smooth="yes"/>
      <point x="370" y="377"/>
      <point x="398" y="340"/>
      <point x="398" y="287" type="curve" smooth="yes"/>
      <point x="398" y="210"/>
      <point x="339" y="152"/>
      <point x="218" y="147" type="curve"/>
      <point x="236" y="130" type="line"/>
      <point x="236" y="139" type="line"/>
      <point x="349" y="147"/>
      <point x="420" y="200"/>
      <point x="420" y="291" type="curve" smooth="yes"/>
      <point x="420" y="353"/>
      <point x="385" y="393"/>
      <point x="339" y="426" type="curve" smooth="yes"/>
      <point x="298" y="456" type="line" smooth="yes"/>
      <point x="260" y="484"/>
      <point x="230" y="516"/>
      <point x="230" y="566" type="curve" smooth="yes"/>
      <point x="230" y="631"/>
      <point x="273" y="678"/>
      <point x="348" y="678" type="curve" smooth="yes"/>
      <point x="374" y="678"/>
      <point x="398" y="671"/>
      <point x="416" y="660" type="curve"/>
      <point x="393" y="679" type="line"/>
      <point x="424" y="617" type="line" smooth="yes"/>
      <point x="431" y="602"/>
      <point x="438" y="599"/>
      <point x="447" y="599" type="curve" smooth="yes"/>
      <point x="456" y="599"/>
      <point x="464" y="607"/>
      <point x="464" y="616" type="curve"/>
      <point x="453" y="654"/>
      <point x="408" y="690"/>
    </contour>
  </outline>
</glyph>
<glyph name="copyright" format="2">
	<unicode hex="00A9"/>
	<advance width="760"/>
	<outline>
		<contour>
			<point x="373" y="-13" type="curve"/>
			<point x="577" y="-13"/>
			<point x="770" y="140"/>
			<point x="770" y="397" type="curve" smooth="yes"/>
			<point x="770" y="578"/>
			<point x="636" y="690"/>
			<point x="465" y="690" type="curve" smooth="yes"/>
			<point x="261" y="690"/>
			<point x="68" y="537"/>
			<point x="68" y="280" type="curve" smooth="yes"/>
			<point x="68" y="99"/>
			<point x="202" y="-13"/>
		</contour>
		<contour>
			<point x="373" y="2" type="curve"/>
			<point x="214" y="2"/>
			<point x="87" y="107"/>
			<point x="87" y="280" type="curve" smooth="yes"/>
			<point x="87" y="528"/>
			<point x="267" y="675"/>
			<point x="465" y="675" type="curve" smooth="yes"/>
			<point x="624" y="675"/>
			<point x="751" y="570"/>
			<point x="751" y="397" type="curve" smooth="yes"/>
			<point x="751" y="149"/>
			<point x="571" y="2"/>
		</contour>
		<contour>
			<point x="392" y="130" type="curve" smooth="yes"/>
			<point x="433" y="130"/>
			<point x="468" y="136"/>
			<point x="512" y="161" type="curve"/>
			<point x="530" y="251" type="line"/>
			<point x="522" y="251" type="line"/>
			<point x="488" y="157" type="line"/>
			<point x="498" y="166" type="line"/>
			<point x="461" y="145"/>
			<point x="427" y="140"/>
			<point x="393" y="140" type="curve" smooth="yes"/>
			<point x="316" y="140"/>
			<point x="264" y="201"/>
			<point x="264" y="300" type="curve" smooth="yes"/>
			<point x="264" y="418"/>
			<point x="341" y="543"/>
			<point x="462" y="543" type="curve" smooth="yes"/>
			<point x="504" y="543"/>
			<point x="529" y="537"/>
			<point x="556" y="520" type="curve"/>
			<point x="550" y="526" type="line"/>
			<point x="555" y="432" type="line"/>
			<point x="563" y="432" type="line"/>
			<point x="574" y="522" type="line"/>
			<point x="544" y="546"/>
			<point x="510" y="553"/>
			<point x="463" y="553" type="curve" smooth="yes"/>
			<point x="325" y="553"/>
			<point x="237" y="428"/>
			<point x="237" y="302" type="curve" smooth="yes"/>
			<point x="237" y="198"/>
			<point x="293" y="130"/>
		</contour>
	</outline>
</glyph>
<glyph name="logicalnot" format="2">
	<unicode hex="00AC"/>
	<advance width="496"/>
	<outline>
		<contour>
			<point x="76" y="364" type="line"/>
			<point x="491" y="364" type="line"/>
			<point x="483" y="372" type="line"/>
			<point x="483" y="176" type="line"/>
			<point x="500" y="176" type="line"/>
			<point x="500" y="380" type="line"/>
			<point x="76" y="380" type="line"/>
		</contour>
	</outline>
</glyph>
<glyph name="registered" format="2">
	<unicode hex="00AE"/>
	<advance width="458"/>
	<outline>
		<contour>
			<point x="276" y="318" type="curve"/>
			<point x="386" y="318"/>
			<point x="498" y="410"/>
			<point x="498" y="544" type="curve" smooth="yes"/>
			<point x="498" y="645"/>
			<point x="427" y="712"/>
			<point x="332" y="712" type="curve"/>
			<point x="222" y="712"/>
			<point x="110" y="620"/>
			<point x="110" y="486" type="curve" smooth="yes"/>
			<point x="110" y="385"/>
			<point x="181" y="318"/>
		</contour>
		<contour>
			<point x="275" y="330" type="curve"/>
			<point x="189" y="330"/>
			<point x="125" y="395"/>
			<point x="125" y="486" type="curve" smooth="yes"/>
			<point x="125" y="613"/>
			<point x="230" y="700"/>
			<point x="333" y="700" type="curve"/>
			<point x="419" y="700"/>
			<point x="483" y="635"/>
			<point x="483" y="544" type="curve" smooth="yes"/>
			<point x="483" y="417"/>
			<point x="378" y="330"/>
		</contour>
		<contour>
			<point x="384" y="421" type="curve"/>
			<point x="384" y="426" type="line"/>
			<point x="351" y="429" type="line"/>
			<point x="362" y="426" type="line"/>
			<point x="342" y="480" type="line" smooth="yes"/>
			<point x="331" y="508"/>
			<point x="321" y="517"/>
			<point x="291" y="518" type="curve"/>
			<point x="290" y="514" type="line"/>
			<point x="331" y="516"/>
			<point x="377" y="531"/>
			<point x="377" y="576" type="curve" smooth="yes"/>
			<point x="377" y="603"/>
			<point x="356" y="620"/>
			<point x="316" y="620" type="curve" smooth="yes"/>
			<point x="276" y="620" type="line"/>
			<point x="275" y="612" type="line"/>
			<point x="312" y="612" type="line" smooth="yes"/>
			<point x="343" y="612"/>
			<point x="355" y="596"/>
			<point x="355" y="575" type="curve" smooth="yes"/>
			<point x="355" y="539"/>
			<point x="327" y="521"/>
			<point x="296" y="521" type="curve" smooth="yes"/>
			<point x="258" y="521" type="line"/>
			<point x="257" y="513" type="line"/>
			<point x="282" y="513" type="line" smooth="yes"/>
			<point x="306" y="513"/>
			<point x="311" y="508"/>
			<point x="318" y="485" type="curve" smooth="yes"/>
			<point x="333" y="438" type="line" smooth="yes"/>
			<point x="337" y="424"/>
			<point x="342" y="419"/>
			<point x="363" y="419" type="curve" smooth="yes"/>
			<point x="370" y="419"/>
			<point x="378" y="420"/>
		</contour>
		<contour>
			<point x="232" y="421" type="line"/>
			<point x="254" y="421" type="line"/>
			<point x="290" y="620" type="line"/>
			<point x="268" y="620" type="line"/>
		</contour>
		<contour>
			<point x="241" y="616" type="line"/>
			<point x="273" y="612" type="line"/>
			<point x="282" y="612" type="line"/>
			<point x="283" y="620" type="line"/>
			<point x="241" y="620" type="line"/>
		</contour>
		<contour>
			<point x="205" y="421" type="line"/>
			<point x="280" y="421" type="line"/>
			<point x="280" y="426" type="line"/>
			<point x="248" y="429" type="line"/>
			<point x="239" y="429" type="line"/>
			<point x="205" y="426" type="line"/>
		</contour>
	</outline>
</glyph>
<glyph name="degree" format="2">
	<unicode hex="00B0"/>
	<advance width="292"/>
	<outline>
		<contour>
			<point x="234" y="482" type="curve"/>
			<point x="183" y="482"/>
			<point x="143" y="519"/>
			<point x="143" y="576" type="curve"/>
			<point x="143" y="633"/>
			<point x="183" y="670"/>
			<point x="234" y="670" type="curve" smooth="yes"/>
			<point x="285" y="670"/>
			<point x="325" y="633"/>
			<point x="325" y="576" type="curve" smooth="yes"/>
			<point x="325" y="519"/>
			<point x="285" y="482"/>
		</contour>
		<contour>
			<point x="234" y="464" type="curve"/>
			<point x="296" y="464"/>
			<point x="346" y="509"/>
			<point x="346" y="576" type="curve" smooth="yes"/>
			<point x="346" y="643"/>
			<point x="296" y="688"/>
			<point x="234" y="688" type="curve"/>
			<point x="172" y="688"/>
			<point x="122" y="643"/>
			<point x="122" y="576" type="curve"/>
			<point x="122" y="509"/>
			<point x="172" y="464"/>
		</contour>
	</outline>
</glyph>
<glyph name="two.sups" format="2">
	<unicode hex="00B2"/>
	<advance width="311"/>
	<outline>
		<contour>
			<point x="83" y="436" type="line"/>
			<point x="325" y="436" type="line"/>
			<point x="329" y="456" type="line"/>
			<point x="98" y="456" type="line"/>
			<point x="94" y="448" type="line"/>
			<point x="223" y="564" type="line" smooth="yes"/>
			<point x="334" y="663"/>
			<point x="374" y="706"/>
			<point x="373" y="766" type="curve" smooth="yes"/>
			<point x="372" y="816"/>
			<point x="330" y="851"/>
			<point x="268" y="851" type="curve" smooth="yes"/>
			<point x="209" y="851"/>
			<point x="162" y="820"/>
			<point x="149" y="762" type="curve"/>
			<point x="151" y="755"/>
			<point x="156" y="751"/>
			<point x="163" y="751" type="curve" smooth="yes"/>
			<point x="174" y="751"/>
			<point x="179" y="757"/>
			<point x="183" y="771" type="curve" smooth="yes"/>
			<point x="200" y="828" type="line"/>
			<point x="179" y="807" type="line"/>
			<point x="205" y="833"/>
			<point x="233" y="842"/>
			<point x="263" y="842" type="curve" smooth="yes"/>
			<point x="315" y="842"/>
			<point x="349" y="811"/>
			<point x="350" y="766" type="curve" smooth="yes"/>
			<point x="351" y="710"/>
			<point x="321" y="675"/>
			<point x="220" y="579" type="curve" smooth="yes"/>
			<point x="85" y="449" type="line"/>
		</contour>
	</outline>
</glyph>
<glyph name="three.sups" format="2">
	<unicode hex="00B3"/>
	<advance width="311"/>
	<outline>
		<contour>
			<point x="202" y="423" type="curve" smooth="yes"/>
			<point x="296" y="423"/>
			<point x="343" y="484"/>
			<point x="343" y="543" type="curve" smooth="yes"/>
			<point x="343" y="595"/>
			<point x="301" y="643"/>
			<point x="223" y="643" type="curve"/>
			<point x="225" y="641" type="line"/>
			<point x="320" y="641"/>
			<point x="367" y="700"/>
			<point x="367" y="755" type="curve" smooth="yes"/>
			<point x="367" y="802"/>
			<point x="329" y="845"/>
			<point x="260" y="845" type="curve" smooth="yes"/>
			<point x="205" y="845"/>
			<point x="158" y="815"/>
			<point x="147" y="763" type="curve"/>
			<point x="149" y="757"/>
			<point x="154" y="752"/>
			<point x="162" y="752" type="curve" smooth="yes"/>
			<point x="172" y="752"/>
			<point x="178" y="758"/>
			<point x="182" y="772" type="curve" smooth="yes"/>
			<point x="197" y="826" type="line"/>
			<point x="177" y="805" type="line"/>
			<point x="205" y="828"/>
			<point x="228" y="836"/>
			<point x="255" y="836" type="curve" smooth="yes"/>
			<point x="314" y="836"/>
			<point x="344" y="797"/>
			<point x="344" y="754" type="curve" smooth="yes"/>
			<point x="344" y="705"/>
			<point x="318" y="647"/>
			<point x="195" y="647" type="curve"/>
			<point x="194" y="638" type="line"/>
			<point x="289" y="638"/>
			<point x="320" y="599"/>
			<point x="320" y="546" type="curve" smooth="yes"/>
			<point x="320" y="488"/>
			<point x="281" y="431"/>
			<point x="205" y="431" type="curve" smooth="yes"/>
			<point x="172" y="431"/>
			<point x="136" y="439"/>
			<point x="117" y="464" type="curve"/>
			<point x="125" y="448" type="line"/>
			<point x="123" y="506" type="line" smooth="yes"/>
			<point x="122" y="521"/>
			<point x="115" y="526"/>
			<point x="107" y="526" type="curve" smooth="yes"/>
			<point x="98" y="526"/>
			<point x="92" y="521"/>
			<point x="91" y="512" type="curve"/>
			<point x="93" y="446"/>
			<point x="142" y="423"/>
		</contour>
	</outline>
</glyph>
<glyph name="paragraph" format="2">
	<unicode hex="00B6"/>
	<advance width="568"/>
	<outline>
		<contour>
			<point x="509" y="676" type="line"/>
			<point x="505" y="658" type="line"/>
			<point x="515" y="658" type="line"/>
			<point x="630" y="666" type="line"/>
			<point x="632" y="676" type="line"/>
		</contour>
		<contour>
			<point x="353" y="-128" type="line"/>
			<point x="378" y="-128" type="line"/>
			<point x="392" y="-40"/>
			<point x="416" y="88"/>
			<point x="436" y="196" type="curve" smooth="yes"/>
			<point x="526" y="676" type="line"/>
			<point x="503" y="676" type="line"/>
		</contour>
		<contour>
			<point x="434" y="660" type="line"/>
			<point x="506" y="660" type="line"/>
			<point x="509" y="676" type="line"/>
			<point x="445" y="676" type="line" smooth="yes"/>
			<point x="261" y="676"/>
			<point x="114" y="554"/>
			<point x="114" y="374" type="curve" smooth="yes"/>
			<point x="114" y="248"/>
			<point x="207" y="176"/>
			<point x="344" y="176" type="curve"/>
		</contour>
	</outline>
</glyph>
<glyph name="one.sups" format="2">
	<unicode hex="00B9"/>
	<advance width="311"/>
	<outline>
		<contour>
			<point x="95" y="436" type="line"/>
			<point x="313" y="436" type="line"/>
			<point x="314" y="443" type="line"/>
			<point x="210" y="450" type="line"/>
			<point x="202" y="450" type="line"/>
			<point x="96" y="443" type="line"/>
		</contour>
		<contour>
			<point x="192" y="436" type="line"/>
			<point x="214" y="436" type="line"/>
			<point x="267" y="690" type="line" smooth="yes"/>
			<point x="279" y="747"/>
			<point x="289" y="798"/>
			<point x="300" y="844" type="curve"/>
			<point x="297" y="847" type="line"/>
			<point x="173" y="815" type="line"/>
			<point x="172" y="808" type="line"/>
			<point x="284" y="826" type="line"/>
			<point x="274" y="836" type="line"/>
		</contour>
	</outline>
</glyph>
<glyph name="AE" format="2">
	<unicode hex="00C6"/>
	<advance width="866"/>
	<outline>
		<contour>
			<point x="457" y="0" type="line"/>
			<point x="787" y="0" type="line"/>
			<point x="823" y="172" type="line"/>
			<point x="813" y="172" type="line"/>
			<point x="764" y="7" type="line"/>
			<point x="777" y="13" type="line"/>
			<point x="459" y="13" type="line"/>
		</contour>
		<contour>
			<point x="865" y="512" type="line"/>
			<point x="875" y="512" type="line"/>
			<point x="894" y="676" type="line"/>
			<point x="576" y="676" type="line"/>
			<point x="574" y="663" type="line"/>
			<point x="879" y="663" type="line"/>
			<point x="869" y="670" type="line"/>
		</contour>
		<contour>
			<point x="-20" y="0" type="line"/>
			<point x="171" y="0" type="line"/>
			<point x="172" y="10" type="line"/>
			<point x="76" y="16" type="line"/>
			<point x="66" y="16" type="line"/>
			<point x="-19" y="10" type="line"/>
		</contour>
		<contour>
			<point x="436" y="0" type="line"/>
			<point x="464" y="0" type="line"/>
			<point x="480" y="104"/>
			<point x="500" y="209"/>
			<point x="519" y="313" type="curve" smooth="yes"/>
			<point x="587" y="676" type="line"/>
			<point x="559" y="676" type="line"/>
			<point x="555" y="652"/>
			<point x="526" y="478"/>
			<point x="504" y="364" type="curve" smooth="yes"/>
		</contour>
		<contour>
			<point x="692" y="237" type="line"/>
			<point x="702" y="237" type="line"/>
			<point x="740" y="453" type="line"/>
			<point x="730" y="453" type="line"/>
			<point x="700" y="349" type="line"/>
			<point x="699" y="341" type="line"/>
		</contour>
		<contour>
			<point x="342" y="0" type="line"/>
			<point x="461" y="0" type="line"/>
			<point x="461" y="16" type="line"/>
			<point x="443" y="16" type="line"/>
			<point x="344" y="10" type="line"/>
		</contour>
		<contour>
			<point x="446" y="666" type="line"/>
			<point x="546" y="660" type="line"/>
			<point x="580" y="660" type="line"/>
			<point x="582" y="676" type="line"/>
			<point x="448" y="676" type="line"/>
		</contour>
		<contour>
			<point x="50" y="0" type="line"/>
			<point x="68" y="0" type="line"/>
			<point x="561" y="676" type="line"/>
			<point x="544" y="676" type="line"/>
		</contour>
		<contour>
			<point x="238" y="250" type="line"/>
			<point x="494" y="250" type="line"/>
			<point x="488" y="263" type="line"/>
			<point x="248" y="263" type="line"/>
		</contour>
		<contour>
			<point x="516" y="338" type="line"/>
			<point x="710" y="338" type="line"/>
			<point x="713" y="351" type="line"/>
			<point x="519" y="351" type="line"/>
		</contour>
	</outline>
	<anchor name="aboveUC" x="704" y="692"/>
</glyph>
<glyph name="Idieresis" format="2">
	<unicode hex="00CF"/>
	<advance width="296"/>
	<outline>
		<contour>
			<point x="190" y="756" type="curve" smooth="yes"/>
			<point x="205" y="756"/>
			<point x="221" y="769"/>
			<point x="221" y="789" type="curve" smooth="yes"/>
			<point x="221" y="804"/>
			<point x="209" y="813"/>
			<point x="196" y="813" type="curve" smooth="yes"/>
			<point x="181" y="813"/>
			<point x="165" y="800"/>
			<point x="165" y="781" type="curve" smooth="yes"/>
			<point x="165" y="765"/>
			<point x="177" y="756"/>
		</contour>
		<contour>
			<point x="333" y="756" type="curve" smooth="yes"/>
			<point x="348" y="756"/>
			<point x="364" y="769"/>
			<point x="364" y="789" type="curve" smooth="yes"/>
			<point x="364" y="804"/>
			<point x="352" y="813"/>
			<point x="339" y="813" type="curve" smooth="yes"/>
			<point x="324" y="813"/>
			<point x="308" y="800"/>
			<point x="308" y="781" type="curve" smooth="yes"/>
			<point x="308" y="765"/>
			<point x="320" y="756"/>
		</contour>
		<component base="I"/>
	</outline>
</glyph>
<glyph name="Eth" format="2">
	<unicode hex="00D0"/>
	<advance width="624"/>
	<outline>
		<contour>
			<point x="366" y="341" type="line"/>
			<point x="368" y="354" type="line"/>
			<point x="57" y="354" type="line"/>
			<point x="55" y="341" type="line"/>
		</contour>
		<component base="D"/>
	</outline>
</glyph>
<glyph name="multiply" format="2">
	<unicode hex="00D7"/>
	<advance width="496"/>
	<outline>
		<contour>
			<point x="476" y="133" type="line"/>
			<point x="488" y="145" type="line"/>
			<point x="105" y="540" type="line"/>
			<point x="93" y="528" type="line"/>
		</contour>
		<contour>
			<point x="487" y="528" type="line"/>
			<point x="475" y="540" type="line"/>
			<point x="92" y="145" type="line"/>
			<point x="104" y="133" type="line"/>
		</contour>
	</outline>
</glyph>
<glyph name="Thorn" format="2">
	<unicode hex="00DE"/>
	<advance width="502"/>
	<outline>
		<contour>
			<point x="158" y="180" type="line"/>
			<point x="260" y="180" type="line" smooth="yes"/>
			<point x="426" y="180"/>
			<point x="524" y="261"/>
			<point x="524" y="384" type="curve" smooth="yes"/>
			<point x="524" y="477"/>
			<point x="461" y="536"/>
			<point x="326" y="536" type="curve" smooth="yes"/>
			<point x="226" y="536" type="line"/>
			<point x="224" y="523" type="line"/>
			<point x="324" y="523" type="line" smooth="yes"/>
			<point x="453" y="523"/>
			<point x="499" y="466"/>
			<point x="499" y="384" type="curve" smooth="yes"/>
			<point x="499" y="265"/>
			<point x="417" y="193"/>
			<point x="252" y="193" type="curve" smooth="yes"/>
			<point x="161" y="193" type="line"/>
		</contour>
		<contour>
			<point x="16" y="0" type="line"/>
			<point x="234" y="0" type="line"/>
			<point x="236" y="10" type="line"/>
			<point x="135" y="16" type="line"/>
			<point x="117" y="16" type="line"/>
			<point x="18" y="10" type="line"/>
		</contour>
		<contour>
			<point x="110" y="0" type="line"/>
			<point x="138" y="0" type="line"/>
			<point x="154" y="104"/>
			<point x="174" y="209"/>
			<point x="193" y="313" type="curve" smooth="yes"/>
			<point x="261" y="676" type="line"/>
			<point x="233" y="676" type="line"/>
			<point x="216" y="572"/>
			<point x="198" y="468"/>
			<point x="178" y="364" type="curve" smooth="yes"/>
		</contour>
		<contour>
			<point x="136" y="666" type="line"/>
			<point x="236" y="660" type="line"/>
			<point x="254" y="660" type="line"/>
			<point x="354" y="666" type="line"/>
			<point x="356" y="676" type="line"/>
			<point x="138" y="676" type="line"/>
		</contour>
	</outline>
</glyph>
<glyph name="germandbls" format="2">
	<unicode hex="00DF"/>
	<advance width="470"/>
	<outline>
		<contour>
			<point x="81" y="40" type="curve" smooth="yes"/>
			<point x="69" y="-37"/>
			<point x="51" y="-140"/>
			<point x="0" y="-200" type="curve" smooth="yes"/>
			<point x="-21" y="-225"/>
			<point x="-48" y="-242"/>
			<point x="-84" y="-247" type="curve"/>
			<point x="-84" y="-248" type="line"/>
			<point x="-71" y="-248" type="line"/>
			<point x="-85" y="-236" type="line" smooth="yes"/>
			<point x="-104" y="-219"/>
			<point x="-120" y="-202"/>
			<point x="-140" y="-202" type="curve" smooth="yes"/>
			<point x="-149" y="-202"/>
			<point x="-157" y="-206"/>
			<point x="-160" y="-216" type="curve"/>
			<point x="-158" y="-231"/>
			<point x="-130" y="-256"/>
			<point x="-91" y="-256" type="curve" smooth="yes"/>
			<point x="-48" y="-256"/>
			<point x="-14" y="-239"/>
			<point x="13" y="-211" type="curve" smooth="yes"/>
			<point x="66" y="-153"/>
			<point x="90" y="-51"/>
			<point x="105" y="40" type="curve" smooth="yes"/>
			<point x="130" y="193"/>
			<point x="154" y="347"/>
			<point x="179" y="500" type="curve" smooth="yes"/>
			<point x="197" y="610"/>
			<point x="241" y="745"/>
			<point x="359" y="745" type="curve" smooth="yes"/>
			<point x="420" y="745"/>
			<point x="450" y="704"/>
			<point x="450" y="651" type="curve" smooth="yes"/>
			<point x="450" y="585"/>
			<point x="406" y="548"/>
			<point x="361" y="513" type="curve" smooth="yes"/>
			<point x="312" y="474"/>
			<point x="260" y="437"/>
			<point x="260" y="366" type="curve" smooth="yes"/>
			<point x="260" y="312"/>
			<point x="296" y="277"/>
			<point x="333" y="241" type="curve" smooth="yes"/>
			<point x="370" y="204"/>
			<point x="408" y="166"/>
			<point x="408" y="108" type="curve" smooth="yes"/>
			<point x="408" y="49"/>
			<point x="362" y="0"/>
			<point x="290" y="0" type="curve" smooth="yes"/>
			<point x="266" y="0"/>
			<point x="241" y="3"/>
			<point x="218" y="20" type="curve"/>
			<point x="237" y="2" type="line"/>
			<point x="214" y="64" type="line" smooth="yes"/>
			<point x="210" y="76"/>
			<point x="203" y="80"/>
			<point x="194" y="80" type="curve" smooth="yes"/>
			<point x="184" y="80"/>
			<point x="178" y="71"/>
			<point x="178" y="62" type="curve"/>
			<point x="196" y="7"/>
			<point x="231" y="-12"/>
			<point x="290" y="-12" type="curve" smooth="yes"/>
			<point x="369" y="-12"/>
			<point x="428" y="39"/>
			<point x="428" y="114" type="curve" smooth="yes"/>
			<point x="428" y="179"/>
			<point x="387" y="220"/>
			<point x="348" y="258" type="curve" smooth="yes"/>
			<point x="313" y="292"/>
			<point x="280" y="325"/>
			<point x="280" y="372" type="curve" smooth="yes"/>
			<point x="280" y="433"/>
			<point x="324" y="468"/>
			<point x="370" y="504" type="curve" smooth="yes"/>
			<point x="419" y="543"/>
			<point x="470" y="581"/>
			<point x="470" y="652" type="curve" smooth="yes"/>
			<point x="470" y="714"/>
			<point x="435" y="758"/>
			<point x="360" y="758" type="curve" smooth="yes"/>
			<point x="225" y="758"/>
			<point x="173" y="611"/>
			<point x="155" y="500" type="curve" smooth="yes"/>
			<point x="130" y="347"/>
			<point x="106" y="193"/>
		</contour>
	</outline>
</glyph>
<glyph name="ae" format="2">
	<unicode hex="00E6"/>
	<advance width="664"/>
	<outline>
		<contour>
			<point x="140" y="-12" type="curve" smooth="yes"/>
			<point x="207" y="-12"/>
			<point x="269" y="45"/>
			<point x="329" y="126" type="curve"/>
			<point x="334" y="126" type="line"/>
			<point x="324" y="133" type="line"/>
			<point x="259" y="54"/>
			<point x="204" y="7"/>
			<point x="144" y="7" type="curve" smooth="yes"/>
			<point x="96" y="7"/>
			<point x="64" y="42"/>
			<point x="64" y="124" type="curve" smooth="yes"/>
			<point x="64" y="215"/>
			<point x="113" y="335"/>
			<point x="188" y="399" type="curve" smooth="yes"/>
			<point x="221" y="427"/>
			<point x="259" y="444"/>
			<point x="300" y="444" type="curve" smooth="yes"/>
			<point x="351" y="444"/>
			<point x="394" y="425"/>
			<point x="426" y="393" type="curve"/>
			<point x="431" y="404" type="line"/>
			<point x="396" y="440"/>
			<point x="352" y="460"/>
			<point x="304" y="460" type="curve" smooth="yes"/>
			<point x="176" y="460"/>
			<point x="40" y="274"/>
			<point x="40" y="118" type="curve" smooth="yes"/>
			<point x="40" y="17"/>
			<point x="93" y="-12"/>
		</contour>
		<component base="e" xOffset="264"/>
	</outline>
	<anchor name="aboveLC" x="394" y="468"/>
	<anchor name="belowLC" x="297" y="-20"/>
</glyph>
<glyph name="idieresis" format="2">
	<unicode hex="00EF"/>
	<advance width="262"/>
	<outline>
		<contour>
			<point x="138" y="603" type="curve" smooth="yes"/>
			<point x="153" y="603"/>
			<point x="169" y="616"/>
			<point x="169" y="636" type="curve" smooth="yes"/>
			<point x="169" y="651"/>
			<point x="157" y="660"/>
			<point x="144" y="660" type="curve" smooth="yes"/>
			<point x="129" y="660"/>
			<point x="113" y="647"/>
			<point x="113" y="628" type="curve" smooth="yes"/>
			<point x="113" y="612"/>
			<point x="125" y="603"/>
		</contour>
		<contour>
			<point x="289" y="603" type="curve" smooth="yes"/>
			<point x="304" y="603"/>
			<point x="320" y="616"/>
			<point x="320" y="636" type="curve" smooth="yes"/>
			<point x="320" y="651"/>
			<point x="308" y="660"/>
			<point x="295" y="660" type="curve" smooth="yes"/>
			<point x="280" y="660"/>
			<point x="264" y="647"/>
			<point x="264" y="628" type="curve" smooth="yes"/>
			<point x="264" y="612"/>
			<point x="276" y="603"/>
		</contour>
		<component base="dotlessi"/>
	</outline>
	<guideline x="94" y="0" angle="79" identifier="r1UW0fmoIh"/>
</glyph>
<glyph name="eth" format="2">
	<unicode hex="00F0"/>
	<advance width="452"/>
	<outline>
		<contour>
			<point x="186" y="-12" type="curve" smooth="yes"/>
			<point x="282" y="-12"/>
			<point x="419" y="102"/>
			<point x="419" y="402" type="curve" smooth="yes"/>
			<point x="419" y="549"/>
			<point x="366" y="672"/>
			<point x="231" y="760" type="curve"/>
			<point x="224" y="750" type="line"/>
			<point x="389" y="638"/>
			<point x="410" y="504"/>
			<point x="393" y="300" type="curve"/>
			<point x="396" y="298" type="line"/>
			<point x="396" y="405"/>
			<point x="341" y="460"/>
			<point x="266" y="460" type="curve" smooth="yes"/>
			<point x="134" y="460"/>
			<point x="44" y="288"/>
			<point x="44" y="152" type="curve" smooth="yes"/>
			<point x="44" y="37"/>
			<point x="110" y="-12"/>
		</contour>
		<contour>
			<point x="186" y="0" type="curve" smooth="yes"/>
			<point x="119" y="0"/>
			<point x="69" y="48"/>
			<point x="69" y="152" type="curve" smooth="yes"/>
			<point x="69" y="282"/>
			<point x="147" y="448"/>
			<point x="266" y="448" type="curve" smooth="yes"/>
			<point x="330" y="448"/>
			<point x="382" y="399"/>
			<point x="382" y="298" type="curve" smooth="yes"/>
			<point x="382" y="105"/>
			<point x="269" y="0"/>
		</contour>
		<contour>
			<point x="186" y="557" type="line"/>
			<point x="493" y="724" type="line"/>
			<point x="490" y="735" type="line"/>
			<point x="183" y="568" type="line"/>
		</contour>
	</outline>
</glyph>
<glyph name="divide" format="2">
	<unicode hex="00F7"/>
	<advance width="496"/>
	<outline>
		<contour>
			<point x="288" y="116" type="curve" smooth="yes"/>
			<point x="306" y="116"/>
			<point x="318" y="129"/>
			<point x="318" y="146" type="curve" smooth="yes"/>
			<point x="318" y="163"/>
			<point x="306" y="176"/>
			<point x="288" y="176" type="curve" smooth="yes"/>
			<point x="270" y="176"/>
			<point x="258" y="163"/>
			<point x="258" y="146" type="curve" smooth="yes"/>
			<point x="258" y="129"/>
			<point x="270" y="116"/>
		</contour>
		<contour>
			<point x="288" y="492" type="curve"/>
			<point x="306" y="492"/>
			<point x="318" y="505"/>
			<point x="318" y="522" type="curve" smooth="yes"/>
			<point x="318" y="539"/>
			<point x="306" y="552"/>
			<point x="288" y="552" type="curve"/>
			<point x="270" y="552"/>
			<point x="258" y="539"/>
			<point x="258" y="522" type="curve" smooth="yes"/>
			<point x="258" y="505"/>
			<point x="270" y="492"/>
		</contour>
		<component base="minus"/>
	</outline>
</glyph>
<glyph name="thorn" format="2">
	<unicode hex="00FE"/>
	<advance width="463"/>
	<outline>
		<contour>
			<point x="5" y="-260" type="line"/>
			<point x="28" y="-260" type="line"/>
			<point x="88" y="28" type="line"/>
			<point x="89" y="33" type="line"/>
			<point x="146" y="306" type="line"/>
			<point x="147" y="311" type="line"/>
			<point x="237" y="743" type="line"/>
			<point x="231" y="748" type="line"/>
			<point x="99" y="739" type="line"/>
			<point x="99" y="729" type="line"/>
			<point x="225" y="729" type="line"/>
			<point x="208" y="739" type="line"/>
			<point x="196" y="660"/>
			<point x="185" y="605"/>
			<point x="174" y="550" type="curve" smooth="yes"/>
		</contour>
		<contour>
			<point x="81" y="28" type="line"/>
			<point x="97" y="4"/>
			<point x="133" y="-12"/>
			<point x="167" y="-12" type="curve" smooth="yes"/>
			<point x="295" y="-12"/>
			<point x="431" y="174"/>
			<point x="431" y="330" type="curve" smooth="yes"/>
			<point x="431" y="431"/>
			<point x="378" y="460"/>
			<point x="331" y="460" type="curve" smooth="yes"/>
			<point x="260" y="460"/>
			<point x="194" y="381"/>
			<point x="130" y="292" type="curve"/>
			<point x="135" y="288" type="line"/>
			<point x="206" y="376"/>
			<point x="263" y="441"/>
			<point x="327" y="441" type="curve" smooth="yes"/>
			<point x="375" y="441"/>
			<point x="407" y="406"/>
			<point x="407" y="324" type="curve" smooth="yes"/>
			<point x="407" y="228"/>
			<point x="353" y="100"/>
			<point x="270" y="39" type="curve" smooth="yes"/>
			<point x="240" y="17"/>
			<point x="207" y="4"/>
			<point x="171" y="4" type="curve" smooth="yes"/>
			<point x="137" y="4"/>
			<point x="105" y="18"/>
			<point x="85" y="42" type="curve"/>
		</contour>
		<contour>
			<point x="13" y="-244" type="line"/>
			<point x="-86" y="-250" type="line"/>
			<point x="-88" y="-260" type="line"/>
			<point x="140" y="-260" type="line"/>
			<point x="142" y="-250" type="line"/>
			<point x="29" y="-244" type="line"/>
		</contour>
	</outline>
	<anchor name="aboveLC" x="224" y="748"/>
	<anchor name="belowLC" x="26" y="-264"/>
</glyph>
<glyph name="aogonek" format="2">
	<unicode hex="0105"/>
	<advance width="496"/>
	<outline>
		<contour>
			<point x="156" y="-12" type="curve" smooth="yes"/>
			<point x="227" y="-12"/>
			<point x="293" y="67"/>
			<point x="357" y="156" type="curve"/>
			<point x="361" y="156" type="line"/>
			<point x="352" y="160" type="line"/>
			<point x="281" y="72"/>
			<point x="224" y="7"/>
			<point x="160" y="7" type="curve" smooth="yes"/>
			<point x="112" y="7"/>
			<point x="80" y="42"/>
			<point x="80" y="124" type="curve" smooth="yes"/>
			<point x="80" y="212"/>
			<point x="125" y="326"/>
			<point x="196" y="391" type="curve" smooth="yes"/>
			<point x="230" y="424"/>
			<point x="271" y="444"/>
			<point x="316" y="444" type="curve" smooth="yes"/>
			<point x="350" y="444"/>
			<point x="382" y="430"/>
			<point x="402" y="406" type="curve"/>
			<point x="406" y="420" type="line"/>
			<point x="390" y="444"/>
			<point x="354" y="460"/>
			<point x="320" y="460" type="curve" smooth="yes"/>
			<point x="192" y="460"/>
			<point x="56" y="274"/>
			<point x="56" y="118" type="curve" smooth="yes"/>
			<point x="56" y="17"/>
			<point x="109" y="-12"/>
		</contour>
		<contour>
			<point x="302" y="-151" type="curve" smooth="yes"/>
			<point x="302" y="-194"/>
			<point x="329" y="-223"/>
			<point x="372" y="-223" type="curve" smooth="yes"/>
			<point x="405" y="-223"/>
			<point x="437" y="-206"/>
			<point x="459" y="-183" type="curve"/>
			<point x="454" y="-177" type="line"/>
			<point x="428" y="-198"/>
			<point x="405" y="-207"/>
			<point x="377" y="-207" type="curve" smooth="yes"/>
			<point x="341" y="-207"/>
			<point x="320" y="-182"/>
			<point x="320" y="-147" type="curve" smooth="yes"/>
			<point x="320" y="-82"/>
			<point x="375" y="-35"/>
			<point x="436" y="24" type="curve" smooth="yes"/>
			<point x="453" y="40"/>
			<point x="470" y="61"/>
			<point x="486" y="84" type="curve"/>
			<point x="478" y="90" type="line"/>
			<point x="441" y="43"/>
			<point x="403" y="7"/>
			<point x="369" y="7" type="curve" smooth="yes"/>
			<point x="355" y="7"/>
			<point x="344" y="16"/>
			<point x="344" y="30" type="curve" smooth="yes"/>
			<point x="344" y="51"/>
			<point x="349" y="77"/>
			<point x="353" y="96" type="curve" smooth="yes"/>
			<point x="427" y="453" type="line"/>
			<point x="421" y="458" type="line"/>
			<point x="398" y="423" type="line"/>
			<point x="397" y="421" type="line"/>
			<point x="339" y="140" type="line"/>
			<point x="338" y="135" type="line" smooth="yes"/>
			<point x="324" y="66"/>
			<point x="320" y="52"/>
			<point x="320" y="27" type="curve" smooth="yes"/>
			<point x="320" y="4"/>
			<point x="335" y="-12"/>
			<point x="362" y="-12" type="curve" smooth="yes"/>
			<point x="377" y="-12"/>
			<point x="385" y="-10"/>
			<point x="400" y="-1" type="curve"/>
			<point x="393" y="1" type="line"/>
			<point x="393" y="-6" type="line"/>
			<point x="348" y="-43"/>
			<point x="302" y="-89"/>
		</contour>
	</outline>
	<anchor name="belowLC" x="260" y="-24"/>
	<anchor name="aboveLC" x="302" y="476"/>
</glyph>
<glyph name="dcroat" format="2">
	<unicode hex="0111"/>
	<advance width="506"/>
	<outline>
		<contour>
			<point x="273" y="589" type="line"/>
			<point x="541" y="589" type="line"/>
			<point x="544" y="601" type="line"/>
			<point x="276" y="601" type="line"/>
		</contour>
		<contour>
			<point x="164" y="-12" type="curve" smooth="yes"/>
			<point x="235" y="-12"/>
			<point x="301" y="67"/>
			<point x="365" y="156" type="curve"/>
			<point x="360" y="160" type="line"/>
			<point x="289" y="72"/>
			<point x="232" y="7"/>
			<point x="168" y="7" type="curve" smooth="yes"/>
			<point x="120" y="7"/>
			<point x="88" y="42"/>
			<point x="88" y="124" type="curve" smooth="yes"/>
			<point x="88" y="215"/>
			<point x="137" y="335"/>
			<point x="212" y="399" type="curve" smooth="yes"/>
			<point x="245" y="427"/>
			<point x="283" y="444"/>
			<point x="324" y="444" type="curve" smooth="yes"/>
			<point x="358" y="444"/>
			<point x="390" y="430"/>
			<point x="410" y="406" type="curve"/>
			<point x="414" y="420" type="line"/>
			<point x="398" y="444"/>
			<point x="362" y="460"/>
			<point x="328" y="460" type="curve" smooth="yes"/>
			<point x="200" y="460"/>
			<point x="64" y="274"/>
			<point x="64" y="118" type="curve" smooth="yes"/>
			<point x="64" y="17"/>
			<point x="117" y="-12"/>
		</contour>
		<contour>
			<point x="361" y="96" type="curve" smooth="yes"/>
			<point x="496" y="743" type="line"/>
			<point x="490" y="748" type="line"/>
			<point x="358" y="739" type="line"/>
			<point x="358" y="729" type="line"/>
			<point x="475" y="729" type="line"/>
			<point x="471" y="738" type="line"/>
			<point x="406" y="423" type="line"/>
			<point x="405" y="421" type="line"/>
			<point x="338" y="96" type="line" smooth="yes"/>
			<point x="334" y="77"/>
			<point x="328" y="47"/>
			<point x="328" y="30" type="curve" smooth="yes"/>
			<point x="328" y="4"/>
			<point x="345" y="-12"/>
			<point x="372" y="-12" type="curve" smooth="yes"/>
			<point x="414" y="-12"/>
			<point x="456" y="30"/>
			<point x="494" y="84" type="curve"/>
			<point x="486" y="90" type="line"/>
			<point x="449" y="43"/>
			<point x="408" y="7"/>
			<point x="378" y="7" type="curve" smooth="yes"/>
			<point x="360" y="7"/>
			<point x="352" y="18"/>
			<point x="352" y="34" type="curve" smooth="yes"/>
			<point x="352" y="54"/>
			<point x="357" y="78"/>
		</contour>
	</outline>
	<guideline x="0" y="7" angle="0" identifier="mGq2PgjQEg"/>
</glyph>
<glyph name="eogonek" format="2">
	<unicode hex="0119"/>
	<advance width="400"/>
	<outline>
		<contour>
			<point x="214" y="-233" type="curve" smooth="yes"/>
			<point x="238" y="-233"/>
			<point x="263" y="-226"/>
			<point x="282" y="-212" type="curve"/>
			<point x="278" y="-204" type="line"/>
			<point x="260" y="-213"/>
			<point x="240" y="-217"/>
			<point x="219" y="-217" type="curve" smooth="yes"/>
			<point x="183" y="-217"/>
			<point x="163" y="-192"/>
			<point x="163" y="-157" type="curve" smooth="yes"/>
			<point x="163" y="-92"/>
			<point x="218" y="-35"/>
			<point x="279" y="24" type="curve"/>
			<point x="300" y="41"/>
			<point x="319" y="63"/>
			<point x="336" y="90" type="curve"/>
			<point x="328" y="96" type="line"/>
			<point x="289" y="42"/>
			<point x="243" y="8"/>
			<point x="188" y="8" type="curve" smooth="yes"/>
			<point x="122" y="8"/>
			<point x="72" y="58"/>
			<point x="72" y="152" type="curve" smooth="yes"/>
			<point x="72" y="282"/>
			<point x="165" y="448"/>
			<point x="284" y="448" type="curve" smooth="yes"/>
			<point x="323" y="448"/>
			<point x="349" y="423"/>
			<point x="349" y="384" type="curve" smooth="yes"/>
			<point x="349" y="300"/>
			<point x="242" y="226"/>
			<point x="59" y="177" type="curve"/>
			<point x="61" y="167" type="line"/>
			<point x="254" y="217"/>
			<point x="372" y="293"/>
			<point x="372" y="384" type="curve" smooth="yes"/>
			<point x="372" y="435"/>
			<point x="334" y="460"/>
			<point x="284" y="460" type="curve" smooth="yes"/>
			<point x="152" y="460"/>
			<point x="48" y="288"/>
			<point x="48" y="152" type="curve" smooth="yes"/>
			<point x="48" y="37"/>
			<point x="110" y="-12"/>
			<point x="182" y="-12" type="curve" smooth="yes"/>
			<point x="204" y="-12"/>
			<point x="226" y="-8"/>
			<point x="242" y="1" type="curve"/>
			<point x="242" y="0" type="line"/>
			<point x="195" y="-38"/>
			<point x="144" y="-96"/>
			<point x="144" y="-161" type="curve" smooth="yes"/>
			<point x="144" y="-204"/>
			<point x="171" y="-233"/>
		</contour>
	</outline>
	<anchor name="aboveLC" x="293" y="468"/>
</glyph>
<glyph name="Hbar" format="2">
	<unicode hex="0126"/>
	<advance width="692"/>
	<outline>
		<contour>
			<point x="16" y="0" type="line"/>
			<point x="234" y="0" type="line"/>
			<point x="236" y="10" type="line"/>
			<point x="135" y="16" type="line"/>
			<point x="117" y="16" type="line"/>
			<point x="18" y="10" type="line"/>
		</contour>
		<contour>
			<point x="110" y="0" type="line"/>
			<point x="138" y="0" type="line"/>
			<point x="154" y="104"/>
			<point x="174" y="209"/>
			<point x="193" y="313" type="curve" smooth="yes"/>
			<point x="261" y="676" type="line"/>
			<point x="233" y="676" type="line"/>
			<point x="216" y="572"/>
			<point x="198" y="468"/>
			<point x="178" y="364" type="curve" smooth="yes"/>
		</contour>
		<contour>
			<point x="136" y="666" type="line"/>
			<point x="236" y="660" type="line"/>
			<point x="254" y="660" type="line"/>
			<point x="354" y="666" type="line"/>
			<point x="356" y="676" type="line"/>
			<point x="138" y="676" type="line"/>
		</contour>
		<contour>
			<point x="412" y="0" type="line"/>
			<point x="630" y="0" type="line"/>
			<point x="632" y="10" type="line"/>
			<point x="531" y="16" type="line"/>
			<point x="513" y="16" type="line"/>
			<point x="414" y="10" type="line"/>
		</contour>
		<contour>
			<point x="506" y="0" type="line"/>
			<point x="534" y="0" type="line"/>
			<point x="550" y="104"/>
			<point x="570" y="209"/>
			<point x="589" y="313" type="curve" smooth="yes"/>
			<point x="657" y="676" type="line"/>
			<point x="629" y="676" type="line"/>
			<point x="612" y="572"/>
			<point x="594" y="468"/>
			<point x="574" y="364" type="curve" smooth="yes"/>
		</contour>
		<contour>
			<point x="532" y="666" type="line"/>
			<point x="632" y="660" type="line"/>
			<point x="650" y="660" type="line"/>
			<point x="750" y="666" type="line"/>
			<point x="752" y="676" type="line"/>
			<point x="534" y="676" type="line"/>
		</contour>
		<contour>
			<point x="184" y="330" type="line"/>
			<point x="578" y="330" type="line"/>
			<point x="581" y="344" type="line"/>
			<point x="187" y="344" type="line"/>
		</contour>
		<contour>
			<point x="92" y="493" type="line"/>
			<point x="728" y="493" type="line"/>
			<point x="731" y="506" type="line"/>
			<point x="95" y="506" type="line"/>
		</contour>
	</outline>
</glyph>
<glyph name="hbar" format="2">
	<unicode hex="0127"/>
	<advance width="504"/>
	<outline>
		<contour>
			<point x="370" y="-12" type="curve" smooth="yes"/>
			<point x="412" y="-12"/>
			<point x="454" y="30"/>
			<point x="492" y="84" type="curve"/>
			<point x="484" y="90" type="line"/>
			<point x="447" y="43"/>
			<point x="406" y="7"/>
			<point x="376" y="7" type="curve" smooth="yes"/>
			<point x="358" y="7"/>
			<point x="350" y="18"/>
			<point x="350" y="34" type="curve" smooth="yes"/>
			<point x="350" y="54"/>
			<point x="354" y="78"/>
			<point x="358" y="96" type="curve" smooth="yes"/>
			<point x="406" y="312" type="line" smooth="yes"/>
			<point x="414" y="349"/>
			<point x="418" y="371"/>
			<point x="418" y="400" type="curve" smooth="yes"/>
			<point x="418" y="433"/>
			<point x="400" y="460"/>
			<point x="358" y="460" type="curve" smooth="yes"/>
			<point x="298" y="460"/>
			<point x="215" y="395"/>
			<point x="136" y="316" type="curve"/>
			<point x="132" y="316" type="line"/>
			<point x="136" y="307" type="line"/>
			<point x="241" y="400"/>
			<point x="299" y="442"/>
			<point x="351" y="442" type="curve" smooth="yes"/>
			<point x="378" y="442"/>
			<point x="395" y="425"/>
			<point x="395" y="396" type="curve" smooth="yes"/>
			<point x="395" y="372"/>
			<point x="390" y="342"/>
			<point x="383" y="312" type="curve" smooth="yes"/>
			<point x="335" y="96" type="line" smooth="yes"/>
			<point x="331" y="77"/>
			<point x="326" y="47"/>
			<point x="326" y="30" type="curve" smooth="yes"/>
			<point x="326" y="4"/>
			<point x="343" y="-12"/>
		</contour>
		<contour>
			<point x="65" y="-4" type="line"/>
			<point x="88" y="0" type="line"/>
			<point x="101" y="77"/>
			<point x="112" y="131"/>
			<point x="125" y="196" type="curve" smooth="yes"/>
			<point x="151" y="322" type="line"/>
			<point x="152" y="328" type="line"/>
			<point x="238" y="743" type="line"/>
			<point x="232" y="748" type="line"/>
			<point x="100" y="739" type="line"/>
			<point x="100" y="729" type="line"/>
			<point x="218" y="729" type="line"/>
			<point x="210" y="737" type="line"/>
			<point x="200" y="674"/>
			<point x="188" y="613"/>
			<point x="175" y="550" type="curve" smooth="yes"/>
			<point x="61" y="0" type="line"/>
		</contour>
		<contour>
			<point x="100" y="589" type="line"/>
			<point x="368" y="589" type="line"/>
			<point x="371" y="601" type="line"/>
			<point x="103" y="601" type="line"/>
		</contour>
	</outline>
</glyph>
<glyph name="iogonek" format="2">
	<unicode hex="012F"/>
	<advance width="262"/>
	<outline>
		<contour>
			<point x="219" y="648" type="curve" smooth="yes"/>
			<point x="235" y="648"/>
			<point x="254" y="661"/>
			<point x="254" y="684" type="curve" smooth="yes"/>
			<point x="254" y="699"/>
			<point x="244" y="708"/>
			<point x="230" y="708" type="curve" smooth="yes"/>
			<point x="212" y="708"/>
			<point x="195" y="694"/>
			<point x="195" y="671" type="curve" smooth="yes"/>
			<point x="195" y="656"/>
			<point x="205" y="648"/>
		</contour>
		<contour>
			<point x="130" y="-223" type="curve" smooth="yes"/>
			<point x="163" y="-223"/>
			<point x="195" y="-206"/>
			<point x="217" y="-183" type="curve"/>
			<point x="212" y="-177" type="line"/>
			<point x="186" y="-198"/>
			<point x="163" y="-207"/>
			<point x="135" y="-207" type="curve" smooth="yes"/>
			<point x="99" y="-207"/>
			<point x="79" y="-186"/>
			<point x="79" y="-151" type="curve" smooth="yes"/>
			<point x="79" y="-86"/>
			<point x="132" y="-31"/>
			<point x="171" y="-2" type="curve" smooth="yes"/>
			<point x="199" y="18"/>
			<point x="227" y="47"/>
			<point x="253" y="84" type="curve"/>
			<point x="245" y="90" type="line"/>
			<point x="208" y="43"/>
			<point x="167" y="8"/>
			<point x="137" y="8" type="curve" smooth="yes"/>
			<point x="119" y="8"/>
			<point x="111" y="18"/>
			<point x="111" y="34" type="curve" smooth="yes"/>
			<point x="111" y="54"/>
			<point x="116" y="78"/>
			<point x="120" y="96" type="curve" smooth="yes"/>
			<point x="193" y="448" type="line"/>
			<point x="187" y="453" type="line"/>
			<point x="60" y="444" type="line"/>
			<point x="60" y="434" type="line"/>
			<point x="181" y="434" type="line"/>
			<point x="169" y="443" type="line"/>
			<point x="97" y="96" type="line" smooth="yes"/>
			<point x="93" y="77"/>
			<point x="87" y="47"/>
			<point x="87" y="30" type="curve" smooth="yes"/>
			<point x="87" y="4"/>
			<point x="104" y="-12"/>
			<point x="128" y="-12" type="curve" smooth="yes"/>
			<point x="134" y="-12"/>
			<point x="140" y="-11"/>
			<point x="146" y="-9" type="curve" smooth="yes"/>
			<point x="146" y="-9"/>
			<point x="146" y="-10"/>
			<point x="146" y="-10" type="curve"/>
			<point x="103" y="-47"/>
			<point x="60" y="-95"/>
			<point x="60" y="-155" type="curve" smooth="yes"/>
			<point x="60" y="-198"/>
			<point x="87" y="-223"/>
		</contour>
	</outline>
</glyph>
<glyph name="dotlessi" format="2">
	<unicode hex="0131"/>
	<advance width="262"/>
	<outline>
		<contour>
			<point x="75" y="30" type="curve" smooth="yes"/>
			<point x="75" y="4"/>
			<point x="92" y="-12"/>
			<point x="116" y="-12" type="curve" smooth="yes"/>
			<point x="161" y="-12"/>
			<point x="203" y="30"/>
			<point x="241" y="84" type="curve"/>
			<point x="233" y="90" type="line"/>
			<point x="196" y="43"/>
			<point x="155" y="8"/>
			<point x="125" y="8" type="curve" smooth="yes"/>
			<point x="107" y="8"/>
			<point x="99" y="18"/>
			<point x="99" y="34" type="curve" smooth="yes"/>
			<point x="99" y="54"/>
			<point x="104" y="78"/>
			<point x="108" y="96" type="curve" smooth="yes"/>
			<point x="181" y="448" type="line"/>
			<point x="175" y="453" type="line"/>
			<point x="44" y="444" type="line"/>
			<point x="44" y="434" type="line"/>
			<point x="161" y="434" type="line"/>
			<point x="157" y="442" type="line"/>
			<point x="85" y="96" type="line" smooth="yes"/>
			<point x="81" y="77"/>
			<point x="75" y="47"/>
		</contour>
	</outline>
	<anchor name="aboveLC" x="170" y="468"/>
	<anchor name="belowLC" x="116" y="-20"/>
	<anchor name="ogonek" x="148" y="0"/>
</glyph>
<glyph name="Lslash" format="2">
	<unicode hex="0141"/>
	<advance width="516"/>
	<outline>
		<contour>
			<point x="382" y="422" type="line"/>
			<point x="174" y="314" type="line"/>
			<point x="171" y="299" type="line"/>
			<point x="379" y="407" type="line"/>
		</contour>
		<contour>
			<point x="174" y="314" type="line"/>
			<point x="59" y="256" type="line"/>
			<point x="56" y="241" type="line"/>
			<point x="171" y="299" type="line"/>
		</contour>
		<component base="L"/>
	</outline>
</glyph>
<glyph name="lslash" format="2">
	<unicode hex="0142"/>
	<advance width="262"/>
	<outline>
		<contour>
			<point x="162" y="388" type="line"/>
			<point x="56" y="332" type="line"/>
			<point x="53" y="318" type="line"/>
			<point x="160" y="374" type="line"/>
		</contour>
		<contour>
			<point x="268" y="442" type="line"/>
			<point x="162" y="386" type="line"/>
			<point x="159" y="372" type="line"/>
			<point x="266" y="428" type="line"/>
		</contour>
		<component base="l" xOffset="8"/>
	</outline>
</glyph>
<glyph name="eng" format="2">
	<unicode hex="014B"/>
	<advance width="554"/>
	<outline>
		<contour>
			<point x="65" y="-4" type="line"/>
			<point x="88" y="0" type="line"/>
			<point x="101" y="77"/>
			<point x="112" y="131"/>
			<point x="125" y="196" type="curve" smooth="yes"/>
			<point x="151" y="325" type="line"/>
			<point x="152" y="330" type="line"/>
			<point x="176" y="448" type="line"/>
			<point x="170" y="453" type="line"/>
			<point x="43" y="444" type="line"/>
			<point x="43" y="434" type="line"/>
			<point x="156" y="434" type="line"/>
			<point x="152" y="442" type="line"/>
			<point x="61" y="0" type="line"/>
		</contour>
		<contour>
			<point x="150" y="-260" type="line"/>
			<point x="189" y="-250"/>
			<point x="220" y="-235"/>
			<point x="244" y="-214" type="curve" smooth="yes"/>
			<point x="297" y="-168"/>
			<point x="321" y="-96"/>
			<point x="344" y="12" type="curve" smooth="yes"/>
			<point x="407" y="312" type="line" smooth="yes"/>
			<point x="415" y="349"/>
			<point x="418" y="371"/>
			<point x="418" y="400" type="curve" smooth="yes"/>
			<point x="418" y="433"/>
			<point x="400" y="460"/>
			<point x="358" y="460" type="curve" smooth="yes"/>
			<point x="298" y="460"/>
			<point x="215" y="395"/>
			<point x="136" y="316" type="curve"/>
			<point x="132" y="316" type="line"/>
			<point x="136" y="307" type="line"/>
			<point x="241" y="400"/>
			<point x="299" y="442"/>
			<point x="351" y="442" type="curve" smooth="yes"/>
			<point x="378" y="442"/>
			<point x="395" y="425"/>
			<point x="395" y="396" type="curve" smooth="yes"/>
			<point x="395" y="372"/>
			<point x="390" y="342"/>
			<point x="384" y="312" type="curve" smooth="yes"/>
			<point x="322" y="20" type="line" smooth="yes"/>
			<point x="299" y="-87"/>
			<point x="278" y="-156"/>
			<point x="234" y="-201" type="curve" smooth="yes"/>
			<point x="211" y="-223"/>
			<point x="184" y="-239"/>
			<point x="148" y="-251" type="curve"/>
		</contour>
	</outline>
</glyph>
<glyph name="OE" format="2">
	<unicode hex="0152"/>
	<advance width="848"/>
	<outline>
		<contour>
			<point x="420" y="2" type="curve"/>
			<point x="422" y="16" type="line"/>
			<point x="386" y="5"/>
			<point x="351" y="0"/>
			<point x="314" y="0" type="curve" smooth="yes"/>
			<point x="189" y="0"/>
			<point x="108" y="91"/>
			<point x="108" y="244" type="curve" smooth="yes"/>
			<point x="108" y="499"/>
			<point x="266" y="675"/>
			<point x="445" y="675" type="curve" smooth="yes"/>
			<point x="486" y="675"/>
			<point x="517" y="671"/>
			<point x="546" y="659" type="curve"/>
			<point x="548" y="673" type="line"/>
			<point x="520" y="683"/>
			<point x="488" y="688"/>
			<point x="447" y="688" type="curve" smooth="yes"/>
			<point x="252" y="688"/>
			<point x="82" y="508"/>
			<point x="82" y="244" type="curve" smooth="yes"/>
			<point x="82" y="89"/>
			<point x="164" y="-13"/>
			<point x="311" y="-13" type="curve" smooth="yes"/>
			<point x="349" y="-13"/>
			<point x="384" y="-9"/>
		</contour>
		<contour>
			<point x="414" y="0" type="line"/>
			<point x="442" y="0" type="line"/>
			<point x="458" y="104"/>
			<point x="478" y="209"/>
			<point x="497" y="313" type="curve" smooth="yes"/>
			<point x="565" y="676" type="line"/>
			<point x="537" y="676" type="line"/>
			<point x="520" y="572"/>
			<point x="502" y="468"/>
			<point x="482" y="364" type="curve" smooth="yes"/>
		</contour>
		<contour>
			<point x="435" y="0" type="line"/>
			<point x="765" y="0" type="line"/>
			<point x="801" y="172" type="line"/>
			<point x="791" y="172" type="line"/>
			<point x="742" y="7" type="line"/>
			<point x="755" y="13" type="line"/>
			<point x="437" y="13" type="line"/>
		</contour>
		<contour>
			<point x="494" y="338" type="line"/>
			<point x="688" y="338" type="line"/>
			<point x="691" y="351" type="line"/>
			<point x="497" y="351" type="line"/>
		</contour>
		<contour>
			<point x="552" y="663" type="line"/>
			<point x="857" y="663" type="line"/>
			<point x="847" y="670" type="line"/>
			<point x="843" y="512" type="line"/>
			<point x="853" y="512" type="line"/>
			<point x="872" y="676" type="line"/>
			<point x="554" y="676" type="line"/>
		</contour>
		<contour>
			<point x="670" y="237" type="line"/>
			<point x="680" y="237" type="line"/>
			<point x="718" y="453" type="line"/>
			<point x="708" y="453" type="line"/>
			<point x="678" y="349" type="line"/>
			<point x="677" y="341" type="line"/>
		</contour>
	</outline>
	<anchor name="aboveUC" x="557" y="692"/>
</glyph>
<glyph name="oe" format="2">
	<unicode hex="0153"/>
	<advance width="720"/>
	<outline>
		<contour>
			<point x="200" y="-12" type="curve"/>
			<point x="289" y="-12"/>
			<point x="361" y="63"/>
			<point x="397" y="156" type="curve"/>
			<point x="424" y="292" type="line"/>
			<point x="424" y="407"/>
			<point x="360" y="460"/>
			<point x="284" y="460" type="curve"/>
			<point x="152" y="460"/>
			<point x="60" y="296"/>
			<point x="60" y="156" type="curve" smooth="yes"/>
			<point x="60" y="41"/>
			<point x="124" y="-12"/>
		</contour>
		<contour>
			<point x="202" y="0" type="curve"/>
			<point x="135" y="0"/>
			<point x="85" y="48"/>
			<point x="85" y="152" type="curve" smooth="yes"/>
			<point x="85" y="282"/>
			<point x="163" y="448"/>
			<point x="282" y="448" type="curve"/>
			<point x="349" y="448"/>
			<point x="399" y="400"/>
			<point x="399" y="296" type="curve" smooth="yes"/>
			<point x="399" y="166"/>
			<point x="321" y="0"/>
		</contour>
		<component base="e" xOffset="320"/>
	</outline>
	<anchor name="aboveLC" x="431" y="476"/>
</glyph>
<glyph name="Uogonek" format="2">
	<unicode hex="0172"/>
	<advance width="644"/>
	<outline>
		<contour>
			<point x="203" y="660" type="line"/>
			<point x="215" y="660" type="line"/>
			<point x="316" y="666" type="line"/>
			<point x="318" y="676" type="line"/>
			<point x="114" y="676" type="line"/>
			<point x="112" y="666" type="line"/>
		</contour>
		<contour>
			<point x="364" y="-233" type="curve" smooth="yes"/>
			<point x="388" y="-233"/>
			<point x="413" y="-224"/>
			<point x="432" y="-212" type="curve"/>
			<point x="428" y="-204" type="line"/>
			<point x="409" y="-213"/>
			<point x="390" y="-217"/>
			<point x="369" y="-217" type="curve" smooth="yes"/>
			<point x="333" y="-217"/>
			<point x="313" y="-192"/>
			<point x="313" y="-157" type="curve" smooth="yes"/>
			<point x="313" y="-89"/>
			<point x="366" y="-37"/>
			<point x="452" y="46" type="curve" smooth="yes"/>
			<point x="498" y="89"/>
			<point x="528" y="155"/>
			<point x="544" y="244" type="curve" smooth="yes"/>
			<point x="620" y="676" type="line"/>
			<point x="604" y="676" type="line"/>
			<point x="531" y="260" type="line" smooth="yes"/>
			<point x="500" y="82"/>
			<point x="426" y="6"/>
			<point x="290" y="6" type="curve" smooth="yes"/>
			<point x="200" y="6"/>
			<point x="138" y="51"/>
			<point x="138" y="160" type="curve" smooth="yes"/>
			<point x="138" y="184"/>
			<point x="142" y="211"/>
			<point x="147" y="240" type="curve" smooth="yes"/>
			<point x="228" y="676" type="line"/>
			<point x="200" y="676" type="line"/>
			<point x="183" y="574"/>
			<point x="169" y="491"/>
			<point x="136" y="316" type="curve" smooth="yes"/>
			<point x="121" y="236" type="line" smooth="yes"/>
			<point x="116" y="207"/>
			<point x="112" y="181"/>
			<point x="112" y="160" type="curve" smooth="yes"/>
			<point x="112" y="39"/>
			<point x="180" y="-12"/>
			<point x="288" y="-12" type="curve" smooth="yes"/>
			<point x="334" y="-12"/>
			<point x="374" y="-1"/>
			<point x="407" y="16" type="curve"/>
			<point x="407" y="15" type="line"/>
			<point x="345" y="-43"/>
			<point x="294" y="-92"/>
			<point x="294" y="-161" type="curve" smooth="yes"/>
			<point x="294" y="-204"/>
			<point x="321" y="-233"/>
		</contour>
		<contour>
			<point x="607" y="660" type="line"/>
			<point x="611" y="660" type="line"/>
			<point x="702" y="666" type="line"/>
			<point x="704" y="676" type="line"/>
			<point x="510" y="676" type="line"/>
			<point x="508" y="666" type="line"/>
		</contour>
	</outline>
	<anchor name="aboveUC" x="413" y="696"/>
</glyph>
<glyph name="uogonek" format="2">
	<unicode hex="0173"/>
	<advance width="512"/>
	<outline>
		<contour>
			<point x="131" y="-12" type="curve" smooth="yes"/>
			<point x="191" y="-12"/>
			<point x="274" y="51"/>
			<point x="353" y="132" type="curve"/>
			<point x="357" y="132" type="line"/>
			<point x="353" y="141" type="line"/>
			<point x="248" y="48"/>
			<point x="189" y="8"/>
			<point x="137" y="8" type="curve" smooth="yes"/>
			<point x="110" y="8"/>
			<point x="97" y="23"/>
			<point x="97" y="52" type="curve" smooth="yes"/>
			<point x="97" y="76"/>
			<point x="102" y="106"/>
			<point x="109" y="136" type="curve" smooth="yes"/>
			<point x="177" y="448" type="line"/>
			<point x="171" y="453" type="line"/>
			<point x="40" y="444" type="line"/>
			<point x="40" y="434" type="line"/>
			<point x="155" y="434" type="line"/>
			<point x="152" y="440" type="line"/>
			<point x="86" y="136" type="line" smooth="yes"/>
			<point x="78" y="99"/>
			<point x="74" y="77"/>
			<point x="74" y="48" type="curve" smooth="yes"/>
			<point x="74" y="11"/>
			<point x="89" y="-12"/>
		</contour>
		<contour>
			<point x="298" y="-206"/>
			<point x="322" y="-233"/>
			<point x="369" y="-233" type="curve" smooth="yes"/>
			<point x="391" y="-233"/>
			<point x="417" y="-225"/>
			<point x="436" y="-212" type="curve"/>
			<point x="432" y="-204" type="line"/>
			<point x="414" y="-213"/>
			<point x="393" y="-217"/>
			<point x="373" y="-217" type="curve" smooth="yes"/>
			<point x="336" y="-217"/>
			<point x="317" y="-194"/>
			<point x="317" y="-157" type="curve" smooth="yes"/>
			<point x="317" y="-92"/>
			<point x="372" y="-34"/>
			<point x="431" y="21" type="curve" smooth="yes"/>
			<point x="450" y="39"/>
			<point x="467" y="60"/>
			<point x="484" y="84" type="curve"/>
			<point x="476" y="90" type="line"/>
			<point x="439" y="43"/>
			<point x="398" y="8"/>
			<point x="364" y="8" type="curve" smooth="yes"/>
			<point x="350" y="8"/>
			<point x="342" y="16"/>
			<point x="342" y="32" type="curve" smooth="yes"/>
			<point x="342" y="52"/>
			<point x="348" y="77"/>
			<point x="352" y="96" type="curve" smooth="yes"/>
			<point x="425" y="449" type="line"/>
			<point x="421" y="453" type="line"/>
			<point x="398" y="449" type="line"/>
			<point x="385" y="372"/>
			<point x="374" y="317"/>
			<point x="361" y="252" type="curve" smooth="yes"/>
			<point x="334" y="121" type="line"/>
			<point x="333" y="117" type="line"/>
			<point x="325" y="77"/>
			<point x="319" y="47"/>
			<point x="319" y="30" type="curve" smooth="yes"/>
			<point x="319" y="7"/>
			<point x="330" y="-12"/>
			<point x="359" y="-12" type="curve" smooth="yes"/>
			<point x="374" y="-12"/>
			<point x="387" y="-7"/>
			<point x="398" y="1" type="curve"/>
			<point x="389" y="5" type="line"/>
			<point x="389" y="-5" type="line"/>
			<point x="344" y="-42"/>
			<point x="298" y="-99"/>
			<point x="298" y="-161" type="curve" smooth="yes"/>
		</contour>
	</outline>
	<anchor name="aboveLC" x="286" y="468"/>
</glyph>
<glyph name="longs" format="2">
	<unicode hex="017F"/>
	<advance width="305"/>
	<outline>
		<contour>
			<point x="388" y="756" type="curve" smooth="yes"/>
			<point x="299" y="756"/>
			<point x="214" y="688"/>
			<point x="185" y="500" type="curve" smooth="yes"/>
			<point x="115" y="40" type="line" smooth="yes"/>
			<point x="104" y="-33"/>
			<point x="88" y="-130"/>
			<point x="42" y="-191" type="curve" smooth="yes"/>
			<point x="17" y="-225"/>
			<point x="-19" y="-248"/>
			<point x="-68" y="-248" type="curve"/>
			<point x="-45" y="-248" type="line"/>
			<point x="-36" y="-248" type="line"/>
			<point x="-50" y="-236" type="line" smooth="yes"/>
			<point x="-69" y="-219"/>
			<point x="-85" y="-202"/>
			<point x="-105" y="-202" type="curve" smooth="yes"/>
			<point x="-114" y="-202"/>
			<point x="-122" y="-206"/>
			<point x="-125" y="-216" type="curve"/>
			<point x="-123" y="-231"/>
			<point x="-95" y="-256"/>
			<point x="-56" y="-256" type="curve" smooth="yes"/>
			<point x="-9" y="-256"/>
			<point x="27" y="-235"/>
			<point x="55" y="-203" type="curve" smooth="yes"/>
			<point x="104" y="-144"/>
			<point x="127" y="-47"/>
			<point x="140" y="40" type="curve" smooth="yes"/>
			<point x="210" y="500" type="line" smooth="yes"/>
			<point x="239" y="686"/>
			<point x="308" y="746"/>
			<point x="400" y="746" type="curve"/>
			<point x="400" y="748" type="line"/>
			<point x="386" y="748" type="line"/>
			<point x="432" y="700" type="line" smooth="yes"/>
			<point x="446" y="686"/>
			<point x="451" y="682"/>
			<point x="460" y="682" type="curve" smooth="yes"/>
			<point x="470" y="682"/>
			<point x="476" y="688"/>
			<point x="476" y="700" type="curve"/>
			<point x="468" y="724"/>
			<point x="432" y="756"/>
		</contour>
	</outline>
</glyph>
<glyph name="Schwa" format="2">
	<unicode hex="018F"/>
	<advance width="608"/>
	<outline>
		<contour>
			<point x="273" y="-12" type="curve" smooth="yes"/>
			<point x="446" y="-12"/>
			<point x="600" y="196"/>
			<point x="600" y="439" type="curve" smooth="yes"/>
			<point x="600" y="593"/>
			<point x="520" y="688"/>
			<point x="391" y="688" type="curve" smooth="yes"/>
			<point x="318" y="688"/>
			<point x="237" y="654"/>
			<point x="173" y="591" type="curve"/>
			<point x="180" y="584" type="line"/>
			<point x="240" y="640"/>
			<point x="314" y="672"/>
			<point x="388" y="672" type="curve" smooth="yes"/>
			<point x="511" y="672"/>
			<point x="574" y="580"/>
			<point x="574" y="440" type="curve" smooth="yes"/>
			<point x="574" y="201"/>
			<point x="431" y="1"/>
			<point x="276" y="1" type="curve" smooth="yes"/>
			<point x="149" y="1"/>
			<point x="97" y="96"/>
			<point x="97" y="208" type="curve" smooth="yes"/>
			<point x="97" y="252"/>
			<point x="107" y="302"/>
			<point x="119" y="336" type="curve"/>
			<point x="570" y="336" type="line"/>
			<point x="572" y="350" type="line"/>
			<point x="99" y="350" type="line"/>
			<point x="80" y="301"/>
			<point x="72" y="253"/>
			<point x="72" y="205" type="curve" smooth="yes"/>
			<point x="72" y="82"/>
			<point x="135" y="-12"/>
		</contour>
	</outline>
	<anchor name="aboveUC" x="386" y="692"/>
	<anchor name="belowLC" x="274" y="-24"/>
</glyph>
<glyph name="florin" format="2">
	<unicode hex="0192"/>
	<advance width="460"/>
	<outline>
		<contour>
			<point x="123" y="359" type="line"/>
			<point x="397" y="359" type="line"/>
			<point x="399" y="371" type="line"/>
			<point x="125" y="371" type="line"/>
		</contour>
		<contour>
			<point x="0" y="-100" type="curve" smooth="yes"/>
			<point x="41" y="-100"/>
			<point x="75" y="-87"/>
			<point x="105" y="-64" type="curve" smooth="yes"/>
			<point x="164" y="-17"/>
			<point x="198" y="50"/>
			<point x="230" y="218" type="curve"/>
			<point x="256" y="350" type="line" smooth="yes"/>
			<point x="289" y="522"/>
			<point x="318" y="585"/>
			<point x="368" y="625" type="curve" smooth="yes"/>
			<point x="389" y="642"/>
			<point x="421" y="658"/>
			<point x="461" y="658" type="curve"/>
			<point x="439" y="659" type="line"/>
			<point x="422" y="660" type="line"/>
			<point x="443" y="644" type="line" smooth="yes"/>
			<point x="458" y="632"/>
			<point x="474" y="624"/>
			<point x="488" y="624" type="curve" smooth="yes"/>
			<point x="507" y="624"/>
			<point x="516" y="631"/>
			<point x="519" y="644" type="curve"/>
			<point x="514" y="661"/>
			<point x="489" y="668"/>
			<point x="462" y="668" type="curve" smooth="yes"/>
			<point x="421" y="668"/>
			<point x="387" y="655"/>
			<point x="357" y="632" type="curve" smooth="yes"/>
			<point x="298" y="585"/>
			<point x="264" y="518"/>
			<point x="232" y="350" type="curve" smooth="yes"/>
			<point x="206" y="218" type="line" smooth="yes"/>
			<point x="173" y="46"/>
			<point x="144" y="-17"/>
			<point x="94" y="-57" type="curve" smooth="yes"/>
			<point x="73" y="-74"/>
			<point x="41" y="-90"/>
			<point x="1" y="-90" type="curve"/>
			<point x="26" y="-91" type="line"/>
			<point x="40" y="-92" type="line"/>
			<point x="19" y="-76" type="line" smooth="yes"/>
			<point x="4" y="-64"/>
			<point x="-12" y="-56"/>
			<point x="-26" y="-56" type="curve" smooth="yes"/>
			<point x="-45" y="-56"/>
			<point x="-54" y="-63"/>
			<point x="-57" y="-76" type="curve"/>
			<point x="-52" y="-93"/>
			<point x="-27" y="-100"/>
		</contour>
	</outline>
</glyph>
<glyph name="Uhorn" format="2">
	<unicode hex="01AF"/>
	<advance width="644"/>
	<outline>
		<contour>
			<point x="112" y="160" type="curve" smooth="yes"/>
			<point x="112" y="39"/>
			<point x="180" y="-12"/>
			<point x="288" y="-12" type="curve" smooth="yes"/>
			<point x="432" y="-12"/>
			<point x="514" y="75"/>
			<point x="544" y="244" type="curve" smooth="yes"/>
			<point x="620" y="676" type="line"/>
			<point x="604" y="676" type="line"/>
			<point x="531" y="260" type="line" smooth="yes"/>
			<point x="500" y="82"/>
			<point x="426" y="6"/>
			<point x="290" y="6" type="curve" smooth="yes"/>
			<point x="200" y="6"/>
			<point x="138" y="51"/>
			<point x="138" y="160" type="curve" smooth="yes"/>
			<point x="138" y="184"/>
			<point x="142" y="211"/>
			<point x="147" y="240" type="curve" smooth="yes"/>
			<point x="228" y="676" type="line"/>
			<point x="200" y="676" type="line"/>
			<point x="183" y="574"/>
			<point x="169" y="491"/>
			<point x="136" y="316" type="curve" smooth="yes"/>
			<point x="121" y="236" type="line" smooth="yes"/>
			<point x="116" y="207"/>
			<point x="112" y="181"/>
		</contour>
		<contour>
			<point x="615" y="665" type="line"/>
			<point x="687" y="665"/>
			<point x="731" y="701"/>
			<point x="731" y="773" type="curve" smooth="yes"/>
			<point x="731" y="796"/>
			<point x="727" y="808"/>
			<point x="723" y="818" type="curve"/>
			<point x="720" y="820"/>
			<point x="715" y="821"/>
			<point x="712" y="821" type="curve" smooth="yes"/>
			<point x="704" y="821"/>
			<point x="698" y="814"/>
			<point x="698" y="803" type="curve" smooth="yes"/>
			<point x="698" y="787"/>
			<point x="709" y="775"/>
			<point x="709" y="745" type="curve" smooth="yes"/>
			<point x="709" y="703"/>
			<point x="679" y="676"/>
			<point x="617" y="676" type="curve"/>
		</contour>
		<contour>
			<point x="112" y="666" type="line"/>
			<point x="203" y="660" type="line"/>
			<point x="215" y="660" type="line"/>
			<point x="316" y="666" type="line"/>
			<point x="318" y="676" type="line"/>
			<point x="114" y="676" type="line"/>
		</contour>
		<contour>
			<point x="508" y="666" type="line"/>
			<point x="607" y="660" type="line"/>
			<point x="614" y="660" type="line"/>
			<point x="617" y="676" type="line"/>
			<point x="510" y="676" type="line"/>
		</contour>
	</outline>
	<anchor name="aboveUC" x="413" y="696"/>
	<anchor name="belowLC" x="298" y="-20"/>
</glyph>
<glyph name="dotlessj" format="2">
	<unicode hex="0237"/>
	<advance width="239"/>
	<outline>
		<contour>
			<point x="-95" y="-260" type="line"/>
			<point x="-56.7868378637" y="-250.2245399186"/>
			<point x="-30.3525456784" y="-230.4792729339"/>
			<point x="-6" y="-208" type="curve" smooth="yes"/>
			<point x="43" y="-162"/>
			<point x="66" y="-91"/>
			<point x="87" y="12" type="curve" smooth="yes"/>
			<point x="177" y="448" type="line"/>
			<point x="171" y="453" type="line"/>
			<point x="42" y="444" type="line"/>
			<point x="42" y="434" type="line"/>
			<point x="155" y="434" type="line"/>
			<point x="152" y="440" type="line"/>
			<point x="65" y="20" type="line" smooth="yes"/>
			<point x="44" y="-83"/>
			<point x="22" y="-151"/>
			<point x="-19" y="-196" type="curve" smooth="yes"/>
			<point x="-40.6167604012" y="-219.4964786969"/>
			<point x="-63.520810702" y="-239.5465931349"/>
			<point x="-97" y="-251" type="curve"/>
		</contour>
	</outline>
	<anchor name="aboveLC" x="158" y="468"/>
</glyph>
<glyph name="schwa" format="2">
	<unicode hex="0259"/>
	<advance width="400"/>
	<outline>
		<contour>
			<point x="136" y="-12" type="curve" smooth="yes"/>
			<point x="268" y="-12"/>
			<point x="372" y="160"/>
			<point x="372" y="296" type="curve" smooth="yes"/>
			<point x="372" y="411"/>
			<point x="310" y="460"/>
			<point x="238" y="460" type="curve" smooth="yes"/>
			<point x="176" y="460"/>
			<point x="124" y="421"/>
			<point x="84" y="358" type="curve"/>
			<point x="92" y="352" type="line"/>
			<point x="131" y="406"/>
			<point x="177" y="440"/>
			<point x="232" y="440" type="curve" smooth="yes"/>
			<point x="298" y="440"/>
			<point x="348" y="390"/>
			<point x="348" y="296" type="curve" smooth="yes"/>
			<point x="348" y="166"/>
			<point x="255" y="0"/>
			<point x="136" y="0" type="curve" smooth="yes"/>
			<point x="97" y="0"/>
			<point x="71" y="25"/>
			<point x="71" y="64" type="curve" smooth="yes"/>
			<point x="71" y="148"/>
			<point x="178" y="222"/>
			<point x="361" y="271" type="curve"/>
			<point x="359" y="281" type="line"/>
			<point x="166" y="231"/>
			<point x="48" y="155"/>
			<point x="48" y="64" type="curve" smooth="yes"/>
			<point x="48" y="13"/>
			<point x="86" y="-12"/>
		</contour>
	</outline>
	<anchor name="aboveLC" x="232" y="476"/>
	<anchor name="belowLC" x="172" y="-24"/>
</glyph>
<glyph name="gscript" format="2">
	<unicode hex="0261"/>
	<advance width="472"/>
	<outline>
		<contour>
			<point x="128" y="-260" type="curve"/>
			<point x="183" y="-260"/>
			<point x="225" y="-246"/>
			<point x="257" y="-211" type="curve" smooth="yes"/>
			<point x="308" y="-157"/>
			<point x="337" y="-50"/>
			<point x="362" y="140" type="curve"/>
			<point x="407" y="358" type="line"/>
			<point x="427" y="453" type="line"/>
			<point x="421" y="458" type="line"/>
			<point x="397" y="421" type="line"/>
			<point x="339" y="140" type="line"/>
			<point x="316" y="-43"/>
			<point x="291" y="-145"/>
			<point x="247" y="-199" type="curve" smooth="yes"/>
			<point x="218" y="-235"/>
			<point x="180" y="-248"/>
			<point x="128" y="-248" type="curve" smooth="yes"/>
			<point x="95" y="-248"/>
			<point x="62" y="-242"/>
			<point x="32" y="-212" type="curve"/>
			<point x="44" y="-232" type="line"/>
			<point x="32" y="-164" type="line" smooth="yes"/>
			<point x="29" y="-148"/>
			<point x="24" y="-140"/>
			<point x="13" y="-140" type="curve" smooth="yes"/>
			<point x="5" y="-140"/>
			<point x="0" y="-144"/>
			<point x="-4" y="-152" type="curve"/>
			<point x="10" y="-230"/>
			<point x="68" y="-260"/>
		</contour>
		<contour>
			<point x="156" y="-12" type="curve" smooth="yes"/>
			<point x="227" y="-12"/>
			<point x="293" y="67"/>
			<point x="357" y="156" type="curve"/>
			<point x="352" y="160" type="line"/>
			<point x="281" y="72"/>
			<point x="224" y="7"/>
			<point x="160" y="7" type="curve" smooth="yes"/>
			<point x="112" y="7"/>
			<point x="80" y="42"/>
			<point x="80" y="124" type="curve" smooth="yes"/>
			<point x="80" y="206"/>
			<point x="119" y="311"/>
			<point x="182" y="378" type="curve" smooth="yes"/>
			<point x="220" y="418"/>
			<point x="265" y="444"/>
			<point x="316" y="444" type="curve" smooth="yes"/>
			<point x="350" y="444"/>
			<point x="382" y="430"/>
			<point x="402" y="406" type="curve"/>
			<point x="406" y="420" type="line"/>
			<point x="390" y="444"/>
			<point x="354" y="460"/>
			<point x="320" y="460" type="curve" smooth="yes"/>
			<point x="192" y="460"/>
			<point x="56" y="274"/>
			<point x="56" y="118" type="curve" smooth="yes"/>
			<point x="56" y="17"/>
			<point x="109" y="-12"/>
		</contour>
	</outline>
	<anchor name="belowLC" x="140" y="-264"/>
	<anchor name="aboveLC" x="302" y="476"/>
</glyph>
